<?xml version="1.0" encoding="utf-8"?>
<!-- Generator: Adobe Illustrator 19.2.1, SVG Export Plug-In . SVG Version: 6.00 Build 0)  -->
<svg version="1.1" id="Calque_1" xmlns="http://www.w3.org/2000/svg" xmlns:xlink="http://www.w3.org/1999/xlink" x="0px" y="0px"
	 viewBox="0 0 120 120" style="enable-background:new 0 0 120 120;" xml:space="preserve">
<style type="text/css">
	.st0{fill:#FFFFFF;}
</style>
<g>
	<path class="st0" d="M26,44.4l4.8-1l7.5-1.3l6.9-5.6l3.2-0.6l-1.7-9.8c-1.4-7.8-8.8-13-16.6-11.6l-9.2,1.6L6.6,18.6
		c-2.6,0.5-4.4,2.9-3.9,5.6c0.5,2.7,2.9,4.4,5.6,3.9l15.4-2.7l0.3,1.5l-10.3,1.8c-0.9,1.1-1.4,2.5-1.1,4.1c0.5,2.6,2.9,4.4,5.6,3.9
		l9.5-1.7l0.3,1.5l-5.7,1c-0.7,0.9-1.1,2.2-0.9,3.5C21.5,43.3,23.7,44.8,26,44.4z"/>
	<path class="st0" d="M19.4,41c0-0.2-0.1-0.5-0.1-0.7C19.4,40.6,19.4,40.8,19.4,41z"/>
	<polygon class="st0" points="45.5,38.2 30.4,50.4 21.9,79.2 42.8,99.6 51.3,71.1 	"/>
	<path class="st0" d="M52.5,72.5l-8,26.9l31.3-5.5l6.1-20.3l-1.1-6.1L52.5,72.5z M69,87.4l-12.4,2.2l3.2-10.8l12.4-2.2L69,87.4z"/>
	<polygon points="56.6,89.6 69,87.4 72.2,76.6 59.8,78.8 	"/>
	<path class="st0" d="M116.3,95.1l-2.5-14.4l-1.6-9.2c-1.4-7.8-8.8-13-16.6-11.6l-14.2,2.5l3.2,18.3l-0.1,0l0.9,4.8
		c0.4,2.4,2.6,3.9,5,3.5c1.3-0.2,2.4-1,3-2.1l-1-5.7l1.5-0.3l1.7,9.5c0.5,2.7,3,4.3,5.6,3.9c1.6-0.3,2.7-1.2,3.4-2.4l-1.8-10.3
		l1.5-0.3l2.7,15.4c0.5,2.7,3,4.3,5.6,3.9C115,100.2,116.7,97.7,116.3,95.1z"/>
	<path class="st0" d="M91.4,90.5c-0.2,0.1-0.5,0.1-0.7,0.2C91,90.7,91.2,90.6,91.4,90.5z"/>
	<path d="M117.8,94.9l-2.5-14.4l-1.6-9.2c-1.5-8.6-9.7-14.3-18.3-12.8l-10.2,1.8l-5.3-30l-30,5.3l-1.8-9.9
		c-1.5-8.6-9.7-14.3-18.3-12.8l-9.2,1.6L6.3,17c-3.4,0.6-5.7,3.9-5.1,7.3s3.9,5.7,7.3,5l3-0.5c-0.6,1.2-0.9,2.6-0.6,4
		c0.6,3.4,3.9,5.7,7.3,5.1l1.8-0.3c-0.3,0.9-0.5,1.8-0.5,2.7c0,0.2,0,0.5,0.1,0.7c0.6,3.2,3.6,5.3,6.7,4.7l4.9-0.9l4.8-0.8L29,49.6
		l-8.9,30l22.2,21.7L77,95.2L82.4,77l0.7,4.1L84,86c0.6,3.2,3.6,5.3,6.7,4.7c0.2,0,0.5-0.1,0.7-0.2c0.9-0.3,1.7-0.8,2.4-1.4l0.3,1.8
		c0.6,3.4,3.9,5.7,7.3,5.1c1.4-0.2,2.6-1,3.5-1.9l0.5,3c0.5,3.5,3.8,5.7,7.2,5.1C116.1,101.6,118.4,98.3,117.8,94.9z M21.1,40.9
		c-0.2-1.3,0.2-2.6,0.9-3.5l5.7-1l-0.3-1.5L18,36.6c-2.7,0.5-5.1-1.3-5.6-3.9c-0.3-1.6,0.2-3,1.1-4.1l10.3-1.8l-0.3-1.5L8.2,28.1
		c-2.7,0.5-5.1-1.2-5.6-3.9c-0.5-2.7,1.3-5.1,3.9-5.6l14.4-2.5l9.2-1.6c7.8-1.4,15.2,3.8,16.6,11.6l1.7,9.8l-3.2,0.6l-6.9,5.6
		l-7.5,1.3l-4.8,1C23.7,44.8,21.5,43.3,21.1,40.9z M21.9,79.2l8.5-28.8l15.1-12.2l5.8,33l-8.5,28.5L21.9,79.2z M75.7,93.8l-31.3,5.5
		l8-26.9l28.3-5l1.1,6.1L75.7,93.8z M112.4,100.7c-2.6,0.5-5.1-1.2-5.6-3.9l-2.7-15.4l-1.5,0.3l1.8,10.3c-0.7,1.2-1.9,2.2-3.4,2.4
		c-2.6,0.5-5.1-1.2-5.6-3.9l-1.7-9.5l-1.5,0.3l1,5.7c-0.6,1-1.7,1.8-3,2.1c-2.4,0.4-4.6-1.1-5-3.5l-0.9-4.8l0.1,0l-3.2-18.3L95.6,60
		c7.8-1.4,15.2,3.8,16.6,11.6l1.6,9.2l2.5,14.4C116.7,97.7,115,100.2,112.4,100.7z"/>
</g>
</svg>
