<svg xmlns="http://www.w3.org/2000/svg" viewBox="0 0 131.87 131.81"><title>Fichier 1</title><path d="M45,9.65,42.92,4c-.69.26-1.38.53-2.06.81l2.32,5.61C43.8,10.13,44.42,9.88,45,9.65Z"/><path d="M32.62,16l-3.37-5c-.61.41-1.22.83-1.81,1.26L31,17.15C31.52,16.77,32.06,16.38,32.62,16Z"/><path d="M58.6,6.37,57.85.31c-.73.09-1.46.19-2.18.31l.95,6C57.27,6.53,57.93,6.45,58.6,6.37Z"/><path d="M6,63,.07,62.68c0,.73-.06,1.46-.07,2.2L6,65C6,64.29,6,63.62,6,63Z"/><path d="M8.31,49.18,2.56,47.52c-.2.71-.39,1.42-.57,2.14l5.79,1.45C7.94,50.46,8.13,49.82,8.31,49.18Z"/><path d="M72.54,6.28,73.2.2C72.47.12,71.74.06,71,0l-.46,6.1C71.21,6.15,71.88,6.2,72.54,6.28Z"/><path d="M22,25.06,17.57,21c-.49.54-1,1.08-1.46,1.64l4.56,3.95C21.1,26.05,21.55,25.55,22,25.06Z"/><path d="M117.72,35.62,123,32.53c-.37-.63-.75-1.26-1.15-1.89l-5.17,3.27C117,34.47,117.38,35,117.72,35.62Z"/><path d="M123.33,48.39l5.83-1.77c-.22-.71-.44-1.41-.68-2.11l-5.78,2C122.92,47.12,123.13,47.75,123.33,48.39Z"/><path d="M125.8,62.11l6.07-.37c-.05-.73-.1-1.46-.17-2.19l-6,.57C125.71,60.78,125.76,61.44,125.8,62.11Z"/><path d="M86.12,9.4l2.06-5.77c-.69-.24-1.39-.48-2.09-.7L84.23,8.76C84.86,9,85.49,9.17,86.12,9.4Z"/><path d="M109.32,24.49l4.44-4.23c-.51-.53-1-1.05-1.55-1.56l-4.28,4.37C108.4,23.53,108.86,24,109.32,24.49Z"/><path d="M98.6,15.59l3.34-5.14c-.61-.4-1.23-.78-1.86-1.16l-3.16,5.23C97.49,14.86,98,15.23,98.6,15.59Z"/><path d="M13.74,36.32l-5.23-3c-.36.64-.71,1.28-1,1.93l5.33,2.78C13.09,37.48,13.42,36.9,13.74,36.32Z"/><path d="M79.88,124.26,81.25,130q1.06-.25,2.13-.54l-1.56-5.73C81.17,123.94,80.53,124.11,79.88,124.26Z"/><path d="M114.21,101.54l4.81,3.57c.44-.59.87-1.18,1.28-1.79l-4.94-3.41C115,100.46,114.6,101,114.21,101.54Z"/><path d="M93,119.45l2.68,5.32c.66-.33,1.32-.67,2-1l-2.86-5.22C94.19,118.85,93.6,119.15,93,119.45Z"/><path d="M104.65,111.73l3.85,4.57c.56-.47,1.11-1,1.66-1.44l-4-4.44C105.67,110.87,105.16,111.3,104.65,111.73Z"/><path d="M121.14,89.43l5.54,2.37c.29-.67.56-1.35.83-2l-5.63-2.19C121.64,88.2,121.41,88.82,121.14,89.43Z"/><path d="M7,76.91,1.12,78c.13.73.28,1.45.44,2.17l5.79-1.29C7.21,78.22,7.08,77.56,7,76.91Z"/><path d="M125.07,76l6,1c.12-.71.23-1.44.33-2.16l-6-.83C125.28,74.73,125.18,75.39,125.07,76Z"/><path d="M66,125.91v5.9c.74,0,1.47,0,2.21,0l-.2-5.93Q67,125.9,66,125.91Z"/><path d="M18.24,102.29l-4.7,3.59c.45.58.91,1.16,1.37,1.73l4.56-3.74C19.05,103.35,18.64,102.82,18.24,102.29Z"/><path d="M11.1,90.26,5.69,92.67c.3.68.61,1.34.93,2l5.32-2.59C11.64,91.48,11.37,90.87,11.1,90.26Z"/><path d="M28,112.35l-3.74,4.56c.57.47,1.15.93,1.73,1.37l3.58-4.69C29,113.18,28.47,112.78,28,112.35Z"/><path d="M39.74,119.89l-2.58,5.31c.66.32,1.32.63,2,.92l2.4-5.39C40.94,120.46,40.33,120.19,39.74,119.89Z"/><path d="M52.94,124.48l-1.27,5.77c.71.16,1.42.31,2.14.44l1.1-5.81C54.25,124.76,53.59,124.62,52.94,124.48Z"/></svg>