<?xml version="1.0" encoding="utf-8"?>
<!-- Generator: Adobe Illustrator 22.1.0, SVG Export Plug-In . SVG Version: 6.00 Build 0)  -->
<svg version="1.1" id="Calque_1" xmlns="http://www.w3.org/2000/svg" xmlns:xlink="http://www.w3.org/1999/xlink" x="0px" y="0px"
	 viewBox="0 0 80 80" style="enable-background:new 0 0 80 80;" xml:space="preserve">
<style type="text/css">
	.st0{fill:#FFFFFF;}
</style>
<title>element_true-story</title>
<desc>Created with Sketch.</desc>
<path id="element_price" d="M38.5,77.1l-2,2.3c-0.7,0.8-2,0.9-2.8,0.2c-0.2-0.2-0.3-0.4-0.5-0.6l-1.4-2.7c-0.5-1-1.7-1.4-2.7-0.9
	c-0.1,0-0.1,0.1-0.2,0.1l-2.5,1.7c-0.9,0.6-2.2,0.3-2.8-0.6c-0.1-0.2-0.2-0.4-0.3-0.7l-0.6-3c-0.2-1.1-1.3-1.8-2.4-1.6
	c-0.1,0-0.1,0-0.2,0.1l-2.9,1c-1,0.3-2.2-0.2-2.5-1.3c-0.1-0.2-0.1-0.5-0.1-0.7l0.2-3c0.1-1.1-0.8-2-1.9-2.1c-0.1,0-0.2,0-0.2,0
	l-3,0.2c-1.1,0.1-2-0.8-2.1-1.9c0-0.3,0-0.5,0.1-0.7l1-2.9c0.3-1-0.2-2.2-1.3-2.5c-0.1,0-0.1,0-0.2-0.1l-3-0.6
	c-1.1-0.2-1.8-1.3-1.6-2.4c0.1-0.2,0.1-0.5,0.3-0.7L4.6,51c0.6-0.9,0.3-2.2-0.6-2.8c-0.1,0-0.1-0.1-0.2-0.1l-2.7-1.4
	c-1-0.5-1.4-1.7-0.9-2.7c0.1-0.2,0.3-0.4,0.5-0.6l2.3-2c0.8-0.7,0.9-2,0.2-2.8C3,38.6,3,38.6,2.9,38.5l-2.3-2
	c-0.8-0.7-0.9-2-0.2-2.8c0.2-0.2,0.4-0.3,0.6-0.5l2.7-1.4c1-0.5,1.4-1.7,0.9-2.7c0-0.1-0.1-0.1-0.1-0.2l-1.7-2.5
	c-0.6-0.9-0.3-2.2,0.6-2.8c0.2-0.1,0.4-0.2,0.7-0.3l3-0.6c1.1-0.2,1.8-1.3,1.6-2.4c0-0.1,0-0.1-0.1-0.2l-1-2.9
	c-0.3-1,0.2-2.2,1.3-2.5c0.2-0.1,0.5-0.1,0.7-0.1l3,0.2c1.1,0.1,2-0.8,2.1-1.9c0-0.1,0-0.2,0-0.2l-0.2-3c-0.1-1.1,0.8-2,1.9-2.1
	c0.3,0,0.5,0,0.7,0.1l2.9,1c1,0.3,2.2-0.2,2.5-1.3c0-0.1,0-0.1,0.1-0.2l0.6-3c0.2-1.1,1.3-1.8,2.4-1.6c0.2,0.1,0.5,0.1,0.7,0.3
	L29,4.6c0.9,0.6,2.2,0.3,2.8-0.6c0-0.1,0.1-0.1,0.1-0.2l1.4-2.7c0.5-1,1.7-1.4,2.7-0.9c0.2,0.1,0.4,0.3,0.6,0.5l2,2.3
	c0.7,0.8,2,0.9,2.8,0.2C41.4,3,41.4,3,41.5,2.9l2-2.3c0.7-0.8,2-0.9,2.8-0.2c0.2,0.2,0.3,0.4,0.5,0.6l1.4,2.7c0.5,1,1.7,1.4,2.7,0.9
	c0.1,0,0.1-0.1,0.2-0.1l2.5-1.7c0.9-0.6,2.2-0.3,2.8,0.6c0.1,0.2,0.2,0.4,0.3,0.7l0.6,3c0.2,1.1,1.3,1.8,2.4,1.6
	c0.1,0,0.1,0,0.2-0.1l2.9-1c1-0.3,2.2,0.2,2.5,1.3c0.1,0.2,0.1,0.5,0.1,0.7l-0.2,3c-0.1,1.1,0.8,2,1.9,2.1c0.1,0,0.2,0,0.2,0l3-0.2
	c1.1-0.1,2,0.8,2.1,1.9c0,0.3,0,0.5-0.1,0.7l-1,2.9c-0.3,1,0.2,2.2,1.3,2.5c0.1,0,0.1,0,0.2,0.1l3,0.6c1.1,0.2,1.8,1.3,1.6,2.4
	c-0.1,0.2-0.1,0.5-0.3,0.7L75.4,29c-0.6,0.9-0.3,2.2,0.6,2.8c0.1,0,0.1,0.1,0.2,0.1l2.7,1.4c1,0.5,1.4,1.7,0.9,2.7
	c-0.1,0.2-0.3,0.4-0.5,0.6l-2.3,2c-0.8,0.7-0.9,2-0.2,2.8c0.1,0.1,0.1,0.1,0.2,0.2l2.3,2c0.8,0.7,0.9,2,0.2,2.8
	c-0.2,0.2-0.4,0.3-0.6,0.5l-2.7,1.4c-1,0.5-1.4,1.7-0.9,2.7c0,0.1,0.1,0.1,0.1,0.2l1.7,2.5c0.6,0.9,0.3,2.2-0.6,2.8
	c-0.2,0.1-0.4,0.2-0.7,0.3l-3,0.6c-1.1,0.2-1.8,1.3-1.6,2.4c0,0.1,0,0.1,0.1,0.2l1,2.9c0.3,1-0.2,2.2-1.3,2.5
	c-0.2,0.1-0.5,0.1-0.7,0.1l-3-0.2c-1.1-0.1-2,0.8-2.1,1.9c0,0.1,0,0.2,0,0.2l0.2,3c0.1,1.1-0.8,2-1.9,2.1c-0.3,0-0.5,0-0.7-0.1
	l-2.9-1c-1-0.3-2.2,0.2-2.5,1.3c0,0.1,0,0.1-0.1,0.2l-0.6,3c-0.2,1.1-1.3,1.8-2.4,1.6c-0.2-0.1-0.5-0.1-0.7-0.3L51,75.4
	c-0.9-0.6-2.2-0.3-2.8,0.6c0,0.1-0.1,0.1-0.1,0.2l-1.4,2.7c-0.5,1-1.7,1.4-2.7,0.9c-0.2-0.1-0.4-0.3-0.6-0.5l-2-2.3
	c-0.7-0.8-2-0.9-2.8-0.2C38.6,77,38.6,77,38.5,77.1z"/>
<path id="Histoire-vraie" class="st0" d="M19.4,30h2v7h-2v-3h-2.2v3h-2v-7h2v2.5h2.2V30z M23.2,30h2v7h-2V30z M28.8,31.8
	c0,1.1,4,0.4,4,3.1c0,1.6-0.9,2.3-3,2.3s-3-0.7-3-2.2h1.8c0,0.6,0.4,0.9,1.2,0.9c0.8,0,1.1-0.2,1.1-0.7c0-1.4-4-0.6-4-3.1
	c0-1.6,0.9-2.3,2.9-2.3s2.9,0.7,2.9,2.2h-1.8c0-0.6-0.3-0.9-1.1-0.9C29,31.1,28.8,31.3,28.8,31.8z M39.5,30v1.5h-2V37h-2v-5.5h-2V30
	H39.5z M43.8,29.8c2.6,0,3.7,1.1,3.7,3.7s-1.1,3.7-3.7,3.7s-3.7-1.1-3.7-3.7S41.3,29.8,43.8,29.8z M43.8,35.7c1.1,0,1.6-0.7,1.6-2.2
	s-0.5-2.2-1.6-2.2c-1.1,0-1.6,0.7-1.6,2.2S42.7,35.7,43.8,35.7z M49,30h2v7h-2V30z M57.2,37L56,34.5h-1V37h-2v-7h3.3
	c2,0,2.8,1.1,2.8,2.3c0,1-0.5,1.8-1.8,2.1H58l1.3,2.6H57.2z M55,33.2h1.2c0.6,0,0.9-0.4,0.9-0.9s-0.3-0.9-0.9-0.9H55V33.2z
	 M65.8,31.4h-3.2v1.3h2.8v1.4h-2.8v1.5h3.2V37h-5.2v-7h5.2V31.4z M17.5,52l-2.7-11.2H18l2.3,10l2.3-10h3.2L23.1,52H17.5z M34.2,52
	l-1.8-4h-1.7v4h-3.2V40.8h5.3c3.2,0,4.5,1.8,4.5,3.7c0,1.7-0.8,2.9-2.8,3.4h1.1l2.1,4.2H34.2z M30.6,45.9h1.9c1,0,1.4-0.6,1.4-1.4
	S33.5,43,32.5,43h-1.9V45.9z M46.2,52l-0.4-2.1H42L41.5,52h-3.2L41,40.8h6.1L49.5,52H46.2z M43.9,41.7l-1.4,6.2h2.8L43.9,41.7z
	 M51.2,40.8h3.2V52h-3.2V40.8z M65.4,43h-5.1v2.1h4.5v2.2h-4.5v2.4h5.1V52h-8.3V40.8h8.3V43z"/>
</svg>
