<?xml version="1.0" encoding="utf-8"?>
<!-- Generator: Adobe Illustrator 22.1.0, SVG Export Plug-In . SVG Version: 6.00 Build 0)  -->
<svg version="1.1" id="Calque_1" xmlns="http://www.w3.org/2000/svg" xmlns:xlink="http://www.w3.org/1999/xlink" x="0px" y="0px"
	 viewBox="0 0 45 45" style="enable-background:new 0 0 45 45;" xml:space="preserve">
<style type="text/css">
	.st0{fill:none;}
</style>
<title>icon_profile_budget-moyen</title>
<desc>Created with Sketch.</desc>
<g id="UI">
	<g id="HUTTE_UI-kit_atomes" transform="translate(-390.000000, -814.000000)">
		<g id="icon_profile_budget-moyen" transform="translate(390.000000, 810.000000)">
			<rect id="Rectangle" y="4" class="st0" width="45" height="45"/>
			<path d="M30.6,13.8H6.9l1.1-3.6C8.4,8.9,9.6,8,11,8c0.3,0,0.6,0,0.9,0.1L30.6,13.8z M41.8,16.3c1.8,0,3.2,1.4,3.2,3.2v18.5
				c0,1.8-1.4,3.2-3.2,3.2H3.2c-1.8,0-3.2-1.4-3.2-3.2V19.5c0-1.8,1.4-3.2,3.2-3.2H41.8z M23.4,35.9c3.9,0,5.8-1.5,6.6-5h-3.2
				c-0.4,1.8-1.4,2.6-3.4,2.6s-3.1-0.9-3.6-2.8h4v-1.5h-4.2v-1h4.9v-1.5h-4.7c0.4-1.9,1.5-2.7,3.5-2.7s3.1,0.8,3.4,2.6h3.2
				c-0.5-3.5-2.5-5-6.6-5c-4.2,0-6.4,1.6-6.9,5.2h-1.8v1.5h1.6v1.1h-1.6v1.5h1.8C17,34.3,19.1,35.9,23.4,35.9z"/>
		</g>
	</g>
</g>
</svg>
