<svg id="c94e24a9-16a2-475f-9336-2e55deb382bc" data-name="Calque 1" xmlns="http://www.w3.org/2000/svg" width="40" height="35" viewBox="0 0 40 35">
  <defs>
    <style>
      .e877697f-776f-4f63-bb80-ce972fe07360 {
        fill: #fff;
      }
    </style>
  </defs>
  <title>icon_profile_budget-eleve</title>
  <path id="2e425b09-0299-418d-b150-43bf34839aec" data-name="Path" class="e877697f-776f-4f63-bb80-ce972fe07360" d="M39.13,22.32c1.33,0.72.89,2.15-.32,2.8L24.18,33a3.27,3.27,0,0,1-2.88.17L0.81,22.09c-1.33-.72-0.89-2.15.32-2.8l14.62-7.86a3.27,3.27,0,0,1,2.88-.17Z"/>
  <path id="3a34e382-0410-437d-8208-0cbc3a83e5ef" data-name="Path" d="M39.13,22.32c1.33,0.72.89,2.15-.32,2.8L24.18,33a3.27,3.27,0,0,1-2.88.17L0.81,22.09c-1.33-.72-0.89-2.15.32-2.8l14.62-7.86a3.27,3.27,0,0,1,2.88-.17Zm-21-10.18a2.34,2.34,0,0,0-1.93.17L1.61,20.17c-0.62.33-.76,0.8-0.32,1L21.78,32.27a2.34,2.34,0,0,0,1.93-.17l14.62-7.86c0.62-.33.76-0.8,0.32-1Z"/>
  <path id="e8be3d11-d942-4dd1-971c-bc07b9a16040" data-name="Path" class="e877697f-776f-4f63-bb80-ce972fe07360" d="M39.13,17.32c1.33,0.72.89,2.15-.32,2.8L24.18,28a3.27,3.27,0,0,1-2.88.17L0.81,17.09c-1.33-.72-0.89-2.15.32-2.8L15.76,6.43a3.27,3.27,0,0,1,2.88-.17Z"/>
  <path id="478361c5-9905-4d9b-b292-19950855ea37" data-name="Path" d="M39.13,17.32c1.33,0.72.89,2.15-.32,2.8L24.18,28a3.27,3.27,0,0,1-2.88.17L0.81,17.09c-1.33-.72-0.89-2.15.32-2.8L15.76,6.43a3.27,3.27,0,0,1,2.88-.17Zm-21-10.18a2.34,2.34,0,0,0-1.93.17L1.61,15.17c-0.62.33-.76,0.8-0.32,1L21.78,27.27a2.34,2.34,0,0,0,1.93-.17l14.62-7.86c0.62-.33.76-0.8,0.32-1Z"/>
  <path d="M39.16,12.32c1.33,0.72.89,2.15-.32,2.8L24.21,23a3.27,3.27,0,0,1-2.88.17L0.84,12.09c-1.33-.72-0.89-2.15.32-2.8L15.79,1.43a3.27,3.27,0,0,1,2.88-.17Z"/>
  <g>
    <path class="e877697f-776f-4f63-bb80-ce972fe07360" d="M38.86,12.76L35.58,11c-1.84,1.5-2.13,3.35-.56,4.35a4.1,4.1,0,0,0,1.34.51l2.18-1.17C39.45,14.19,39.75,13.24,38.86,12.76Z"/>
    <path class="e877697f-776f-4f63-bb80-ce972fe07360" d="M24.79,8.66c-2.09-1.13-6.15-.77-9.07.8s-3.6,3.76-1.51,4.88,6.15,0.77,9.07-.8S26.88,9.78,24.79,8.66Z"/>
    <path class="e877697f-776f-4f63-bb80-ce972fe07360" d="M26,19.66c-1.77-1.13-5.2-.77-7.67.8-0.15.1-.27,0.2-0.41,0.3l3.62,2a2.8,2.8,0,0,0,2.4-.17l3-1.62A2.06,2.06,0,0,0,26,19.66Z"/>
    <path class="e877697f-776f-4f63-bb80-ce972fe07360" d="M14,4.34c1.77,1.13,5.2.77,7.67-.8l0,0L18.37,1.7a2.8,2.8,0,0,0-2.4.17l-2.8,1.51A2.2,2.2,0,0,0,14,4.34Z"/>
    <path class="e877697f-776f-4f63-bb80-ce972fe07360" d="M5,8.66a3.76,3.76,0,0,0-.9-0.39L1.34,9.73C0.43,10.22.13,11.17,1,11.65l3,1.63C6.2,11.74,6.65,9.72,5,8.66Z"/>
  </g>
  <path id="a7ce4b63-db7e-445d-88d1-ee17a18bea50" data-name="Path" d="M39.13,12.32c1.33,0.72.89,2.15-.32,2.8L24.18,23a3.27,3.27,0,0,1-2.88.17L0.81,12.09c-1.33-.72-0.89-2.15.32-2.8L15.76,1.43a3.27,3.27,0,0,1,2.88-.17Zm-21-10.18a2.34,2.34,0,0,0-1.93.17L1.61,10.17c-0.62.33-.76,0.8-0.32,1L21.78,22.27a2.34,2.34,0,0,0,1.93-.17l14.62-7.86c0.62-.33.76-0.8,0.32-1Z"/>
</svg>
