<svg id="d13c223f-389f-4b92-a974-3f71eb2ac725" data-name="Calque 1" xmlns="http://www.w3.org/2000/svg" width="39.97" height="22.41" viewBox="0 0 39.97 22.41">
  <defs>
    <style>
      .\31 4d159df-f2da-4e09-9c9f-6cca1bcf4632 {
        fill: #fff;
      }
    </style>
  </defs>
  <title>icon_profile_budget-miteux-01</title>
  <path d="M39.16,17.61c1.33,0.72.89,2.15-.32,2.8L24.21,28.28a3.27,3.27,0,0,1-2.88.17L0.84,17.39c-1.33-.72-0.89-2.15.32-2.8L15.79,6.72a3.27,3.27,0,0,1,2.88-.17Z" transform="translate(0 -6.29)"/>
  <g>
    <path class="14d159df-f2da-4e09-9c9f-6cca1bcf4632" d="M38.86,18.05l-3.28-1.77c-1.84,1.5-2.13,3.35-.56,4.35a4.1,4.1,0,0,0,1.34.51L38.54,20C39.45,19.48,39.75,18.53,38.86,18.05Z" transform="translate(0 -6.29)"/>
    <path class="14d159df-f2da-4e09-9c9f-6cca1bcf4632" d="M24.79,14c-2.09-1.13-6.15-.77-9.07.8s-3.6,3.76-1.51,4.88,6.15,0.77,9.07-.8S26.88,15.08,24.79,14Z" transform="translate(0 -6.29)"/>
    <path class="14d159df-f2da-4e09-9c9f-6cca1bcf4632" d="M26,25c-1.77-1.13-5.2-.77-7.67.8-0.15.1-.27,0.2-0.41,0.3l3.62,2a2.8,2.8,0,0,0,2.4-.17l3-1.62A2.06,2.06,0,0,0,26,25Z" transform="translate(0 -6.29)"/>
    <path class="14d159df-f2da-4e09-9c9f-6cca1bcf4632" d="M14,9.64c1.77,1.13,5.2.77,7.67-.8l0,0L18.37,7a2.8,2.8,0,0,0-2.4.17l-2.8,1.51A2.2,2.2,0,0,0,14,9.64Z" transform="translate(0 -6.29)"/>
    <path class="14d159df-f2da-4e09-9c9f-6cca1bcf4632" d="M5,14a3.76,3.76,0,0,0-.9-0.39L1.34,15C0.43,15.52.13,16.47,1,16.95l3,1.63C6.2,17,6.65,15,5,14Z" transform="translate(0 -6.29)"/>
  </g>
  <path id="2c9df908-809e-4a81-8a7e-1ac0a6fe07d3" data-name="Path" d="M39.13,17.61c1.33,0.72.89,2.15-.32,2.8L24.18,28.28a3.27,3.27,0,0,1-2.88.17L0.81,17.39c-1.33-.72-0.89-2.15.32-2.8L15.76,6.72a3.27,3.27,0,0,1,2.88-.17Zm-21-10.18a2.34,2.34,0,0,0-1.93.17L1.61,15.47c-0.62.33-.76,0.8-0.32,1L21.78,27.57a2.34,2.34,0,0,0,1.93-.17l14.62-7.86c0.62-.33.76-0.8,0.32-1Z" transform="translate(0 -6.29)"/>
</svg>
