<?xml version="1.0" encoding="utf-8"?>
<!-- Generator: Adobe Illustrator 22.1.0, SVG Export Plug-In . SVG Version: 6.00 Build 0)  -->
<svg version="1.1" id="_x30_e4d0035-d823-4832-8ef7-ea481b1969c5"
	 xmlns="http://www.w3.org/2000/svg" xmlns:xlink="http://www.w3.org/1999/xlink" x="0px" y="0px" viewBox="0 0 80 80"
	 style="enable-background:new 0 0 80 80;" xml:space="preserve">
<style type="text/css">
	.st0{fill:#FFFFFF;}
	.st1{fill:#FCFCFC;}
</style>
<g>
	<circle class="st0" cx="40" cy="40" r="39.5"/>
	<path d="M40,1c21.5,0,39,17.5,39,39S61.5,79,40,79S1,61.5,1,40S18.5,1,40,1 M40,0C17.9,0,0,17.9,0,40s17.9,40,40,40s40-17.9,40-40
		S62.1,0,40,0L40,0z"/>
</g>
<title>budget-moyen</title>
<g>
	<path id="_x35_f41b0ce-b33f-436b-9792-f6c6c7852787" d="M62.7,42.9c0.4-0.2,0.8-0.4,1.2-0.6L43,31.3l-0.7,0.4
		c-4.9,2.6-11.7,3.2-15.2,1.3c-0.3-0.1-0.5-0.3-0.8-0.5l-8.7,4.6c0.4,0.1,0.8,0.3,1.2,0.5c3.5,1.9,2.4,5.5-2.5,8.1l-0.8,0.4
		l21.3,11.3c0.3-0.2,0.5-0.3,0.8-0.5c4.9-2.6,11.7-3.2,15.2-1.3c0.3,0.2,0.6,0.3,0.8,0.6l8.4-4.5c-0.7-0.2-1.4-0.4-2-0.7
		C56.7,49.1,57.8,45.5,62.7,42.9z M46,47.6c-4.9,2.6-11.7,3.2-15.2,1.3s-2.4-5.5,2.5-8.1s11.7-3.2,15.2-1.3S50.9,45,46,47.6z"/>
	<g id="ffccb5d9-e6bf-4e78-9ab7-bbbce8984dc7">
		<path class="st0" d="M48.5,39.5c-3.5-1.9-10.3-1.3-15.2,1.3s-6,6.2-2.5,8.1s10.3,1.3,15.2-1.3S52,41.4,48.5,39.5z"/>
		<path class="st0" d="M18.9,37.6c-0.4-0.2-0.8-0.4-1.2-0.5l-6.9,3.7c-1.3,0.7-1.7,1.9-0.5,2.5l5.3,2.8l0.8-0.4
			C21.3,43.1,22.4,39.5,18.9,37.6z"/>
		<path class="st0" d="M69.7,45.5l-5.8-3.1c-0.4,0.2-0.8,0.4-1.2,0.6c-4.9,2.6-6,6.2-2.5,8.1c0.6,0.3,1.3,0.6,2,0.7l7-3.7
			C70.5,47.3,70.8,46.1,69.7,45.5z"/>
		<path class="st0" d="M37.7,56.9c-0.3,0.2-0.6,0.3-0.8,0.5l5.8,3c1.2,0.4,2.4,0.3,3.5-0.3l7.6-4c-0.3-0.2-0.5-0.4-0.8-0.6
			C49.4,53.8,42.6,54.3,37.7,56.9z"/>
	</g>
	<path id="_x37_34b3a5b-182f-413a-85b8-402682605312" d="M37.4,28.3l32.3,17.2c1.2,0.6,0.8,1.8-0.5,2.5L46.1,60.2
		c-1.1,0.6-2.4,0.7-3.5,0.3L10.3,43.3c-1.1-0.6-0.8-1.8,0.5-2.5l23.1-12.2C34.9,28,36.2,27.9,37.4,28.3z M36.9,29.2
		c-0.9-0.3-1.8-0.2-2.6,0.3L11.3,41.7c-0.7,0.4-0.8,0.6-0.5,0.7l32.3,17.2c0.9,0.3,1.8,0.2,2.6-0.3l23.1-12.2
		c0.7-0.4,0.8-0.6,0.5-0.7L36.9,29.2z"/>
</g>
<g>
	<path d="M46,55.7l21.2-11.2l-30-15.9c-1-0.3-2.1-0.2-3,0.3L13,40l30,16C44,56.3,45.1,56.2,46,55.7z"/>
	<path id="e67d64b7-b537-4310-bf49-a9b5920f284d" class="st1" d="M70,36.1L37.7,18.9c-1.4-0.6-2.9-0.5-4.2,0.3L10.5,31.4
		c-0.9,0.4-1.5,1.2-1.6,2.2c0,0.7,0.5,1.4,1.1,1.7l32.3,17.2c0.5,0.3,1.1,0.4,1.7,0.4c0.9,0,1.8-0.2,2.6-0.6l23.1-12.2
		c0.9-0.4,1.5-1.2,1.6-2.2C71.1,37,70.7,36.4,70,36.1z"/>
	<path id="ed0cb72b-9829-4b39-abe3-a2bcf868f3ef" d="M62.7,34.2c0.4-0.2,0.8-0.4,1.2-0.6L43,22.5l-0.7,0.4
		c-4.9,2.6-11.7,3.2-15.2,1.3c-0.3-0.1-0.5-0.3-0.8-0.5l-8.7,4.6c0.4,0.1,0.8,0.3,1.2,0.5c3.5,1.9,2.4,5.5-2.5,8.1l-0.8,0.4
		l21.3,11.3c0.3-0.2,0.5-0.3,0.8-0.5c4.9-2.6,11.7-3.2,15.2-1.3c0.3,0.2,0.6,0.3,0.8,0.6l8.4-4.4c-0.7-0.2-1.4-0.4-2-0.7
		C56.7,40.4,57.8,36.8,62.7,34.2z M46,38.8c-4.9,2.6-11.7,3.2-15.2,1.3s-2.4-5.5,2.5-8.1s11.7-3.2,15.2-1.3
		C52,32.6,50.9,36.2,46,38.8z"/>
	<g id="cf02ec0d-da5d-49a3-b7a2-bbb28d3ad858">
		<path class="st0" d="M48.5,30.8c-3.5-1.9-10.3-1.3-15.2,1.3s-6,6.2-2.5,8.1s10.3,1.3,15.2-1.3S52,32.6,48.5,30.8z"/>
		<path class="st0" d="M42.4,22.9l0.6-0.4l-5.7-3c-1.2-0.4-2.4-0.3-3.5,0.3l-7.5,4c0.2,0.2,0.5,0.3,0.8,0.5
			C30.7,26.1,37.5,25.5,42.4,22.9z"/>
		<path class="st0" d="M18.9,28.9c-0.4-0.2-0.8-0.4-1.2-0.5L10.8,32c-1.3,0.7-1.7,1.9-0.5,2.5l5.3,2.8l0.8-0.4
			C21.3,34.3,22.4,30.7,18.9,28.9z"/>
		<path class="st0" d="M69.7,36.7l-5.8-3.1c-0.4,0.2-0.8,0.4-1.2,0.6c-4.9,2.6-6,6.2-2.5,8.1c0.6,0.3,1.3,0.6,2,0.7l7.1-3.7
			C70.5,38.5,70.8,37.3,69.7,36.7z"/>
		<path class="st0" d="M37.7,48.2c-0.3,0.2-0.6,0.3-0.8,0.5l5.8,3c1.2,0.4,2.4,0.3,3.5-0.3l7.6-4c-0.3-0.2-0.5-0.4-0.8-0.6
			C49.4,45,42.6,45.6,37.7,48.2z"/>
	</g>
	<path id="_x33_d8617d0-ee4e-4e1e-94e6-c0c463323711" d="M41.2,37.7c-2.5,1-4.2,1-5.8,0.2c-1.8-0.9-1.7-1.9,0.2-3.2l-0.7-0.4
		l1.1-0.6l0.6,0.3l0.2-0.1l0.2-0.1l-0.6-0.3l1.1-0.6l0.7,0.4c2.4-1,4.2-1,6-0.1s1.6,1.8-0.4,3.1l-1.6-0.8c0.8-0.5,0.9-0.9,0.2-1.3
		c-0.8-0.3-1.7-0.3-2.5,0.1l1.7,0.9l-1.1,0.6l-1.8-0.9l-0.2,0.1L38.3,35l1.4,0.8l-1.1,0.6l-1.3-0.7c-0.8,0.6-0.8,1-0.1,1.3
		c0.8,0.4,1.7,0.3,2.4-0.1L41.2,37.7z"/>
	<path id="_x31_60fc0db-7fbd-4a22-ae74-93417e64f4de" d="M37.4,19.5l32.3,17.2c1.2,0.6,0.8,1.8-0.5,2.5L46.1,51.4
		c-1.1,0.6-2.4,0.7-3.5,0.3L10.3,34.5c-1.1-0.6-0.8-1.8,0.5-2.5l23.1-12.2C34.9,19.2,36.2,19.1,37.4,19.5z M36.9,20.4
		c-0.9-0.3-1.8-0.2-2.6,0.3L11.3,32.9c-0.7,0.4-0.8,0.6-0.5,0.7l32.3,17.2c0.9,0.3,1.8,0.2,2.6-0.3l23.1-12.2
		c0.7-0.4,0.8-0.6,0.5-0.7L36.9,20.4z"/>
</g>
</svg>
