<?xml version="1.0" encoding="UTF-8"?>
<svg width="60px" height="60px" viewBox="0 0 60 60" version="1.1" xmlns="http://www.w3.org/2000/svg" xmlns:xlink="http://www.w3.org/1999/xlink">
    <!-- Generator: Sketch 51.3 (57544) - http://www.bohemiancoding.com/sketch -->
    <title>icon/wheel/budget-modeste</title>
    <desc>Created with Sketch.</desc>
    <defs></defs>
    <g id="icon/wheel/budget-modeste" stroke="none" stroke-width="1" fill="none" fill-rule="evenodd">
        <path d="M30,0 C13.4314575,-1.01453063e-15 2.02906125e-15,13.4314575 0,30 C-2.02906125e-15,46.5685425 13.4314575,60 30,60 C46.5685425,60 60,46.5685425 60,30 C60,22.0435053 56.8392948,14.4128879 51.2132034,8.78679656 C45.5871121,3.16070521 37.9564947,4.87194788e-16 30,0 Z M51,39 C51,40.6568542 49.6568542,42 48,42 L12,42 C10.3431458,42 9,40.6568542 9,39 L9,21.77 C9,20.1131458 10.3431458,18.77 12,18.77 L48,18.77 C49.6568542,18.77 51,20.1131458 51,21.77 L51,39 Z M30.85,34.85 C29.2215659,35.0387774 27.7431375,33.8854251 27.53,32.26 L31.25,32.26 L31.25,30.88 L27.36,30.88 L27.36,29.88 L32,29.88 L32,28.53 L27.53,28.53 C27.91,26.75 28.9,25.97 30.83,25.97 C32.76,25.97 33.68,26.72 33.97,28.42 L36.97,28.42 C36.5,25.12 34.67,23.71 30.83,23.71 C26.99,23.71 24.83,25.17 24.34,28.53 L22.68,28.53 L22.68,29.88 L24.2,29.88 L24.2,30.88 L22.68,30.88 L22.68,32.26 L24.33,32.26 C24.84,35.63 26.86,37.1 30.83,37.1 C34.44,37.1 36.24,35.7 36.99,32.41 L34,32.41 C33.64,34.13 32.73,34.85 30.85,34.85 Z" id="Combined-Shape" fill="#FFFFFF" fill-rule="nonzero"></path>
    </g>
</svg>