<?xml version="1.0" encoding="UTF-8"?>
<svg width="60px" height="60px" viewBox="0 0 60 60" version="1.1" xmlns="http://www.w3.org/2000/svg" xmlns:xlink="http://www.w3.org/1999/xlink">
    <!-- Generator: Sketch 51.3 (57544) - http://www.bohemiancoding.com/sketch -->
    <title>icon/wheel/budget-eleve</title>
    <desc>Created with Sketch.</desc>
    <defs></defs>
    <g id="icon/wheel/budget-eleve" stroke="none" stroke-width="1" fill="none" fill-rule="evenodd">
        <path d="M30,0 C13.4314575,-1.01453063e-15 2.02906125e-15,13.4314575 0,30 C-2.02906125e-15,46.5685425 13.4314575,60 30,60 C46.5685425,60 60,46.5685425 60,30 C60,22.0435053 56.8392948,14.4128879 51.2132034,8.78679656 C45.5871121,3.16070521 37.9564947,4.87194788e-16 30,0 Z M24.17,11.42 C24.5841889,10.7387341 25.2525291,10.2503638 26.0274301,10.0627364 C26.8023312,9.87510908 27.6200468,10.0036596 28.3,10.42 L40.82,18.11 L23.33,12.79 L24.17,11.42 Z M16.42,16.18 C16.8092833,14.9268763 17.967805,14.0721627 19.28,14.07 C19.5782845,14.0676587 19.8751335,14.1115114 20.16,14.2 L37.57,19.51 L15.4,19.51 L16.42,16.18 Z M51,42 C51,43.6568542 49.6568542,45 48,45 L12,45 C10.3431458,45 9,43.6568542 9,42 L9,24.77 C9,23.1131458 10.3431458,21.77 12,21.77 L48,21.77 C49.6568542,21.77 51,23.1131458 51,24.77 L51,42 Z" id="Shape" fill="#FFFFFF" fill-rule="nonzero"></path>
        <path d="M30.85,37.85 C29.2215659,38.0387774 27.7431375,36.8854251 27.53,35.26 L31.25,35.26 L31.25,33.88 L27.36,33.88 L27.36,32.88 L32,32.88 L32,31.53 L27.53,31.53 C27.91,29.75 28.9,28.97 30.83,28.97 C32.76,28.97 33.68,29.72 33.97,31.42 L36.97,31.42 C36.5,28.12 34.67,26.71 30.83,26.71 C26.99,26.71 24.83,28.17 24.34,31.53 L22.68,31.53 L22.68,32.88 L24.2,32.88 L24.2,33.88 L22.68,33.88 L22.68,35.26 L24.33,35.26 C24.84,38.63 26.86,40.1 30.83,40.1 C34.44,40.1 36.24,38.7 36.99,35.41 L34,35.41 C33.64,37.13 32.73,37.85 30.85,37.85 Z" id="Shape" fill="#FFFFFF" fill-rule="nonzero"></path>
    </g>
</svg>