<?xml version="1.0" encoding="utf-8"?>
<!-- Generator: Adobe Illustrator 22.1.0, SVG Export Plug-In . SVG Version: 6.00 Build 0)  -->
<svg version="1.1" id="Calque_1" xmlns="http://www.w3.org/2000/svg" xmlns:xlink="http://www.w3.org/1999/xlink" x="0px" y="0px"
	 viewBox="0 0 45 45" style="enable-background:new 0 0 45 45;" xml:space="preserve">
<style type="text/css">
	.st0{fill:none;}
</style>
<title>Group 5</title>
<desc>Created with Sketch.</desc>
<g id="UI">
	<g id="HUTTE_UI-kit_atomes" transform="translate(-535.000000, -812.000000)">
		<g id="Group-5" transform="translate(535.000000, 810.000000)">
			<rect id="Rectangle" y="2" class="st0" width="45" height="45"/>
			<path  fill="#fff" id="icon_profile_budget-eleve" d="M34.1,12.7L15.3,7l0.9-1.5c0.9-1.5,2.9-2,4.4-1L34.1,12.7z M30.6,14.2H6.9l1.1-3.6
				C8.4,9.3,9.6,8.4,11,8.4c0.3,0,0.6,0,0.9,0.1L30.6,14.2z M41.8,16.6c1.8,0,3.2,1.4,3.2,3.2v18.5c0,1.8-1.4,3.2-3.2,3.2H3.2
				c-1.8,0-3.2-1.4-3.2-3.2V19.8c0-1.8,1.4-3.2,3.2-3.2H41.8z M23.4,36.2c3.9,0,5.8-1.5,6.6-5h-3.2c-0.4,1.8-1.4,2.6-3.4,2.6
				s-3.1-0.9-3.6-2.8h4v-1.5h-4.2v-1h4.9v-1.5h-4.7c0.4-1.9,1.5-2.7,3.5-2.7s3.1,0.8,3.4,2.6h3.2c-0.5-3.5-2.5-5-6.6-5
				c-4.2,0-6.4,1.6-6.9,5.2h-1.8v1.5h1.6v1.1h-1.6v1.5h1.8C17,34.7,19.1,36.2,23.4,36.2z"/>
		</g>
	</g>
</g>
</svg>
