<?xml version="1.0" encoding="utf-8"?>
<!-- Generator: Adobe Illustrator 22.1.0, SVG Export Plug-In . SVG Version: 6.00 Build 0)  -->
<svg version="1.1" id="Calque_1" xmlns="http://www.w3.org/2000/svg" xmlns:xlink="http://www.w3.org/1999/xlink" x="0px" y="0px"
	 viewBox="0 0 45 45" style="enable-background:new 0 0 45 45;" xml:space="preserve">
<style type="text/css">
	.st0{fill:none;}
</style>
<title>icon_profile_budget-modeste</title>
<desc>Created with Sketch.</desc>
<g id="UI">
	<g id="HUTTE_UI-kit_atomes" transform="translate(-245.000000, -821.000000)">
		<g id="icon_profile_budget-modeste" transform="translate(245.000000, 810.000000)">
			<rect id="Rectangle" y="11" class="st0" width="45" height="45"/>
			<path  fill="#fff" d="M41.8,22c1.8,0,3.2,1.4,3.2,3.2v18.5c0,1.8-1.4,3.2-3.2,3.2H3.2c-1.8,0-3.2-1.4-3.2-3.2V25.2C0,23.4,1.4,22,3.2,22H41.8z
				 M23.4,41.6c3.9,0,5.8-1.5,6.6-5h-3.2c-0.4,1.8-1.4,2.6-3.4,2.6s-3.1-0.9-3.6-2.8h4V35h-4.2v-1h4.9v-1.5h-4.7
				c0.4-1.9,1.5-2.7,3.5-2.7s3.1,0.8,3.4,2.6h3.2c-0.5-3.5-2.5-5-6.6-5c-4.2,0-6.4,1.6-6.9,5.2h-1.8v1.5h1.6V35h-1.6v1.5h1.8
				C17,40.1,19.1,41.6,23.4,41.6z"/>
		</g>
	</g>
</g>
</svg>
