<?xml version="1.0" encoding="utf-8"?>
<!-- Generator: Adobe Illustrator 22.1.0, SVG Export Plug-In . SVG Version: 6.00 Build 0)  -->
<svg version="1.1" id="eb8d5387-6213-40de-ae6b-b67e8bd64451"
	 xmlns="http://www.w3.org/2000/svg" xmlns:xlink="http://www.w3.org/1999/xlink" x="0px" y="0px" viewBox="0 0 80 80"
	 style="enable-background:new 0 0 80 80;" xml:space="preserve">
<style type="text/css">
	.st0{fill:#FFFFFF;}
	.st1{fill:#FCFCFC;}
</style>
<g>
	<circle class="st0" cx="40" cy="40" r="39.5"/>
	<path d="M40,1c21.5,0,39,17.5,39,39S61.5,79,40,79S1,61.5,1,40S18.5,1,40,1 M40,0C17.9,0,0,17.9,0,40s17.9,40,40,40s40-17.9,40-40
		S62.1,0,40,0L40,0z"/>
</g>
<title>budget-modeste</title>
<g>
	<path id="c6fbf15a-2f32-4e4f-9476-5229b71e3cd0" d="M62.7,38.6c0.4-0.2,0.8-0.4,1.2-0.6L43,26.9l-0.7,0.4
		c-4.9,2.6-11.7,3.2-15.2,1.3c-0.3-0.1-0.5-0.3-0.8-0.5l-8.7,4.6c0.4,0.1,0.8,0.3,1.2,0.5c3.5,1.9,2.4,5.5-2.5,8.1l-0.8,0.4L36.9,53
		c0.3-0.2,0.5-0.3,0.8-0.5c4.9-2.6,11.7-3.2,15.2-1.3c0.3,0.2,0.6,0.3,0.8,0.6l8.4-4.5c-0.7-0.2-1.4-0.4-2-0.7
		C56.7,44.8,57.8,41.2,62.7,38.6z M46,43.2c-4.9,2.6-11.7,3.2-15.2,1.3s-2.4-5.5,2.5-8.1s11.7-3.2,15.2-1.3S50.9,40.6,46,43.2z"/>
	<g id="b131ed2d-cbff-4517-9a21-62638ced1a13">
		<path class="st1" d="M48.6,35.1c-3.5-1.9-10.3-1.3-15.2,1.3s-6,6.2-2.5,8.1c3.5,1.9,10.3,1.3,15.2-1.3S52.1,37,48.6,35.1z"/>
		<path class="st1" d="M42.4,27.3l0.6-0.4l-5.7-3c-1.2-0.4-2.4-0.3-3.5,0.3l-7.5,4c0.2,0.2,0.5,0.3,0.8,0.5
			C30.7,30.5,37.5,29.9,42.4,27.3z"/>
		<path class="st1" d="M18.9,33.2c-0.4-0.2-0.8-0.4-1.2-0.5l-6.9,3.7c-1.3,0.7-1.7,1.9-0.5,2.5l5.3,2.8l0.8-0.4
			C21.3,38.7,22.4,35.1,18.9,33.2z"/>
		<path class="st1" d="M69.7,41.1L63.9,38c-0.4,0.2-0.8,0.4-1.2,0.6c-4.9,2.6-6,6.2-2.5,8.1c0.6,0.3,1.3,0.6,2,0.7l7-3.7
			C70.5,42.9,70.8,41.7,69.7,41.1z"/>
		<path class="st1" d="M37.7,52.6c-0.3,0.2-0.6,0.3-0.8,0.5l5.8,3c1.2,0.4,2.4,0.3,3.5-0.3l7.6-4c-0.3-0.2-0.5-0.4-0.8-0.6
			C49.4,49.4,42.6,50,37.7,52.6z"/>
	</g>
	<path id="_x39_6d21d7b-5a6f-4137-a687-edd9f4f392f1" d="M41.2,42.1c-2.5,1-4.2,1-5.8,0.2c-1.8-0.9-1.7-1.9,0.2-3.2l-0.7-0.4
		l1.1-0.6l0.6,0.3l0.2-0.1l0.2-0.1l-0.6-0.3l1.1-0.6l0.7,0.4c2.4-1,4.2-1,6-0.1s1.6,1.8-0.4,3.1l-1.6-0.8c0.8-0.5,0.9-0.9,0.2-1.3
		c-0.8-0.3-1.7-0.3-2.5,0.1l1.7,0.9L40.6,40l-1.8-0.9l-0.2,0.1l-0.2,0.1l1.4,0.8l-1.1,0.6L37.3,40c-0.8,0.6-0.8,1-0.1,1.3
		c0.8,0.4,1.7,0.3,2.4-0.1L41.2,42.1z"/>
	<path id="f8290d0b-9076-4eb4-a265-97cd90a32470" d="M37.4,23.9l32.3,17.2c1.2,0.6,0.8,1.8-0.5,2.5L46.1,55.8
		c-1.1,0.6-2.4,0.7-3.5,0.3L10.3,38.9c-1.1-0.6-0.8-1.8,0.5-2.5l23.1-12.2C34.9,23.6,36.2,23.5,37.4,23.9z M36.9,24.8
		c-0.9-0.3-1.8-0.2-2.6,0.3L11.3,37.3c-0.7,0.4-0.8,0.6-0.5,0.7l32.3,17.2c0.9,0.3,1.8,0.2,2.6-0.3l23.1-12.2
		c0.7-0.4,0.8-0.6,0.5-0.7L36.9,24.8z"/>
</g>
</svg>
