<?xml version="1.0" encoding="utf-8"?>
<!-- Generator: Adobe Illustrator 22.1.0, SVG Export Plug-In . SVG Version: 6.00 Build 0)  -->
<svg version="1.1" id="_x38_d5c0e24-c2fa-4928-b198-f7d0f299750a"
	 xmlns="http://www.w3.org/2000/svg" xmlns:xlink="http://www.w3.org/1999/xlink" x="0px" y="0px" viewBox="0 0 80 80"
	 style="enable-background:new 0 0 80 80;" xml:space="preserve">
<style type="text/css">
	.st0{fill:#FFFFFF;}
</style>
<g>
	<circle class="st0" cx="40" cy="40" r="39.5"/>
	<path d="M40,1c21.5,0,39,17.5,39,39S61.5,79,40,79S1,61.5,1,40S18.5,1,40,1 M40,0C17.9,0,0,17.9,0,40s17.9,40,40,40s40-17.9,40-40
		S62.1,0,40,0L40,0z"/>
</g>
<title>budget-eleve</title>
<g>
	<g>
		<path id="_x34_0219bd4-efe4-49e1-8925-be33913efa6e" d="M62.7,46.9c0.4-0.2,0.8-0.4,1.2-0.6L43,35.3l-0.7,0.4
			c-4.9,2.6-11.7,3.2-15.2,1.3c-0.3-0.1-0.5-0.3-0.8-0.5l-8.7,4.6c0.4,0.1,0.8,0.3,1.2,0.5c3.5,1.9,2.4,5.5-2.5,8.1l-0.8,0.4
			l21.3,11.3c0.3-0.2,0.5-0.3,0.8-0.5c4.9-2.6,11.7-3.2,15.2-1.3c0.3,0.2,0.6,0.3,0.8,0.6l8.4-4.5c-0.7-0.2-1.4-0.4-2-0.7
			C56.7,53.1,57.8,49.5,62.7,46.9z M46,51.6c-4.9,2.6-11.7,3.2-15.2,1.3s-2.4-5.5,2.5-8.1s11.7-3.2,15.2-1.3S50.9,49,46,51.6z"/>
		<g id="f184180e-21bb-4c70-a4b6-ce7129c62f9f">
			<path d="M48.5,43.5c-3.5-1.9-10.3-1.3-15.2,1.3s-6,6.2-2.5,8.1s10.3,1.3,15.2-1.3S52,45.4,48.5,43.5z"/>
			<path class="st0" d="M18.9,41.6c-0.4-0.2-0.8-0.4-1.2-0.5l-6.9,3.7c-1.3,0.7-1.7,1.9-0.5,2.5l5.3,2.8l0.8-0.4
				C21.3,47.1,22.4,43.5,18.9,41.6z"/>
			<path class="st0" d="M69.7,49.5l-5.8-3.1c-0.4,0.2-0.8,0.4-1.2,0.6c-4.9,2.6-6,6.2-2.5,8.1c0.6,0.3,1.3,0.6,2,0.7l7-3.7
				C70.5,51.3,70.8,50.1,69.7,49.5z"/>
			<path class="st0" d="M37.7,60.9c-0.3,0.2-0.6,0.3-0.8,0.5l5.8,3c1.2,0.4,2.4,0.3,3.5-0.3l7.6-4c-0.3-0.2-0.5-0.4-0.8-0.6
				C49.4,57.8,42.6,58.3,37.7,60.9z"/>
		</g>
		<path id="_x34_8308c8d-2132-41d7-a187-b96e8ebaf733" d="M37.4,32.3l32.3,17.2c1.2,0.6,0.8,1.8-0.5,2.5L46.1,64.2
			c-1.1,0.6-2.4,0.7-3.5,0.3L10.3,47.3c-1.1-0.6-0.8-1.8,0.5-2.5l23.1-12.2C34.9,32,36.2,31.9,37.4,32.3z M36.9,33.2
			c-0.9-0.3-1.8-0.2-2.6,0.3L11.3,45.7c-0.7,0.4-0.8,0.6-0.5,0.7l32.3,17.2c0.9,0.3,1.8,0.2,2.6-0.3l23.1-12.2
			c0.7-0.4,0.8-0.6,0.5-0.7L36.9,33.2z"/>
	</g>
	<g>
		<path d="M46,59.8l21.2-11.2l-30-15.9c-1-0.3-2.1-0.2-3,0.3L13,44.1L43,60C44,60.3,45.1,60.3,46,59.8z"/>
		<path id="e70d2d7d-2d3f-49bf-9037-5bd405e5cde0" class="st0" d="M70,40.8L37.7,23.6c-1.4-0.6-2.9-0.5-4.2,0.3L10.5,36.1
			c-0.9,0.4-1.5,1.2-1.6,2.2c0,0.7,0.5,1.4,1.1,1.7l32.3,17.2c0.5,0.3,1.1,0.4,1.7,0.4c0.9,0,1.8-0.2,2.6-0.6l23.1-12.2
			c0.9-0.4,1.5-1.2,1.6-2.2C71.1,41.8,70.7,41.1,70,40.8z"/>
		<path id="_x34_9a6fcf0-4ffc-4efc-b193-7841a9570fec" d="M62.7,38.9c0.4-0.2,0.8-0.4,1.2-0.6L43,27.3l-0.7,0.4
			c-4.9,2.6-11.7,3.2-15.2,1.3c-0.3-0.1-0.5-0.3-0.8-0.5l-8.7,4.6c0.4,0.1,0.8,0.3,1.2,0.5c3.5,1.9,2.4,5.5-2.5,8.1l-0.8,0.4
			l21.3,11.3c0.3-0.2,0.5-0.3,0.8-0.5c4.9-2.6,11.7-3.2,15.2-1.3c0.3,0.2,0.6,0.3,0.8,0.6l8.4-4.5c-0.7-0.2-1.4-0.4-2-0.7
			C56.7,45.1,57.8,41.5,62.7,38.9z M46,43.6c-4.9,2.6-11.7,3.2-15.2,1.3s-2.4-5.5,2.5-8.1s11.7-3.2,15.2-1.3S50.9,41,46,43.6z"/>
		<g id="d662e827-3aa3-47a0-ba7c-58d41a89bf18">
			<path d="M48.5,35.5c-3.5-1.9-10.3-1.3-15.2,1.3s-6,6.2-2.5,8.1s10.3,1.3,15.2-1.3S52,37.4,48.5,35.5z"/>
			<path class="st0" d="M18.9,33.6c-0.4-0.2-0.8-0.4-1.2-0.5l-6.9,3.7c-1.3,0.7-1.7,1.9-0.5,2.5l5.3,2.8l0.8-0.4
				C21.3,39.1,22.4,35.5,18.9,33.6z"/>
			<path class="st0" d="M69.7,41.5l-5.8-3.1c-0.4,0.2-0.8,0.4-1.2,0.6c-4.9,2.6-6,6.2-2.5,8.1c0.6,0.3,1.3,0.6,2,0.7l7-3.7
				C70.5,43.3,70.8,42.1,69.7,41.5z"/>
			<path class="st0" d="M37.7,52.9c-0.3,0.2-0.6,0.3-0.8,0.5l5.8,3c1.2,0.4,2.4,0.3,3.5-0.3l7.6-4c-0.3-0.2-0.5-0.4-0.8-0.6
				C49.4,49.8,42.6,50.3,37.7,52.9z"/>
		</g>
		<path id="ffa82d5e-354f-481c-96ca-27352ae950ec" d="M37.4,24.3l32.3,17.2c1.2,0.6,0.8,1.8-0.5,2.5L46.1,56.2
			c-1.1,0.6-2.4,0.7-3.5,0.3L10.3,39.3c-1.1-0.6-0.8-1.8,0.5-2.5l23.1-12.2C34.9,24,36.2,23.9,37.4,24.3z M36.9,25.2
			c-0.9-0.3-1.8-0.2-2.6,0.3L11.3,37.7c-0.7,0.4-0.8,0.6-0.5,0.7l32.3,17.2c0.9,0.3,1.8,0.2,2.6-0.3l23.1-12.2
			c0.7-0.4,0.8-0.6,0.5-0.7L36.9,25.2z"/>
	</g>
	<g>
		<path d="M46,51.7l21.2-11.2l-30-15.9c-1-0.3-2.1-0.2-3,0.3L13,36l30,16C44,52.3,45.1,52.2,46,51.7z"/>
		<path id="_x36_ae85a62-aaac-4464-9aea-74e8073c9ac4" class="st0" d="M70,32.1L37.7,14.9c-1.4-0.6-2.9-0.5-4.2,0.3L10.5,27.4
			c-0.9,0.4-1.5,1.2-1.6,2.1c0,0.7,0.5,1.4,1.1,1.7l32.3,17.2c0.5,0.3,1.1,0.4,1.7,0.4c0.9,0,1.8-0.2,2.6-0.6l23.1-12.2
			c0.9-0.4,1.5-1.2,1.6-2.2C71.1,33,70.7,32.4,70,32.1z"/>
		<path id="_x39_63269d2-6358-43ee-85c5-a48bf6b10676" d="M62.7,30.2c0.4-0.2,0.8-0.4,1.2-0.6L43,18.5l-0.7,0.4
			c-4.9,2.6-11.7,3.2-15.2,1.3c-0.3-0.1-0.5-0.3-0.8-0.5l-8.7,4.6c0.4,0.1,0.8,0.3,1.2,0.5c3.5,1.9,2.4,5.5-2.5,8.1l-0.8,0.4
			l21.3,11.3c0.3-0.2,0.5-0.3,0.8-0.5c4.9-2.6,11.7-3.2,15.2-1.3c0.3,0.2,0.6,0.3,0.8,0.6l8.4-4.4c-0.7-0.2-1.4-0.4-2-0.7
			C56.7,36.4,57.8,32.8,62.7,30.2z M46,34.8c-4.9,2.6-11.7,3.2-15.2,1.3s-2.4-5.5,2.5-8.1s11.7-3.2,15.2-1.3S50.9,32.2,46,34.8z"/>
		<g id="_x36_1f9a9a5-4c48-463e-86d7-850e770a1780">
			<path class="st0" d="M48.5,26.8c-3.5-1.9-10.3-1.3-15.2,1.3s-6,6.2-2.5,8.1s10.3,1.3,15.2-1.3S52,28.6,48.5,26.8z"/>
			<path class="st0" d="M42.4,18.9l0.6-0.4l-5.7-3c-1.2-0.4-2.4-0.3-3.5,0.3l-7.5,4c0.2,0.2,0.5,0.3,0.8,0.5
				C30.7,22.1,37.5,21.5,42.4,18.9z"/>
			<path class="st0" d="M18.9,24.9c-0.4-0.2-0.8-0.4-1.2-0.5L10.8,28c-1.3,0.7-1.7,1.9-0.5,2.5l5.3,2.8l0.8-0.4
				C21.3,30.3,22.4,26.7,18.9,24.9z"/>
			<path class="st0" d="M69.7,32.7l-5.8-3.1c-0.4,0.2-0.8,0.4-1.2,0.6c-4.9,2.6-6,6.2-2.5,8.1c0.6,0.3,1.3,0.6,2,0.7l7.1-3.7
				C70.5,34.5,70.8,33.3,69.7,32.7z"/>
			<path class="st0" d="M37.7,44.2c-0.3,0.2-0.6,0.3-0.8,0.5l5.8,3c1.2,0.4,2.4,0.3,3.5-0.3l7.6-4c-0.3-0.2-0.5-0.4-0.8-0.6
				C49.4,41,42.6,41.6,37.7,44.2z"/>
		</g>
		<path id="fdd56c88-ea50-4d46-96b0-38bf267e6802" d="M41.2,33.7c-2.5,1-4.2,1-5.8,0.2c-1.8-0.9-1.7-1.9,0.2-3.2l-0.7-0.4l1.1-0.6
			l0.6,0.3l0.2-0.1l0.2-0.1l-0.6-0.3l1.1-0.6l0.7,0.4c2.4-1,4.2-1,6-0.1s1.6,1.8-0.4,3.1l-1.6-0.9c0.8-0.5,0.9-0.9,0.2-1.3
			c-0.8-0.3-1.7-0.3-2.5,0.1l1.7,0.9l-1.1,0.6l-1.8-0.9l-0.2,0.1L38.3,31l1.4,0.8l-1.1,0.6l-1.3-0.7c-0.8,0.6-0.8,1-0.1,1.3
			c0.8,0.4,1.7,0.3,2.4-0.1L41.2,33.7z"/>
		<path id="ef6b4362-6141-4500-b0e2-7a4bd3bd413a" d="M37.4,15.5l32.3,17.2c1.2,0.6,0.8,1.8-0.5,2.5L46.1,47.4
			c-1.1,0.6-2.4,0.7-3.5,0.3L10.3,30.5c-1.1-0.6-0.8-1.8,0.5-2.5l23.1-12.2C34.9,15.2,36.2,15.1,37.4,15.5z M36.9,16.4
			c-0.9-0.3-1.8-0.2-2.6,0.3L11.3,28.9c-0.7,0.4-0.8,0.6-0.5,0.7l32.3,17.2c0.9,0.3,1.8,0.2,2.6-0.3l23.1-12.2
			c0.7-0.4,0.8-0.6,0.5-0.7L36.9,16.4z"/>
	</g>
</g>
</svg>
