<svg id="8a56db12-15f2-427c-8cec-0465e6a36d33" data-name="Calque 1" xmlns="http://www.w3.org/2000/svg" width="40" height="35" viewBox="0 0 40 35">
  <defs>
    <style>
      .\35 11aea28-7169-48ec-97d0-99992e007032 {
        fill: #fff;
      }
    </style>
  </defs>
  <title>icon_profile_budget-modeste-01</title>
  <g>
    <path id="adb6ff43-bbee-4685-892d-49a4b3178628" data-name="Path" class="511aea28-7169-48ec-97d0-99992e007032" d="M39.13,20.11c1.33,0.72.89,2.15-.32,2.8L24.18,30.78a3.27,3.27,0,0,1-2.88.17L0.81,19.89c-1.33-.72-0.89-2.15.32-2.8L15.76,9.22a3.27,3.27,0,0,1,2.88-.17Z"/>
    <path id="6dada70c-ea9b-4e68-a9e4-2aa63dd6a34a" data-name="Path" d="M39.13,20.11c1.33,0.72.89,2.15-.32,2.8L24.18,30.78a3.27,3.27,0,0,1-2.88.17L0.81,19.89c-1.33-.72-0.89-2.15.32-2.8L15.76,9.22a3.27,3.27,0,0,1,2.88-.17Zm-21-10.18a2.34,2.34,0,0,0-1.93.17L1.61,18C1,18.3.84,18.77,1.29,19L21.78,30.07a2.34,2.34,0,0,0,1.93-.17L38.33,22c0.62-.33.76-0.8,0.32-1Z"/>
    <path d="M39.16,15.11c1.33,0.72.89,2.15-.32,2.8L24.21,25.78a3.27,3.27,0,0,1-2.88.17L0.84,14.89c-1.33-.72-0.89-2.15.32-2.8L15.79,4.22a3.27,3.27,0,0,1,2.88-.17Z"/>
    <g>
      <path class="511aea28-7169-48ec-97d0-99992e007032" d="M38.86,15.55l-3.28-1.77c-1.84,1.5-2.13,3.35-.56,4.35a4.1,4.1,0,0,0,1.34.51l2.18-1.17C39.45,17,39.75,16,38.86,15.55Z"/>
      <path class="511aea28-7169-48ec-97d0-99992e007032" d="M24.79,11.45c-2.09-1.13-6.15-.77-9.07.8s-3.6,3.76-1.51,4.88,6.15,0.77,9.07-.8S26.88,12.58,24.79,11.45Z"/>
      <path class="511aea28-7169-48ec-97d0-99992e007032" d="M26,22.45c-1.77-1.13-5.2-.77-7.67.8-0.15.1-.27,0.2-0.41,0.3l3.62,2a2.8,2.8,0,0,0,2.4-.17l3-1.62A2.06,2.06,0,0,0,26,22.45Z"/>
      <path class="511aea28-7169-48ec-97d0-99992e007032" d="M14,7.14c1.77,1.13,5.2.77,7.67-.8l0,0L18.37,4.49a2.8,2.8,0,0,0-2.4.17l-2.8,1.51A2.2,2.2,0,0,0,14,7.14Z"/>
      <path class="511aea28-7169-48ec-97d0-99992e007032" d="M5,11.45a3.76,3.76,0,0,0-.9-0.39L1.34,12.53C0.43,13,.13,14,1,14.45l3,1.63C6.2,14.53,6.65,12.52,5,11.45Z"/>
    </g>
    <path id="1f4bcb17-4d4d-4f73-acb5-d0de1863d33a" data-name="Path" d="M39.13,15.11c1.33,0.72.89,2.15-.32,2.8L24.18,25.78a3.27,3.27,0,0,1-2.88.17L0.81,14.89c-1.33-.72-0.89-2.15.32-2.8L15.76,4.22a3.27,3.27,0,0,1,2.88-.17Zm-21-10.18a2.34,2.34,0,0,0-1.93.17L1.61,13C1,13.3.84,13.77,1.29,14L21.78,25.07a2.34,2.34,0,0,0,1.93-.17L38.33,17c0.62-.33.76-0.8,0.32-1Z"/>
  </g>
</svg>
