<?xml version="1.0" encoding="utf-8"?>
<!-- Generator: Adobe Illustrator 22.1.0, SVG Export Plug-In . SVG Version: 6.00 Build 0)  -->
<svg version="1.1" id="Calque_1" xmlns="http://www.w3.org/2000/svg" xmlns:xlink="http://www.w3.org/1999/xlink" x="0px" y="0px"
	 viewBox="0 0 40 40" style="enable-background:new 0 0 40 40;" xml:space="preserve">
<g>
	<path d="M26.7,21.7l-1.9-1c0,0,0,0,0,0l-1.9-1c0,0,0,0,0,0l-10.5-5.5c-0.4-0.2-0.9,0-0.9,0.5l-0.2,1.5c0,0.3,0.1,0.5,0.3,0.7
		L25,23.9c0.2,0.1,0.5,0.1,0.7-0.1l1.1-1.1C27.2,22.4,27.1,21.9,26.7,21.7z"/>
	<path d="M23.4,24.8l-11.5-6c-0.4-0.2-0.9,0-0.9,0.5l-2.6,19c-0.1,0.6,0.6,1,1.1,0.6l14.1-13C23.9,25.5,23.8,25,23.4,24.8z"/>
	<rect x="17.6" y="0.9" transform="matrix(0.9538 -0.3005 0.3005 0.9538 0.1724 5.8406)" width="2.9" height="2.9"/>
	<rect x="29.2" y="10.1" transform="matrix(0.9538 -0.3005 0.3005 0.9538 -2.0724 9.7419)" width="2.9" height="2.9"/>
	<path d="M31.7,16c-2.9-1.5-6.5-0.5-8.3,2.2l2.5,1.3c1-1.4,2.9-1.8,4.5-1c0.7,0.4,1.5,0.1,1.9-0.6C32.7,17.2,32.4,16.3,31.7,16z"/>
	<path d="M11.7,7.7c2.6,1.3,4.1,3.9,4.4,6.6l2.8,1.5C19.2,11.6,17,7.3,13,5.2c-0.7-0.4-1.5-0.1-1.9,0.6C10.7,6.5,11,7.4,11.7,7.7z"
		/>
	<path d="M31.6,3.2c-2.9,0.1-5.7,1.3-7.7,3.4c-1.6,1.7-2.6,3.8-2.9,6.1l2.7,1.4c0-2.1,0.8-4.1,2.2-5.6C27.4,7,29.4,6.1,31.6,6
		C32.4,6,33,5.4,33,4.6C33,3.8,32.3,3.2,31.6,3.2z"/>
</g>
</svg>
