<?xml version="1.0" encoding="utf-8"?>
<!-- Generator: Adobe Illustrator 22.1.0, SVG Export Plug-In . SVG Version: 6.00 Build 0)  -->
<svg version="1.1" id="Calque_1" xmlns="http://www.w3.org/2000/svg" xmlns:xlink="http://www.w3.org/1999/xlink" x="0px" y="0px"
	 viewBox="0 0 40 40" style="enable-background:new 0 0 40 40;" xml:space="preserve">
<path fill="#fff" id="path-1_1_" d="M17.9,20l-7.4-7.4c-0.6-0.6-0.6-1.5,0-2.1c0.6-0.6,1.5-0.6,2.1,0l7.4,7.4l7.4-7.4c0.6-0.6,1.5-0.6,2.1,0
	c0.6,0.6,0.6,1.5,0,2.1L22.1,20l7.4,7.4c0.6,0.6,0.6,1.5,0,2.1s-1.5,0.6-2.1,0L20,22.1l-7.4,7.4c-0.6,0.6-1.5,0.6-2.1,0
	c-0.6-0.6-0.6-1.5,0-2.1L17.9,20z"/>
</svg>
