<?xml version="1.0" encoding="utf-8"?>
<!-- Generator: Adobe Illustrator 22.1.0, SVG Export Plug-In . SVG Version: 6.00 Build 0)  -->
<svg version="1.1" id="Calque_1" xmlns="http://www.w3.org/2000/svg" xmlns:xlink="http://www.w3.org/1999/xlink" x="0px" y="0px"
	 viewBox="0 0 40 40" style="enable-background:new 0 0 40 40;" fill="white" xml:space="preserve">
<style type="text/css">
	.st0{clip-path:url(#SVGID_2_);}
	.st1{clip-path:url(#SVGID_4_);enable-background:new    ;}
	.st2{clip-path:url(#SVGID_6_);}
	.st3{clip-path:url(#SVGID_8_);}
	.st4{clip-path:url(#SVGID_10_);}
</style>
<g>
	<defs>
		<path id="SVGID_1_" d="M16.9,20c0,1.8,1.4,3.3,3.1,3.3c1.7,0,3.1-1.4,3.1-3.3s-1.4-3.3-3.1-3.3C18.3,16.7,16.9,18.2,16.9,20z
			 M13.9,20c0-3.5,2.7-6.3,6.1-6.3c3.4,0,6.1,2.8,6.1,6.3s-2.7,6.3-6.1,6.3C16.6,26.3,13.9,23.5,13.9,20z M6.3,18.7
			c-0.7,0.7-0.7,2,0,2.7c4.8,4.8,9.4,7.2,13.7,7.2s8.9-2.4,13.7-7.2c0.7-0.7,0.7-2,0-2.7c-4.8-4.8-9.4-7.2-13.7-7.2
			S11.1,13.9,6.3,18.7z"/>
	</defs>
	<clipPath id="SVGID_2_">
		<use xlink:href="#SVGID_1_"  style="overflow:visible;"/>
	</clipPath>
	<g class="st0">
		<defs>
			<rect id="SVGID_3_" x="-44.7" y="-102.3" width="375" height="667"/>
		</defs>
		<clipPath id="SVGID_4_">
			<use xlink:href="#SVGID_3_"  style="overflow:visible;"/>
		</clipPath>
		<g class="st1">
			<g>
				<defs>
					<rect id="SVGID_5_" x="-0.7" y="5.7" width="41" height="28"/>
				</defs>
				<clipPath id="SVGID_6_">
					<use xlink:href="#SVGID_5_"  style="overflow:visible;"/>
				</clipPath>
				<g class="st2">
					<defs>
						<rect id="SVGID_7_" x="0" y="6.5" width="39.9" height="27.1"/>
					</defs>
					<clipPath id="SVGID_8_">
						<use xlink:href="#SVGID_7_"  style="overflow:visible;"/>
					</clipPath>
					<g class="st3">
						<defs>
							<rect id="SVGID_9_" x="5.3" y="10.7" width="30" height="18"/>
						</defs>
						<clipPath id="SVGID_10_">
							<use xlink:href="#SVGID_9_"  style="overflow:visible;"/>
						</clipPath>
						<rect x="-5" y="1.5" class="st4" width="49.9" height="37.1"/>
					</g>
				</g>
			</g>
		</g>
	</g>
</g>
</svg>
