<?xml version="1.0" encoding="UTF-8"?>
<svg width="49px" height="11px" viewBox="0 0 49 11" version="1.1" xmlns="http://www.w3.org/2000/svg" xmlns:xlink="http://www.w3.org/1999/xlink">
    <!-- Generator: Sketch 51.3 (57544) - http://www.bohemiancoding.com/sketch -->
    <title>icon_surface</title>
    <desc>Created with Sketch.</desc>
    <defs></defs>
    <g id="Symbols" stroke="none" stroke-width="1" fill="none" fill-rule="evenodd">
        <g id="card/element/m2" transform="translate(-6.000000, -18.000000)" fill="#000000" fill-rule="nonzero">
            <path d="M51.9788445,22 L42.1263084,19.4844589 C41.8587491,19.4161459 41.6972281,19.1438676 41.7655411,18.8763084 C41.8338541,18.6087491 42.1061324,18.4472281 42.3736916,18.5155411 L54.1236916,21.5155411 C54.6254361,21.6436461 54.6254361,22.3563539 54.1236916,22.4844589 L31.6132246,28.2318121 C30.8827908,28.4183059 30.1172092,28.4183059 29.3867754,28.2318121 L6.87630838,22.4844589 C6.37456387,22.3563539 6.37456387,21.6436461 6.87630838,21.5155411 L18.6263084,18.5155411 C18.8938676,18.4472281 19.1661459,18.6087491 19.2344589,18.8763084 C19.3027719,19.1438676 19.1412509,19.4161459 18.8736916,19.4844589 L9.02115547,22 L29.6341586,27.2628944 C30.2022738,27.4079451 30.7977262,27.4079451 31.3658414,27.2628944 L51.9788445,22 Z" id="icon_surface"></path>
        </g>
    </g>
</svg>