<?xml version="1.0" encoding="utf-8"?>
<!-- Generator: Adobe Illustrator 22.1.0, SVG Export Plug-In . SVG Version: 6.00 Build 0)  -->
<svg version="1.1" id="Calque_1" xmlns="http://www.w3.org/2000/svg" xmlns:xlink="http://www.w3.org/1999/xlink" x="0px" y="0px"
	 viewBox="0 0 40 40" style="enable-background:new 0 0 40 40;" xml:space="preserve">
<style type="text/css">
	.st0{clip-path:url(#SVGID_2_);}
	.st1{clip-path:url(#SVGID_4_);enable-background:new    ;}
	.st2{clip-path:url(#SVGID_6_);}
	.st3{clip-path:url(#SVGID_8_);}
	.st4{clip-path:url(#SVGID_10_);}
</style>
<g>
	<defs>
		<rect id="SVGID_1_" x="5.5" y="5.5" width="28.9" height="28.9"/>
	</defs>
	<clipPath id="SVGID_2_">
		<use xlink:href="#SVGID_1_"  style="overflow:visible;"/>
	</clipPath>
	<g class="st0">
		<defs>
			<rect id="SVGID_3_" x="-289.5" y="-102.7" width="375" height="667"/>
		</defs>
		<clipPath id="SVGID_4_">
			<use xlink:href="#SVGID_3_"  style="overflow:visible;"/>
		</clipPath>
		<g class="st1">
			<g>
				<defs>
					<rect id="SVGID_5_" x="4.5" y="5.3" width="31" height="30"/>
				</defs>
				<clipPath id="SVGID_6_">
					<use xlink:href="#SVGID_5_"  style="overflow:visible;"/>
				</clipPath>
				<g class="st2">
					<defs>
						<path id="SVGID_7_" d="M34.2,21l-1.7-1.6c-0.3-0.3-0.3-0.7-0.1-1.1l1.3-1.9c0.3-0.5,0.1-1.1-0.4-1.3l-2.2-0.8
							c-0.4-0.1-0.6-0.5-0.5-0.9l0.4-2.3c0.1-0.5-0.3-1-0.9-1l-2.3,0.2c-0.4,0-0.8-0.2-0.9-0.6l-0.5-2.3c-0.1-0.5-0.7-0.8-1.2-0.5
							l-2,1.1c-0.4,0.2-0.8,0.1-1.1-0.2l-1.4-1.9c-0.3-0.4-1-0.4-1.3,0l-1.4,1.9c-0.2,0.3-0.7,0.4-1.1,0.2l-2-1.1
							c-0.5-0.3-1.1,0-1.2,0.5l-0.5,2.3c-0.1,0.4-0.5,0.7-0.9,0.6l-2.3-0.2c-0.5,0-1,0.4-0.9,1l0.4,2.3c0.1,0.4-0.2,0.8-0.5,0.9
							l-2.2,0.8c-0.5,0.2-0.7,0.8-0.4,1.3l1.3,1.9c0.2,0.3,0.2,0.8-0.1,1.1L5.8,21c-0.4,0.4-0.3,1,0.1,1.3l2,1.2
							c0.3,0.2,0.5,0.6,0.3,1l-0.9,2.2c-0.2,0.5,0.1,1.1,0.7,1.1l2.3,0.3c0.4,0.1,0.7,0.4,0.7,0.8l0.1,2.3c0,0.5,0.5,0.9,1.1,0.8
							l2.2-0.7c0.4-0.1,0.8,0.1,1,0.4l1,2.1c0.2,0.5,0.9,0.6,1.3,0.3l1.8-1.5c0.3-0.3,0.8-0.3,1.1,0l1.8,1.5
							c0.4,0.4,1.1,0.2,1.3-0.3l1-2.1c0.2-0.4,0.6-0.6,1-0.4l2.2,0.7c0.5,0.2,1.1-0.2,1.1-0.8l0.1-2.3c0-0.4,0.3-0.8,0.7-0.8
							l2.3-0.3c0.5-0.1,0.9-0.6,0.7-1.1l-0.9-2.2c-0.2-0.4,0-0.8,0.3-1l2-1.2C34.5,22,34.6,21.4,34.2,21 M26.4,23.3l-1.8,0.9
							c-0.2,0.1-0.3,0.2-0.4,0.4l-0.9,1.9c-0.2,0.4-0.6,0.5-1,0.4l-2-0.6c-0.2-0.1-0.3-0.1-0.5,0l-2,0.6c-0.4,0.1-0.8,0-1-0.4
							l-0.9-1.9c-0.1-0.2-0.2-0.3-0.4-0.4l-1.8-0.9c-0.4-0.2-0.5-0.6-0.4-1l0.6-2c0.1-0.2,0.1-0.3,0-0.5l-0.6-2
							c-0.1-0.4,0.1-0.8,0.4-1l1.8-0.9c0.2-0.1,0.3-0.2,0.4-0.4l0.9-1.9c0.2-0.4,0.6-0.5,1-0.4l2,0.6c0.2,0.1,0.3,0.1,0.5,0l2-0.6
							c0.4-0.1,0.8,0,1,0.4l0.9,1.9c0.1,0.2,0.2,0.3,0.4,0.4l1.8,0.9c0.4,0.2,0.5,0.6,0.4,1l-0.6,2c-0.1,0.2-0.1,0.3,0,0.5l0.6,2
							C26.9,22.7,26.7,23.1,26.4,23.3"/>
					</defs>
					<clipPath id="SVGID_8_">
						<use xlink:href="#SVGID_7_"  style="overflow:visible;"/>
					</clipPath>
					<g class="st3">
						<defs>
							<rect id="SVGID_9_" x="5.5" y="5.3" width="29" height="30"/>
						</defs>
						<clipPath id="SVGID_10_">
							<use xlink:href="#SVGID_9_"  style="overflow:visible;"/>
						</clipPath>
						<rect x="0.5" y="0.5" class="st4" width="38.9" height="38.9"/>
					</g>
				</g>
			</g>
		</g>
	</g>
</g>
</svg>
