<?xml version="1.0" encoding="utf-8"?>
<!-- Generator: Adobe Illustrator 22.1.0, SVG Export Plug-In . SVG Version: 6.00 Build 0)  -->
<svg version="1.1" id="Calque_1" xmlns="http://www.w3.org/2000/svg" xmlns:xlink="http://www.w3.org/1999/xlink" x="0px" y="0px"
	 viewBox="0 0 40 40" style="enable-background:new 0 0 40 40;" fill="white" xml:space="preserve">
<style type="text/css">
	.st0{fill-rule:evenodd;clip-rule:evenodd;}
	.st1{fill-rule:evenodd;clip-rule:evenodd;fill:none;}
</style>
<g>
	<path class="st0" d="M30.2,19.8h0.3c1.1,0,2-0.9,2-2c0-1.1-0.9-2-2-2h-6.2c0.6-1.4,0.9-3.1,0.9-4.9c0-1.1-0.9-2-2-2
		c-1.1,0-2,0.9-2,2c0,3.6-1.7,6.3-3.9,6.3c-1.1,0-2,0.9-2,2v8.2c0,1.5,1.4,2.7,3,2.7h3.7c0.1,0,0.2,0,0.4,0c0.1,0,0.2,0,0.3,0h5.9
		c0.8,0,1.5-0.7,1.5-1.5c0-0.8-0.7-1.5-1.5-1.5h0.9c1,0,1.7-0.8,1.7-1.7c0-1-0.8-1.7-1.7-1.7h0.6c1.1,0,2-0.9,2-2
		S31.2,19.8,30.2,19.8z"/>
	<rect x="15.3" y="9" class="st1" width="17.1" height="21.2"/>
	<path class="st0" d="M12.1,16.6H8.8c-0.7,0-1.3,0.6-1.3,1.3v11.8c0,0.7,0.6,1.3,1.3,1.3h3.3c0.7,0,1.3-0.6,1.3-1.3V17.9
		C13.4,17.2,12.8,16.6,12.1,16.6"/>
</g>
</svg>
