<?xml version="1.0" encoding="utf-8"?>
<!-- Generator: Adobe Illustrator 22.1.0, SVG Export Plug-In . SVG Version: 6.00 Build 0)  -->
<svg version="1.1" id="Calque_1" xmlns="http://www.w3.org/2000/svg" xmlns:xlink="http://www.w3.org/1999/xlink" x="0px" y="0px"
	 viewBox="0 0 45 45" style="enable-background:new 0 0 45 45;" xml:space="preserve">
<title>icon_star</title>
<desc>Created with Sketch.</desc>
<g id="UI">
	<g id="HUTTE_UI-kit_atomes" transform="translate(-100.000000, -810.000000)">
		<path  fill="#fff" id="icon_star" d="M122.5,849.7l-13,4.2c-0.5,0.2-1.1-0.1-1.2-0.6c0-0.1,0-0.2,0-0.3l0-13.7l-8-11.1c-0.3-0.4-0.2-1,0.2-1.4
			c0.1-0.1,0.2-0.1,0.3-0.1l13-4.3l8.1-11c0.3-0.4,0.9-0.5,1.4-0.2c0.1,0.1,0.2,0.1,0.2,0.2l8.1,11l13,4.3c0.5,0.2,0.8,0.7,0.6,1.2
			c0,0.1-0.1,0.2-0.1,0.3l-8,11.1l0,13.7c0,0.5-0.4,1-1,1c-0.1,0-0.2,0-0.3,0L122.5,849.7z"/>
	</g>
</g>
</svg>
