<?xml version="1.0" encoding="UTF-8"?>
<svg width="20px" height="27px" viewBox="0 0 20 27" version="1.1" xmlns="http://www.w3.org/2000/svg" xmlns:xlink="http://www.w3.org/1999/xlink">
    <!-- Generator: Sketch 55.1 (78136) - https://sketchapp.com -->
    <title>element/statut-premium</title>
    <desc>Created with Sketch.</desc>
    <g id="element/statut-premium" stroke="none" stroke-width="1" fill="none" fill-rule="evenodd">
        <polygon id="Path-6" fill="#FFFFFF" points="3.5 10 3.5 27 10 22.5 16.5 27 16.5 10"></polygon>
        <path d="M10,20.542837 L5,23.9449841 L5,4.5 L15,4.5 L15,23.9449841 L10,20.542837 Z" id="Path-6" stroke="#000000" fill="#FF9F00"></path>
        <polygon id="Star" fill="#FFFFFF" points="10 18.5 6.90983006 19.5105652 5.00382536 16.8766445 1.90983006 15.8778525 1.91601961 12.6266445 0 10 1.91601961 7.37335555 1.90983006 4.12214748 5.00382536 3.12335555 6.90983006 0.489434837 10 1.5 13.0901699 0.489434837 14.9961746 3.12335555 18.0901699 4.12214748 18.0839804 7.37335555 20 10 18.0839804 12.6266445 18.0901699 15.8778525 14.9961746 16.8766445 13.0901699 19.5105652"></polygon>
        <polygon id="Star-2" fill="#FF9F00" points="10 16.8 7.52786405 17.6084521 6.00306028 15.5013156 3.52786405 14.702282 3.53281569 12.1013156 2 10 3.53281569 7.89868444 3.52786405 5.29771798 6.00306028 4.49868444 7.52786405 2.39154787 10 3.2 12.472136 2.39154787 13.9969397 4.49868444 16.472136 5.29771798 16.4671843 7.89868444 18 10 16.4671843 12.1013156 16.472136 14.702282 13.9969397 15.5013156 12.472136 17.6084521"></polygon>
        <path d="M7.33661616,18.1970526 L5.69385146,15.926905 L3.02717059,15.0660571 L3.0325053,12.2638763 L1.38110886,10 L3.0325053,7.73612374 L3.02717059,4.9339429 L5.69385146,4.07309501 L7.33661616,1.80294742 L10,2.67394253 L12.6633838,1.80294742 L14.3061485,4.07309501 L16.9728294,4.9339429 L16.9674947,7.73612374 L18.6188911,10 L16.9674947,12.2638763 L16.9728294,15.0660571 L14.3061485,15.926905 L12.6633838,18.1970526 L10,17.3260575 L7.33661616,18.1970526 Z M10,16.2739425 L12.2808881,17.0198517 L13.6877309,15.0757261 L15.9714425,14.3385069 L15.9668739,11.9387549 L17.3811089,10 L15.9668739,8.06124514 L15.9714425,5.66149307 L13.6877309,4.92427387 L12.2808881,2.98014832 L10,3.72605747 L7.71911193,2.98014832 L6.31226911,4.92427387 L4.0285575,5.66149307 L4.03312607,8.06124514 L2.61889114,10 L4.03312607,11.9387549 L4.0285575,14.3385069 L6.31226911,15.0757261 L7.71911193,17.0198517 L10,16.2739425 Z" id="Star-2" fill="#000000" fill-rule="nonzero"></path>
        <path d="M10,14.25 L8.45491503,14.7552826 L7.50191268,13.4383222 L5.95491503,12.9389263 L5.95800981,11.3133222 L5,10 L5.95800981,8.68667777 L5.95491503,7.06107374 L7.50191268,6.56167777 L8.45491503,5.24471742 L10,5.75 L11.545085,5.24471742 L12.4980873,6.56167777 L14.045085,7.06107374 L14.0419902,8.68667777 L15,10 L14.0419902,11.3133222 L14.045085,12.9389263 L12.4980873,13.4383222 L11.545085,14.7552826 L10,14.25 Z M10,13.1978851 L11.1625892,13.5780817 L11.8796697,12.5871434 L13.0436981,12.2113761 L13.0413694,10.9882008 L13.7622177,10 L13.0413694,9.01179917 L13.0436981,7.78862391 L11.8796697,7.41285664 L11.1625892,6.42191832 L10,6.80211494 L8.83741079,6.42191832 L8.12033032,7.41285664 L6.95630193,7.78862391 L6.95863057,9.01179917 L6.23778228,10 L6.95863057,10.9882008 L6.95630193,12.2113761 L8.12033032,12.5871434 L8.83741079,13.5780817 L10,13.1978851 Z" id="Star" fill="#000000" fill-rule="nonzero"></path>
    </g>
</svg>