<?xml version="1.0" encoding="utf-8"?>
<!-- Generator: Adobe Illustrator 22.1.0, SVG Export Plug-In . SVG Version: 6.00 Build 0)  -->
<svg version="1.1" id="Calque_1" xmlns="http://www.w3.org/2000/svg" xmlns:xlink="http://www.w3.org/1999/xlink" x="0px" y="0px"
	 viewBox="0 0 30 37" style="enable-background:new 0 0 30 37;" xml:space="preserve">
<style type="text/css">
	.st0{fill-rule:evenodd;clip-rule:evenodd;fill:#FFFFFF;}
</style>
<g>
	<path class="st0" d="M20.4,29.7c-0.3,0.3-0.7,0.6-1.1,0.7c-0.4,0.1-0.9,0.2-1.3,0.1l-2.8-0.6L12,30.4c-0.4,0.1-0.9,0.1-1.3-0.1
		c-0.4-0.1-0.8-0.4-1.1-0.7l-1.9-2.1l-0.3-0.1v7.8c0,0.6,0.4,1,1,1c0.2,0,0.4-0.1,0.6-0.2l5.4-3.7c0.3-0.2,0.8-0.2,1.1,0L21,36
		c0.5,0.3,1.1,0.2,1.4-0.3c0.1-0.2,0.2-0.4,0.2-0.6v-7.9L20.4,29.7z"/>
	<g>
		<circle class="st0" cx="15.2" cy="13.9" r="4.5"/>
		<path class="st0" d="M28.6,12.9L27,10l-0.3-2.8c0-0.5-0.2-0.9-0.5-1.2c-0.3-0.3-0.6-0.6-1-0.8l-3-1.4l-1.9-2.1
			c-0.3-0.3-0.7-0.6-1.1-0.7c-0.4-0.1-0.9-0.2-1.3-0.1l-3.2,0.6L12,0.8c-0.4-0.1-0.9-0.1-1.3,0.1C10.3,1,9.9,1.3,9.6,1.6L7.4,4
			L4.8,5.1C4.4,5.3,4,5.6,3.7,6C3.5,6.3,3.3,6.7,3.3,7.2l-0.4,3.2l-1.4,2.5c-0.2,0.4-0.3,0.8-0.3,1.3c0,0.4,0.1,0.9,0.3,1.2L3,18.2
			l0.3,2.8c0,0.5,0.2,0.9,0.5,1.2c0.3,0.3,0.6,0.6,1,0.8l3,1.4l1.9,2.1c0.3,0.3,0.7,0.6,1.1,0.7c0.4,0.1,0.9,0.2,1.3,0.1l3.2-0.6
			l2.8,0.6c0.4,0.1,0.9,0.1,1.3-0.1c0.4-0.1,0.8-0.4,1.1-0.7l2.2-2.4l2.6-1.1c0.4-0.2,0.8-0.5,1-0.8c0.3-0.3,0.4-0.8,0.5-1.2
			l0.4-3.2l1.4-2.5c0.2-0.4,0.3-0.8,0.3-1.3C28.9,13.7,28.8,13.3,28.6,12.9z M15.2,21.4c-4.1,0-7.5-3.4-7.5-7.5s3.4-7.5,7.5-7.5
			s7.5,3.4,7.5,7.5S19.3,21.4,15.2,21.4z"/>
	</g>
</g>
</svg>
