<?xml version="1.0" encoding="utf-8"?>
<!-- Generator: Adobe Illustrator 22.1.0, SVG Export Plug-In . SVG Version: 6.00 Build 0)  -->
<svg version="1.1" id="Calque_1" xmlns="http://www.w3.org/2000/svg" xmlns:xlink="http://www.w3.org/1999/xlink" x="0px" y="0px"
	 viewBox="0 0 100 100" style="enable-background:new 0 0 100 100;" xml:space="preserve">
<style type="text/css">
	.st0{fill:none;}
	.st1{fill:#FFFFFF;}
</style>
<rect id="Rectangle" y="0" class="st0" width="100" height="100"/>
<path id="Fill-3" d="M64.5,57.8c0.3,0.4,0.6,0.7,1,0.9l-0.1,0.5c-0.6,0.3-1.1,0.8-1.4,1.4L64.5,57.8z M65.1,66.5
	c0.7,0.5,1.5,0.7,2.3,0.7h0.6c-1.1,0.8-1.8,2-1.8,3.5c0,1.4,0.7,2.7,1.8,3.5l-1.5,0C65.6,71.8,65.1,69.2,65.1,66.5z M64.2,62.8
	c0-1.8,1.5-3.3,3.3-3.3h0.3h9c1.8,0,3.3,1.5,3.3,3.3v0.4c0,1.8-1.5,3.3-3.3,3.3h-2.6h-3.6h-3.1c-1.8,0-3.3-1.5-3.3-3.3V62.8z
	 M68.2,44.1c-0.9,0.8-1.4,1.8-1.4,3.1v0.4c0,0.7,0.2,1.3,0.5,1.8L66.9,51c-0.4,0.1-0.9,0.3-1.2,0.5l2.4-13.1l0.7-1.6
	c0.5-1,0.5-2.2,0.2-3.2l1.3-7c0.3,0.3,0.6,0.6,1,0.8L68.2,44.1z M77.5,50.9h-0.4h-6.2c-1.8,0-3.3-1.5-3.3-3.3v-0.4
	c0-1.8,1.5-3.3,3.3-3.3h6.7c1.8,0,3.3,1.5,3.3,3.3v0.4C80.8,49.4,79.3,50.9,77.5,50.9z M67.9,50.4c0.2,0.2,0.4,0.3,0.5,0.5h-0.6
	L67.9,50.4z M64.5,55.4V55c0-1.8,1.5-3.3,3.3-3.3h3.1h6.2c1.8,0,3.3,1.5,3.3,3.3v0.4c0,1.8-1.5,3.3-3.3,3.3h-0.3h-9
	C66,58.7,64.5,57.2,64.5,55.4z M70.6,74.2c-1.9,0-3.5-1.6-3.5-3.5c0-1.9,1.6-3.5,3.5-3.5h3.6c1.9,0,3.5,1.6,3.5,3.5
	c0,1.9-1.6,3.5-3.5,3.5H70.6z M12.8,51.9l33.5,0l0,0c3.7-0.1,7.1-2.1,8.8-5.4l5.8-13.1c0.9-2,3.2-2.9,5.1-2c1,0.4,1.7,1.2,2.1,2.1
	c0.4,1,0.4,2,0,3L63.9,46c-0.5,1.2-0.5,1.8-0.5,2.7c0,6.3-5.1,11.5-11.5,11.5V61c6.8,0,12.3-5.5,12.3-12.3c0-0.9,0-1.3,0.4-2.4
	l0.7-1.6c0.3-0.1,0.5-0.2,0.8-0.2l-1.4,7.8c-0.6,0.7-1,1.6-1,2.7v0.4c0,0.4,0.1,0.9,0.2,1.3l-1.2,6.6c-0.7,3.8-0.3,7.6,1,11l-11.7,0
	c-2.9-0.1-5.3-2.5-5.3-5.4h-0.8c0,2.3,1.3,4.3,3.1,5.4l-26.9,0C16.7,68,13.4,60.1,12.8,51.9z M80,25.2c-0.9,0.3-1.9,0.2-2.7-0.3
	l-1.5-4.5l-0.4,0.1L75,20.6l1.5,4.5c-0.4,0.9-1.1,1.6-2,1.9c-1.8,0.6-3.7-0.4-4.2-2.2c-0.2-0.6-0.2-1.3,0-2c0,0,0,0,0,0l0,0
	c0.1-0.2,0.1-0.3,0.2-0.5l3.1-7.6l7,4.3c0.8,0.4,1.4,1.1,1.7,2C82.7,22.7,81.7,24.6,80,25.2z M78.6,6.3C78.6,6.3,78.6,6.3,78.6,6.3
	c0.4-0.6,1-1,1.6-1.2C81,4.8,82,4.9,82.8,5.3c0.8,0.4,1.4,1.1,1.7,2c0.3,0.9,0.2,1.9-0.3,2.7l-4.7,1.5l0.1,0.4l0.1,0.4l4.7-1.5
	c0.9,0.4,1.6,1.1,1.9,2c0.3,0.9,0.2,1.8-0.2,2.6c-0.4,0.8-1.1,1.4-2,1.7c-0.9,0.3-1.8,0.2-2.6-0.2l-7.6-3.1l4.4-7
	C78.3,6.6,78.4,6.5,78.6,6.3L78.6,6.3z M65.6,8.7C65.5,8.7,65.5,8.7,65.6,8.7c-0.6-0.4-1-1-1.2-1.6c-0.6-1.8,0.4-3.7,2.2-4.2
	c0.9-0.3,1.9-0.2,2.7,0.3l1.5,4.6l0.8-0.3l-1.5-4.6c0.4-0.9,1.1-1.6,2-1.9c0.9-0.3,1.8-0.2,2.6,0.2c0.8,0.4,1.4,1.1,1.7,2
	C76.6,4,76.5,5,76.1,5.8L73,13.4L66,9C65.9,8.9,65.7,8.8,65.6,8.7L65.6,8.7z M64.4,10.9C64.4,10.9,64.4,10.9,64.4,10.9l0.1,0
	c0.2,0.1,0.3,0.1,0.5,0.2l7.6,3.1l-4.3,7c-0.4,0.8-1.1,1.4-2,1.7c-1.8,0.6-3.7-0.4-4.2-2.2c-0.3-0.9-0.2-1.9,0.3-2.7l4.7-1.5L67,16
	l-0.1-0.4l-4.7,1.5c-0.9-0.4-1.6-1.1-1.9-2c-0.3-0.9-0.2-1.8,0.2-2.6c0.4-0.8,1.1-1.4,2-1.7c0.3-0.1,0.7-0.2,1.1-0.2
	C63.8,10.7,64.1,10.8,64.4,10.9z M78.2,86.2c-10-2.5-16.4-12.3-14.8-22.5c0.1,0.8,0.4,1.5,0.9,2c-0.6,9,5.3,17.2,14.1,19.4
	c-0.1,0.2-0.2,0.4-0.3,0.6C78.2,85.9,78.2,86.1,78.2,86.2z M89.1,55.2c1.8-11-1.3-21.7-7.7-29.9c1.4-1,2.1-2.9,1.5-4.6
	c-0.4-1.1-1.1-2-2.1-2.4L77.3,16l3.8,1.6c0.6,0.3,1.3,0.5,1.9,0.5c0.4,0,0.9-0.1,1.3-0.2c1.1-0.3,1.9-1.1,2.4-2.1
	c0.5-1,0.6-2.1,0.2-3.2c-0.3-1-1.1-1.9-2-2.4c0.5-1,0.6-2.1,0.2-3.1c-0.3-1.1-1.1-1.9-2.1-2.4S81,4,79.9,4.3c-0.8,0.3-1.4,0.7-2,1.3
	c0,0-0.1,0.1-0.1,0.1l0,0.1c-0.1,0.2-0.2,0.4-0.3,0.5l-2.2,3.6l1.5-3.8c0.5-1,0.6-2.2,0.3-3.2C76.8,1.8,76,1,75,0.5
	c-1-0.5-2.1-0.6-3.2-0.2c-1,0.3-1.9,1.1-2.4,2c-1-0.5-2.1-0.6-3.1-0.2c-2.2,0.7-3.4,3.1-2.7,5.3c0.2,0.8,0.7,1.4,1.3,1.9
	c0,0,0.1,0.1,0.1,0.1l0.1,0c0.2,0.1,0.4,0.2,0.5,0.3l3.5,2.2l-3.8-1.5c-0.2-0.1-0.4-0.2-0.6-0.2l-0.1,0c0,0-0.1,0-0.1,0
	c-0.8-0.2-1.6-0.2-2.4,0.1c-0.8,0.2-1.4,0.7-1.9,1.3c-1.1-0.3-2.3-0.5-3.4-0.7C35.7,7.3,15.7,21.8,12.3,43c-0.4,2.7-0.6,5.4-0.4,8.1
	h0l0,0.4c0,0.1,0,0.2,0,0.3c0,0.4,0.1,0.8,0.1,1.2c0,0.1,0,0.2,0,0.3c0.2,1.4,0.4,2.8,0.7,4.2c0,0.2,0.1,0.3,0.1,0.5
	c0.1,0.4,0.2,0.7,0.3,1.1c0.1,0.2,0.1,0.4,0.2,0.6c0.1,0.4,0.2,0.7,0.3,1c0.1,0.2,0.1,0.4,0.2,0.6c0.1,0.3,0.2,0.6,0.3,1
	c0.1,0.3,0.2,0.5,0.3,0.8c0.1,0.3,0.2,0.5,0.3,0.8c0.5,1.1,1,2.2,1.5,3.2c0,0,0,0,0,0c1.5,2.8,3.2,5.4,5.3,7.7l0.1,0.1h0
	c5.7,6.4,13.6,11,22.8,12.4c2.1,0.3,4.1,0.5,6.2,0.5c6.7,0,13.2-1.8,19-5.1c2.6,2.2,5.8,3.8,9.5,4.4c0,0,0.1,0,0.1,0
	c0,0,0.1,0,0.1,0c0.7,0,1.2-0.5,1.4-1.1c0.1-0.4,0-0.7-0.2-1c-0.2-0.3-0.5-0.5-0.9-0.6c0,0,0,0,0,0c-2.7-0.5-5.3-1.6-7.4-3.2
	c0.4-0.3,0.8-0.5,1.2-0.8C81.9,74.5,87.5,65.5,89.1,55.2z"/>
<path id="Path" class="st1" d="M80.1,86.1c-0.1,0.3-0.3,0.5-0.6,0.5c0,0-0.1,0-0.1,0c-0.3-0.1-0.5-0.4-0.5-0.7
	c0.1-0.3,0.3-0.5,0.6-0.5c0,0,0.1,0,0.1,0C80,85.5,80.2,85.8,80.1,86.1z"/>
<path id="Fill-5" class="st1" d="M64.3,65.8c-0.5-0.6-0.8-1.3-0.9-2c-1.7,10.2,4.8,20,14.8,22.5c0-0.2,0-0.3,0-0.5
	c0-0.2,0.1-0.4,0.3-0.6C69.7,82.9,63.7,74.7,64.3,65.8"/>
<path id="Fill-6" class="st1" d="M70.3,26.5l-1.3,7c0.3,1,0.3,2.1-0.2,3.2l-0.7,1.6l-2.4,13.1c0.4-0.2,0.8-0.4,1.2-0.5l0.3-1.5
	c-0.3-0.6-0.5-1.2-0.5-1.8v-0.4c0-1.2,0.6-2.3,1.4-3.1l3.1-16.8C70.9,27.1,70.5,26.9,70.3,26.5"/>
<path id="Fill-7" class="st1" d="M65.4,59.3l0.1-0.5c-0.4-0.3-0.7-0.6-1-0.9L64,60.6C64.3,60.1,64.8,59.6,65.4,59.3"/>
<path id="Fill-9" class="st1" d="M73,13.4l3.1-7.6C76.5,5,76.6,4,76.3,3.2c-0.3-0.9-0.9-1.5-1.7-2c-0.8-0.4-1.7-0.5-2.6-0.2
	c-0.9,0.3-1.6,1-2,1.9l1.5,4.6l-0.8,0.3l-1.5-4.6c-0.8-0.5-1.8-0.6-2.7-0.3c-1.8,0.6-2.7,2.5-2.2,4.2c0.2,0.6,0.6,1.2,1.1,1.6
	c0,0,0,0,0,0l0,0C65.7,8.8,65.9,8.9,66,9L73,13.4z"/>
<path id="Fill-10" class="st1" d="M80.4,18.9l-7-4.3l-3.1,7.6c-0.1,0.2-0.2,0.3-0.2,0.5l0,0c0,0,0,0,0,0c-0.2,0.7-0.2,1.3,0,2
	c0.6,1.8,2.5,2.7,4.2,2.2c0.9-0.3,1.6-1,2-1.9L75,20.6l0.4-0.1l0.4-0.1l1.5,4.5c0.8,0.5,1.8,0.6,2.7,0.3c1.8-0.6,2.7-2.5,2.2-4.2
	C81.8,20.1,81.2,19.4,80.4,18.9"/>
<path id="Fill-11" class="st1" d="M73.9,13.8l7.6,3.1c0.8,0.4,1.8,0.5,2.6,0.2h0c0.9-0.3,1.5-0.9,2-1.7c0.4-0.8,0.5-1.7,0.2-2.6
	c-0.3-0.9-1-1.6-1.9-2l-4.7,1.5l-0.1-0.4l-0.1-0.4l4.7-1.5c0.5-0.8,0.6-1.8,0.3-2.7c-0.3-0.9-0.9-1.5-1.7-2C82,4.9,81,4.8,80.2,5.1
	c-0.6,0.2-1.2,0.6-1.6,1.1c0,0,0,0,0,0l0,0c-0.1,0.2-0.2,0.3-0.3,0.5L73.9,13.8z"/>
<path id="Fill-12" class="st1" d="M60.5,12.6c-0.4,0.8-0.5,1.7-0.2,2.6c0.3,0.9,1,1.6,1.9,2l4.7-1.5L67,16l0.1,0.4L62.4,18
	c-0.5,0.8-0.6,1.8-0.3,2.7c0.6,1.8,2.5,2.7,4.2,2.2c0.9-0.3,1.6-0.9,2-1.7l4.3-7L65,11.1c-0.2-0.1-0.3-0.1-0.5-0.2l0,0
	c0,0-0.1,0-0.1,0c-0.3-0.1-0.6-0.1-0.9-0.1c-0.4,0-0.7,0.1-1.1,0.2C61.6,11.2,60.9,11.8,60.5,12.6"/>
</svg>
