<?xml version="1.0" encoding="utf-8"?>
<!-- Generator: Adobe Illustrator 22.1.0, SVG Export Plug-In . SVG Version: 6.00 Build 0)  -->
<svg version="1.1" id="Calque_1" xmlns="http://www.w3.org/2000/svg" xmlns:xlink="http://www.w3.org/1999/xlink" x="0px" y="0px"
	 viewBox="0 0 45 45" style="enable-background:new 0 0 45 45;" xml:space="preserve">
<style type="text/css">
	.st0{fill:none;}
</style>
<title>icon_profile_situation-coloc</title>
<desc>Created with Sketch.</desc>
<g id="UI">
	<g id="HUTTE_UI-kit_atomes" transform="translate(-970.000000, -816.000000)">
		<g id="icon_profile_situation-coloc" transform="translate(970.000000, 810.000000)">
			<rect id="Rectangle" y="2" class="st0" width="45" height="49"/>
			<path d="M27.8,13.1c0.7-2.9,3.4-5.1,6.5-5.1C38,8,41,11,41,14.7c0,2.1-1,4-2.5,5.2c3.8,1.6,6.4,5.4,6.4,9.8v15.4c0,2.2-1.8,4-4,4
				h-6.3V34.4c0-4.2-2.1-8-5.5-10.2c1-1.4,1.5-3,1.5-4.8C30.8,16.9,29.6,14.6,27.8,13.1z M17.2,13.1c-1.8,1.5-3,3.8-3,6.4
				c0,1.8,0.5,3.4,1.5,4.8c-3.4,2.2-5.5,6-5.5,10.2v14.7H4c-2.2,0-4-1.8-4-4V29.7c0-4.4,2.6-8.2,6.4-9.8c-1.5-1.2-2.5-3.1-2.5-5.2
				c0-3.7,3-6.7,6.7-6.7C13.8,8,16.5,10.2,17.2,13.1z M8.1,16.3c0.5,0,1-0.4,1-1s-0.4-1-1-1s-1,0.4-1,1S7.5,16.3,8.1,16.3z
				 M31.8,16.3c0.5,0,1-0.4,1-1s-0.4-1-1-1c-0.5,0-1,0.4-1,1S31.2,16.3,31.8,16.3z M12.8,16.3c0.5,0,1-0.4,1-1s-0.4-1-1-1
				c-0.5,0-1,0.4-1,1S12.3,16.3,12.8,16.3z M36.5,16.3c0.5,0,1-0.4,1-1s-0.4-1-1-1s-1,0.4-1,1S36,16.3,36.5,16.3z M18.3,24.7
				c-1.5-1.2-2.5-3.1-2.5-5.2c0-3.7,3-6.7,6.7-6.7s6.7,3,6.7,6.7c0,2.1-1,4-2.5,5.2c3.8,1.6,6.4,5.4,6.4,9.8v14.7H11.8V34.4
				C11.8,30.1,14.5,26.3,18.3,24.7z M19.9,21.8c0.5,0,1-0.4,1-1s-0.4-1-1-1c-0.5,0-1,0.4-1,1S19.4,21.8,19.9,21.8z M25.5,21.8
				c0.5,0,1-0.4,1-1s-0.4-1-1-1c-0.5,0-1,0.4-1,1S24.9,21.8,25.5,21.8z"/>
		</g>
	</g>
</g>
</svg>
