<svg xmlns="http://www.w3.org/2000/svg" width="60" height="60" viewBox="0 0 60 60">
    <g fill="#fff" fill-rule="nonzero">
        <path d="M30 0C13.431 0 0 13.431 0 30c0 16.569 13.431 30 30 30 16.569 0 30-13.431 30-30A30 30 0 0 0 30 0zM17.49 55.61A28.55 28.55 0 0 1 7 46.82v-5.63a10.9 10.9 0 0 1 6.57-10 6.86 6.86 0 1 1 10.73-7.74 8.47 8.47 0 0 0-1.21 11.16A12.5 12.5 0 0 0 17.49 45v10.61zm23.4.73a28.53 28.53 0 0 1-21.78 0V45a10.89 10.89 0 0 1 6.57-10 6.86 6.86 0 1 1 8.64 0 10.89 10.89 0 0 1 6.57 10v11.34zm1.62-.73V45a12.5 12.5 0 0 0-5.6-10.43 8.47 8.47 0 0 0-1.21-11.12 6.85 6.85 0 1 1 10.73 7.74 10.9 10.9 0 0 1 6.57 10v5.63a28.55 28.55 0 0 1-10.49 8.79z"/>
        <path d="M15.27 26.46a1 1 0 1 0 0 2 1 1 0 0 0 0-2zM21.12 27.46a1 1 0 1 0-2 0 1 1 0 0 0 2 0z"/>
        <circle cx="44.32" cy="27.46" r="1.01"/>
        <path d="M39.48 26.46a1 1 0 1 0 0 2 1 1 0 0 0 0-2zM33 30.11a1 1 0 1 0 0 2 1 1 0 0 0 0-2z"/>
        <circle cx="27.38" cy="31.11" r="1.01"/>
    </g>
</svg>
