<?xml version="1.0" encoding="utf-8"?>
<!-- Generator: Adobe Illustrator 19.2.1, SVG Export Plug-In . SVG Version: 6.00 Build 0)  -->
<svg version="1.1" id="Calque_1" xmlns="http://www.w3.org/2000/svg" xmlns:xlink="http://www.w3.org/1999/xlink" x="0px" y="0px"
	 viewBox="0 0 42 42" style="enable-background:new 0 0 42 42;" xml:space="preserve">
<style type="text/css">
	.st0{fill:#FFFFFF;stroke:#000000;}
</style>
<path class="st0" d="M22,41.5C10.5,41.5,0.5,32.2,0.5,21C0.5,9.7,9.7,0.5,21,0.5S41.5,9.7,41.5,21C41.5,32.5,33.1,41.5,22,41.5z"/>
<g>
	<path d="M39.2,30.9v-2c0-3.5-2.1-6.4-5.1-7.7c1.2-1,2-2.5,2-4.1c0-2.9-2.4-5.3-5.3-5.3c-2.5,0-4.6,1.7-5.1,4c1.4,1.2,2.3,3,2.3,5
		c0,1.4-0.4,2.7-1.2,3.8c2.7,1.8,4.3,4.8,4.3,8.1v6.7C34.6,37.4,37.4,34.5,39.2,30.9z M28.8,18.2c-0.4,0-0.8-0.3-0.8-0.8
		s0.3-0.8,0.8-0.8c0.4,0,0.8,0.3,0.8,0.8S29.2,18.2,28.8,18.2z M32.5,16.7c0.4,0,0.8,0.3,0.8,0.8s-0.3,0.8-0.8,0.8
		c-0.4,0-0.8-0.3-0.8-0.8S32.1,16.7,32.5,16.7z"/>
	<path d="M26.4,41c1.2-0.3,2.3-0.6,3.4-1.1v-7.3c0-3.5-2.1-6.4-5.1-7.7c1.2-1,2-2.5,2-4.1c0-2.9-2.4-5.3-5.3-5.3s-5.3,2.4-5.3,5.3
		c0,1.7,0.8,3.1,2,4.1c-3,1.3-5.1,4.3-5.1,7.7v7c1.4,0.6,2.8,1.1,4.3,1.5H26.4z M23.8,21c0.4,0,0.8,0.3,0.8,0.8
		c0,0.4-0.3,0.8-0.8,0.8c-0.4,0-0.8-0.3-0.8-0.8C23,21.4,23.4,21,23.8,21z M19.4,21c0.4,0,0.8,0.3,0.8,0.8c0,0.4-0.3,0.8-0.8,0.8
		c-0.4,0-0.8-0.3-0.8-0.8C18.6,21.4,19,21,19.4,21z"/>
	<path d="M11.8,38.9v-6.4c0-3.3,1.7-6.3,4.3-8.1c-0.8-1.1-1.2-2.4-1.2-3.8c0-2,0.9-3.8,2.3-5c-0.6-2.3-2.7-4-5.1-4
		c-2.9,0-5.3,2.4-5.3,5.3c0,1.7,0.8,3.1,2,4.1c-3,1.3-5.1,4.3-5.1,7.7v2.7C5.7,34.6,8.5,37.2,11.8,38.9z M13.8,16.7
		c0.4,0,0.8,0.3,0.8,0.8s-0.3,0.8-0.8,0.8c-0.4,0-0.8-0.3-0.8-0.8S13.4,16.7,13.8,16.7z M10.1,16.7c0.4,0,0.8,0.3,0.8,0.8
		s-0.3,0.8-0.8,0.8c-0.4,0-0.8-0.3-0.8-0.8S9.6,16.7,10.1,16.7z"/>
</g>
</svg>
