<?xml version="1.0" encoding="utf-8"?>
<!-- Generator: Adobe Illustrator 22.1.0, SVG Export Plug-In . SVG Version: 6.00 Build 0)  -->
<svg version="1.1" id="Calque_1" xmlns="http://www.w3.org/2000/svg" xmlns:xlink="http://www.w3.org/1999/xlink" x="0px" y="0px"
	 viewBox="0 0 45 45" style="enable-background:new 0 0 45 45;" xml:space="preserve">
<style type="text/css">
	.st0{fill:none;}
</style>
<title>icon_profile_situation-couple</title>
<desc>Created with Sketch.</desc>
<g id="UI">
	<g id="HUTTE_UI-kit_atomes" transform="translate(-828.000000, -810.000000)">
		<g id="icon_profile_situation-couple" transform="translate(825.000000, 810.000000)">
			<rect id="Rectangle" x="3" class="st0" width="45" height="45"/>
			<path fill="#fff" id="Combined-Shape" d="M30.6,20c-1.5-1.2-2.5-3.1-2.5-5.2c0-3.7,3-6.7,6.7-6.7s6.7,3,6.7,6.7c0,2.1-1,4-2.5,5.2
				c3.8,1.6,6.4,5.4,6.4,9.8v11.7c0,1.1-0.9,2-2,2H24.2V29.8C24.2,25.4,26.8,21.6,30.6,20z M31.5,17.1c0.5,0,1-0.4,1-1
				c0-0.5-0.4-1-1-1c-0.5,0-1,0.4-1,1S30.9,17.1,31.5,17.1z M36.2,17.1c0.5,0,1-0.4,1-1c0-0.5-0.4-1-1-1s-1,0.4-1,1
				S35.7,17.1,36.2,17.1z"/>
			<path fill="#fff" id="Combined-Shape_1_" d="M24.7,22.8c-1.4,2-2.2,4.4-2.2,6.9v13.7H8c-1.1,0-2-0.9-2-2V29.7c0-4.4,2.6-8.2,6.4-9.8
				c-1.5-1.2-2.5-3.1-2.5-5.2c0-3.7,3-6.7,6.7-6.7s6.7,3,6.7,6.7c0,2.1-1,4-2.5,5.2C22.4,20.6,23.7,21.6,24.7,22.8z M15.7,17.1
				c0.5,0,1-0.4,1-1c0-0.5-0.4-1-1-1c-0.5,0-1,0.4-1,1C14.7,16.7,15.1,17.1,15.7,17.1z M20.4,17.1c0.5,0,1-0.4,1-1c0-0.5-0.4-1-1-1
				c-0.5,0-1,0.4-1,1S19.9,17.1,20.4,17.1z"/>
			<path fill="#fff" id="Combined-Shape_2_" d="M28,0c1.3,0,2.4,1.2,2.4,2.5c0,0.9-1.6,4.2-4.7,9.9c-3.1-5.7-4.7-9-4.7-9.9C21,1.2,22.1,0,23.4,0
				c1.1,0,2,0.7,2.3,1.6C26.1,0.7,27,0,28,0z"/>
		</g>
	</g>
</g>
</svg>
