<svg xmlns="http://www.w3.org/2000/svg" width="120" height="120" viewBox="0 0 120 120">
    <g fill="#FFF" fill-rule="evenodd">
        <path d="M74.3 60.92a2.32 2.32 0 1 0 0 4.64 2.32 2.32 0 0 0 0-4.64zM85.38 60.92a2.32 2.32 0 1 0 0 4.64 2.32 2.32 0 0 0 0-4.64zM37.38 60.92a2.32 2.32 0 1 0 0 4.64 2.32 2.32 0 0 0 0-4.64zM50.76 63.24a2.3 2.3 0 1 0-4.6 0 2.3 2.3 0 0 0 4.6 0z"/>
        <path d="M110.62 92.22a59.64 59.64 0 0 0 8-19.12.72.72 0 0 0 0-.22c.3-1.34.56-2.68.76-4a1.18 1.18 0 0 1 0-.28c.16-1.18.28-2.38.38-3.58v-.96c0-1.32.14-2.62.14-4A60 60 0 0 0 50.86.7c-2 .3-4 .7-5.86 1.18a59.6 59.6 0 0 0-8.36 2.84c-1.78.76-3.54 1.6-5.24 2.52a56 56 0 0 0-4.94 3 58.76 58.76 0 0 0-6.8 5.34 60.76 60.76 0 0 0-6 6.26 60.392 60.392 0 0 0-3.46 4.62A59.74 59.74 0 0 0 0 60v3.92c0 .66 0 1.32.16 2 .16.68 0 .76.12 1.14.12.38.14 1.16.22 1.74.08.58.14.8.2 1.2.06.4.18 1.1.3 1.64l.24 1.22c.12.52.24 1.06.38 1.58l.3 1.2c.14.52.3 1.04.44 1.56l.36 1.16c.16.52.34 1.04.52 1.56l.4 1.12.62 1.56.42 1.04c.24.56.5 1.1.76 1.66.26.56.26.6.4.88.34.72.7 1.4 1.08 2 .059.13.126.258.2.38.44.813.9 1.613 1.38 2.4.14.26.3.48.46.72.333.56.673 1.1 1.02 1.62l.62.88.98 1.38.7.92c.34.44.66.86 1 1.26.34.4.5.62.76.92.26.3.38.48.58.7a59.86 59.86 0 0 0 38.92 20.28h.16c1.12.12 2.24.22 3.38.26H60a59.88 59.88 0 0 0 47.08-22.72 2.54 2.54 0 0 0 .26-.38c1.02-1.28 2-2.62 2.86-4 .14-.18.3-.38.42-.58zm-55.1-73.76a5.66 5.66 0 0 1 5.4 3.76 5.66 5.66 0 0 1 5.4-3.76A5.8 5.8 0 0 1 72 24.2c0 2.227-3.693 9.913-11.08 23.06C53.533 34.1 49.84 26.413 49.84 24.2a5.8 5.8 0 0 1 5.68-5.74zm-40.74 76.2A24.96 24.96 0 0 1 29.8 72.18a15.7 15.7 0 1 1 19.78 0 25.26 25.26 0 0 1 9.02 6.66 28.52 28.52 0 0 0-5.06 16.24v21.54a57.02 57.02 0 0 1-38.76-21.96zM60 117h-2.76V95.08a24.7 24.7 0 0 1 4-13.44c.18-.28.36-.56.56-.82l.48-.7.62-.78.56-.66L64 78l.6-.62.72-.68.64-.56c.26-.22.52-.44.8-.64a7.84 7.84 0 0 1 .64-.5 8.54 8.54 0 0 1 .88-.6l.64-.44 1.02-.6.6-.32c.5-.28 1.04-.52 1.56-.76h.12A15.58 15.58 0 0 1 66.46 60a14 14 0 0 1 0-1.6c.858-7.975 7.589-14.021 15.61-14.021 8.021 0 14.752 6.046 15.61 14.021a14 14 0 0 1 0 1.6A15.62 15.62 0 0 1 92 72.18a24.94 24.94 0 0 1 14.4 17.28c.221.935.382 1.884.48 2.84A56.98 56.98 0 0 1 60 117z"/>
    </g>
</svg>
