<?xml version="1.0" encoding="utf-8"?>
<!-- Generator: Adobe Illustrator 19.2.1, SVG Export Plug-In . SVG Version: 6.00 Build 0)  -->
<svg version="1.1" id="Calque_1" xmlns="http://www.w3.org/2000/svg" xmlns:xlink="http://www.w3.org/1999/xlink" x="0px" y="0px"
	 viewBox="0 0 42 42" style="enable-background:new 0 0 42 42;" xml:space="preserve">
<style type="text/css">
	.st0{fill:#FFFFFF;stroke:#000000;}
</style>
<path class="st0" d="M22,41.5C10.5,41.5,0.5,32.2,0.5,21C0.5,9.7,9.7,0.5,21,0.5S41.5,9.7,41.5,21C41.5,32.5,33.1,41.5,22,41.5z"/>
<path d="M20.5,27.3c-0.8-1-1.9-1.7-3-2.2c1.7-1.4,2.4-3.7,1.6-5.8c-0.7-2.1-2.7-3.5-4.9-3.5c-2.2,0-4.2,1.4-4.9,3.5
	c-0.7,2.1-0.1,4.4,1.6,5.8c-3,1.3-5,4.2-5,7.5c0,0.2,0,0.8,0,1.8c3.3,3.6,7.9,6.1,12.9,6.9v-8.5C18.9,30.8,19.4,28.9,20.5,27.3z
	 M13.5,22.8c-0.4,0-0.8-0.3-0.8-0.8c0-0.4,0.3-0.8,0.8-0.8c0.4,0,0.8,0.3,0.8,0.8C14.2,22.5,13.9,22.8,13.5,22.8z M16.4,22.1
	c0-0.4,0.3-0.8,0.8-0.8c0.4,0,0.8,0.3,0.8,0.8c0,0.4-0.3,0.8-0.8,0.8C16.7,22.8,16.4,22.5,16.4,22.1z"/>
<path d="M25,9.1c0-1-0.8-1.9-1.9-1.9c-0.8,0-1.5,0.5-1.8,1.3c-0.3-0.8-1-1.3-1.8-1.3c-1,0-1.9,0.9-1.9,1.9c0,0.7,1.2,3.3,3.7,7.7
	C23.8,12.4,25,9.8,25,9.1z"/>
<path d="M36.5,34.8c0-2.3,0-3.9-0.1-4c-0.6-2.6-2.4-4.7-4.8-5.8c1.2-1,1.9-2.5,1.9-4.1c0-0.2,0-0.4,0-0.5c-0.3-2.7-2.5-4.7-5.2-4.7
	c-2.7,0-4.9,2-5.2,4.7c0,0.2,0,0.4,0,0.5c0,1.6,0.7,3.1,1.9,4.1h0c-0.2,0.1-0.4,0.2-0.5,0.3l-0.2,0.1L24,25.7l-0.2,0.1
	c-0.1,0.1-0.2,0.1-0.3,0.2c-0.1,0.1-0.1,0.1-0.2,0.2c-0.1,0.1-0.2,0.1-0.3,0.2l-0.2,0.2l-0.2,0.2L22.4,27l-0.2,0.2L22,27.5l-0.2,0.3
	L21.6,28c-0.1,0.1-0.1,0.2-0.2,0.3c-0.9,1.3-1.3,2.9-1.3,4.5v8.7c0.6,0.1,1.3,0.1,1.9,0.1C27.9,41.5,33,38.9,36.5,34.8z M29.5,21.3
	c0.4,0,0.8,0.3,0.8,0.8c0,0.4-0.3,0.8-0.8,0.8c-0.4,0-0.8-0.3-0.8-0.8C28.7,21.6,29,21.3,29.5,21.3z M25,22.1c0-0.4,0.3-0.8,0.8-0.8
	c0.4,0,0.8,0.3,0.8,0.8c0,0.4-0.3,0.8-0.8,0.8C25.3,22.8,25,22.5,25,22.1z"/>
</svg>
