<?xml version="1.0" encoding="utf-8"?>
<!-- Generator: Adobe Illustrator 19.2.1, SVG Export Plug-In . SVG Version: 6.00 Build 0)  -->
<svg version="1.1" id="Calque_1" xmlns="http://www.w3.org/2000/svg" xmlns:xlink="http://www.w3.org/1999/xlink" x="0px" y="0px"
	 viewBox="0 0 42 42" style="enable-background:new 0 0 42 42;" xml:space="preserve">
<style type="text/css">
	.st0{fill:#FFFFFF;}
	.st1{fill:#FFFFFF;stroke:#000000;}
</style>
<g>
	<path id="path-3" class="st0" d="M18.1,24.8c-1.2-1-2-2.5-2-4.1c0-2.9,2.4-5.3,5.3-5.3s5.3,2.4,5.3,5.3c0,1.7-0.8,3.1-2,4.1
		c3,1.3,5.1,4.3,5.1,7.7V41H13v-8.4C13,29.1,15.1,26.1,18.1,24.8z M19.8,22.6c0.4,0,0.8-0.3,0.8-0.8c0-0.4-0.3-0.8-0.8-0.8
		c-0.4,0-0.8,0.3-0.8,0.8C19,22.2,19.3,22.6,19.8,22.6z M23.3,22.6c0.4,0,0.8-0.3,0.8-0.8c0-0.4-0.3-0.8-0.8-0.8
		c-0.4,0-0.8,0.3-0.8,0.8C22.5,22.2,22.8,22.6,23.3,22.6z"/>
</g>
<title>profil-situation-solo</title>
<desc>Created with Sketch.</desc>
<path class="st1" d="M22,41.5C10.5,41.5,0.5,32.2,0.5,21C0.5,9.7,9.7,0.5,21,0.5S41.5,9.7,41.5,21C41.5,32.5,33.1,41.5,22,41.5z"/>
<path d="M22,41.5c2.8,0,5.5-0.6,7.9-1.6v-7.3c0-3.5-2.1-6.4-5.1-7.7c1.2-1,2-2.5,2-4.1c0-2.9-2.4-5.3-5.3-5.3s-5.3,2.4-5.3,5.3
	c0,1.7,0.8,3.1,2,4.1c-3,1.3-5.1,4.3-5.1,7.7v7C15.8,40.8,18.8,41.5,22,41.5z M23.3,21c0.4,0,0.8,0.3,0.8,0.8c0,0.4-0.3,0.8-0.8,0.8
	c-0.4,0-0.8-0.3-0.8-0.8C22.5,21.4,22.8,21,23.3,21z M19.8,21c0.4,0,0.8,0.3,0.8,0.8c0,0.4-0.3,0.8-0.8,0.8c-0.4,0-0.8-0.3-0.8-0.8
	C19,21.4,19.3,21,19.8,21z"/>
</svg>
