<?xml version="1.0" encoding="utf-8"?>
<!-- Generator: Adobe Illustrator 22.1.0, SVG Export Plug-In . SVG Version: 6.00 Build 0)  -->
<svg version="1.1" id="Calque_1" xmlns="http://www.w3.org/2000/svg" xmlns:xlink="http://www.w3.org/1999/xlink" x="0px" y="0px"
	 viewBox="0 0 80 80" style="enable-background:new 0 0 80 80;" xml:space="preserve">
<style type="text/css">
	.st0{fill:#FFFFFF;}
</style>
<g>
	<circle class="st0" cx="40" cy="40" r="39.5"/>
	<path d="M40,1c21.5,0,39,17.5,39,39S61.5,79,40,79S1,61.5,1,40S18.5,1,40,1 M40,0C17.9,0,0,17.9,0,40s17.9,40,40,40s40-17.9,40-40
		S62.1,0,40,0L40,0z"/>
</g>
<title>icon/wheel_situation-solo</title>
<desc>Created with Sketch.</desc>
<g>
	<path d="M45.6,57.4l0-1c1.8,0,3.3-1.3,3.4-3.1l0-10c0-1.3-1.2-2.3-2.5-2.3c-1.3,0-2.8,1-2.8,2.3l0,1.6l0.1,1.1
		c0,1.3,0.7,1.9,1.8,1.9c0.9,0,1.4-0.8,1.4-1.7V44l1,0v2.2c0,1.5-0.9,2.7-2.4,2.7c-1.1,0-2.1-0.5-2.5-1.5c-0.3,0.2-0.7,0.3-1,0.4
		c-0.4,1-1.4,1.8-2.6,1.8l-3.5,0c-0.5,0-1,0.4-1,1l-1,0c0-1.1,0.9-2,2-2l3.5,0c1,0,1.8-0.8,1.8-1.8c0-1-0.8-1.8-1.8-1.8l-4.3,0
		c-3,0-5.5,2.5-5.5,5.5c0,3,2.5,5.5,5.5,5.5l0,1c-0.6,0-1.2-0.1-1.8-0.3l0.1,22.6c2.1,0.3,4.3,0.5,6.5,0.5c3.1,0,6.2-0.4,9.1-1.1
		l0.2-23.5C48.5,56.6,47.1,57.4,45.6,57.4z"/>
	<path d="M36.1,30.9c0-1.3-1-2.3-2.3-2.3c-1.3,0-2.3,1-2.3,2.3l0,14.4c0.9-0.7,2.1-1.1,3.3-1.2l0-3.3c0-1.2,0.5-2.3,1.3-2.9
		L36.1,30.9z"/>
	<path d="M35.8,40.8l0,3.3l3,0v-2.8c0-0.9,0.4-1.7,0.9-2.3c-0.4-0.5-1-0.8-1.7-0.8C36.9,38.2,35.8,39.3,35.8,40.8z"/>
	<path d="M42.1,39c-1.3,0-2.3,1-2.3,2.3v2.8c1.3,0.2,2.4,1.3,2.4,2.6c0.2-0.1,0.4-0.2,0.6-0.3c0-0.1,0-0.2,0-0.4L42.7,45l0-1.6
		c0-1.1,0.7-2.1,1.7-2.7C44.1,39.7,43.2,39,42.1,39z"/>
</g>
</svg>
