<?xml version="1.0" encoding="utf-8"?>
<!-- Generator: Adobe Illustrator 22.1.0, SVG Export Plug-In . SVG Version: 6.00 Build 0)  -->
<svg version="1.1" id="Calque_1" xmlns="http://www.w3.org/2000/svg" xmlns:xlink="http://www.w3.org/1999/xlink" x="0px" y="0px"
	 viewBox="0 0 80 80" style="enable-background:new 0 0 80 80;" xml:space="preserve">
<style type="text/css">
	.st0{fill:#FFFFFF;}
	.st1{filter:url(#Adobe_OpacityMaskFilter);}
	.st2{mask:url(#mask-2_2_);}
</style>
<g>
	<circle class="st0" cx="40" cy="40" r="39.5"/>
	<path d="M40,1c21.5,0,39,17.5,39,39S61.5,79,40,79S1,61.5,1,40S18.5,1,40,1 M40,0C17.9,0,0,17.9,0,40s17.9,40,40,40s40-17.9,40-40
		S62.1,0,40,0L40,0z"/>
</g>
<title>icon/wheel_situation-coloc</title>
<desc>Created with Sketch.</desc>
<defs>
	<filter id="Adobe_OpacityMaskFilter" filterUnits="userSpaceOnUse">
		<feColorMatrix  type="matrix" values="1 0 0 0 0  0 1 0 0 0  0 0 1 0 0  0 0 0 1 0"/>
	</filter>
</defs>
<mask maskUnits="userSpaceOnUse" id="mask-2_2_">
	<g class="st1">
		<circle id="path-1_3_" class="st0" cx="40" cy="40" r="38"/>
	</g>
</mask>
<g id="Group_1_" class="st2">
	<g transform="translate(45.000000, 69.000000)">
	</g>
</g>
<polygon points="49.9,69 49.9,69 49.9,69 "/>
<g>
	<path d="M40.6,52.6l1-8.5c0.1-1.1-0.6-2-1.7-2.2c-1-0.1-2,0.6-2.1,1.7l-1.4,11.4l0.5,2.7l-1,0.2l-2.6-13.6
		c-0.2-1.1-1.2-1.7-2.2-1.5c-1,0.2-1.7,1.2-1.5,2.3l2.8,14.3c0.9-0.5,2-0.8,3.1-0.8l3.4,0l0-3.1C39,54.4,39.6,53.2,40.6,52.6z"/>
	<path d="M42.4,54.1c-1.4,0-2.5,1.1-2.5,2.6l0,3.1l0.1,0c1.5,0,2.7,1.2,2.9,2.7c0.3-0.2,0.5-0.4,0.6-0.7l-0.1-1.1l0-1.8
		c0-1.1,0.5-2.1,1.3-2.8C44.6,54.9,43.6,54.1,42.4,54.1z"/>
	<path d="M45.7,72.7l0-1c2,0,3.7-1.6,3.7-3.7l0,0l0.1-8.9l0,0l0-1.3c0-1.4-1.1-2.5-2.5-2.5c-1.4,0-2.5,1.1-2.5,2.6l0,1.7l0.1,1.2
		c0,1.4,0.8,2.1,1.9,2.1c1,0,1.7-0.9,1.7-1.9l-0.1-2.4l1,0l0.1,2.4c0,1.6-1.2,2.8-2.7,2.9c-1.3,0-2.3-0.7-2.7-1.8
		c-0.3,0.2-0.6,0.4-1,0.6c-0.4,1.2-1.4,2-2.7,2l-3.6,0c-0.6,0-1.1,0.5-1.1,1.1l-1,0c0-1.2,0.9-2.1,2.1-2.1l3.6,0
		c1,0,1.9-0.9,1.9-1.9c0-1.1-0.8-1.9-1.9-1.9l-4.5,0c-3.2,0-5.8,2.7-5.8,6c0,3.3,2.6,6,5.8,6l0,1c-0.7,0-1.3-0.1-1.9-0.3l0,6.1
		c2.1,0.3,4.2,0.5,6.3,0.5c3.2,0,6.3-0.4,9.3-1.1l0-7C48.5,72,47.2,72.7,45.7,72.7z"/>
	<path d="M33.3,30.9c0.5-0.1,1-0.3,1.3-0.7c0.9-0.9,0.9-2.4,0-3.3l-2.7-2.7c-0.1-0.1-0.3-0.3-0.5-0.3c-0.2,1.1-0.7,2.1-1.5,3
		l2.4,2.4C32.8,29.8,33.1,30.3,33.3,30.9z"/>
	<path d="M31.8,33.6c0.9-0.9,0.8-2.4-0.2-3.5l-2.3-2.3l-2.1,2.1l2,2c0.6,0.6,1,1.5,1,2.3C30.7,34.2,31.4,34,31.8,33.6z"/>
	<path d="M26.4,30.5c-1.1,0.8-2.6,0.8-3.6-0.2c-0.1,0.2-0.2,0.4-0.2,0.7c0.1,0.1,0.2,0.1,0.3,0.2l0.8,0.7l1.2,1.2
		c0.9,0.9,1.1,2.1,0.9,3.1c0.9,0.4,1.9,0.2,2.6-0.5c0.9-0.9,0.9-2.4,0-3.3L26.4,30.5z"/>
	<path d="M13.6,24.8l0.7,0.7c-1.4,1.3-1.4,3.5-0.1,4.9l0,0l6.2,6.3l0.5,0.5c0.9,0.9,2.4,0.9,3.3,0c0.9-0.9,0.9-2.4,0-3.3l-1.1-1.1
		L22.2,32c-0.9-0.9-1.9-0.8-2.6-0.1c-0.6,0.7-0.6,1.7,0.1,2.3l1.6,1.5l-0.7,0.7L19,35c-1.1-1-1.1-2.7-0.1-3.7
		c0.8-0.8,1.8-1.1,2.8-0.7c0.1-0.4,0.2-0.7,0.5-1c-0.5-1-0.3-2.2,0.6-3.1l2.4-2.4c0.4-0.4,0.4-1,0-1.4l0.7-0.7c0.8,0.8,0.8,2,0,2.8
		l-2.4,2.4c-0.7,0.7-0.7,1.8,0,2.5c0.7,0.7,1.8,0.7,2.5,0l3-3c2.1-2.2,2.1-5.6,0-7.8c-2.2-2.1-5.6-2.1-7.8,0l-0.7-0.7
		c0.4-0.4,0.9-0.8,1.5-1.1l-7.7-7.6c-3.8,3.2-7,7.1-9.4,11.5l7.5,7.6C12.2,27.2,12.6,25.8,13.6,24.8z"/>
	<path d="M64.3,17.1l-0.7,0.7c-1.6-1.6-4.1-1.5-6.3,0.1l-9.6,5.9c-1,0.6-1.3,1.8-0.8,2.7c0.5,0.9,1.8,1.1,2.8,0.5l6.2-3.9l0.3-0.2
		l0.3,0.3c1.9,1.9,4.9,1.9,6.8,0l0.7,0.7c-2.2,2.2-5.6,2.3-7.9,0.3l-2.4,1.5l-1.6,1l-6.5,6.5c-0.7,0.7-0.7,1.9,0,2.6
		c0.7,0.7,1.9,0.7,2.6,0l7.3-7.3l0.7,0.7L49,36.5c-0.5,0.5-1.2,0.8-1.9,0.8c-0.3,0.7-0.2,1.6,0.4,2.1c0.7,0.7,1.9,0.7,2.6,0l8.2-8.2
		L59,32l-8.1,8.1c-0.1,0.5,0.1,1.1,0.5,1.5c0.7,0.7,1.9,0.7,2.6,0l7-7c0.1-0.1,0.2-0.2,0.2-0.3L62,35c-0.1,0.1-0.1,0.2-0.2,0.3
		l-6.3,6.3c0.1,0.3,0.2,0.7,0.5,0.9c0.7,0.7,1.9,0.7,2.6,0l5.4-5.4l6.9-7.1c1.4-1.4,1.4-3.7-0.1-5.1l0.7-0.7c1.1,1.1,1.5,2.6,1.3,4
		l3.9-3.9c-2.1-4.8-5.1-9.2-8.8-12.8l-4.8,4.8C63.5,16.5,63.9,16.7,64.3,17.1z"/>
</g>
<polygon points="71.3,30.3 71.3,30.3 71.3,30.3 "/>
</svg>
