<?xml version="1.0" encoding="utf-8"?>
<!-- Generator: Adobe Illustrator 22.1.0, SVG Export Plug-In . SVG Version: 6.00 Build 0)  -->
<svg version="1.1" id="Calque_1" xmlns="http://www.w3.org/2000/svg" xmlns:xlink="http://www.w3.org/1999/xlink" x="0px" y="0px"
	 viewBox="0 0 80 80" style="enable-background:new 0 0 80 80;" xml:space="preserve">
<style type="text/css">
	.st0{fill:#FFFFFF;}
</style>
<g>
	<circle class="st0" cx="40" cy="40" r="39.5"/>
	<path d="M40,1c21.5,0,39,17.5,39,39S61.5,79,40,79S1,61.5,1,40S18.5,1,40,1 M40,0C17.9,0,0,17.9,0,40s17.9,40,40,40s40-17.9,40-40
		S62.1,0,40,0L40,0z"/>
</g>
<title>icon/wheel_situation-couple</title>
<desc>Created with Sketch.</desc>
<path d="M43.7,12.6c0-1.7-1.4-3.1-3.1-3.1c-1.4,0-2.5,0.9-3,2.1c-0.4-1.2-1.6-2.1-3-2.1c-1.7,0-3.1,1.5-3.1,3.1
	c0,1.2,2,5.4,6.1,12.6C41.7,18.1,43.7,13.8,43.7,12.6z"/>
<path d="M21.3,43.8l0.4,0.4l0.4,0.4c-0.1,0.1-0.3,0.3-0.4,0.5c-1.1,1.5-1.1,3.5-0.1,4.9c0.1,0.2,0.2,0.3,0.4,0.5l0,0l2.5,2.5
	l0.3-0.3c1.2-1.2,3.1-1.2,4.2,0c0.6,0.6,0.9,1.4,0.9,2.2c0.5,0.1,0.9,0.4,1.3,0.8c0.5,0.5,0.8,1.1,0.8,1.7c0.6,0.1,1.2,0.4,1.7,0.8
	c0.4,0.4,0.7,1,0.8,1.5c0,0.1,0,0.2,0,0.3c0.6,0.1,1.2,0.4,1.7,0.8c1.2,1.2,1.2,3,0,4.2l0.2,0.2c0.8,0.8,2,0.8,2.7,0
	c0.3-0.3,0.5-0.7,0.5-1.1c-0.1-0.1-0.3-0.2-0.4-0.3l-3.9-3.9l-0.3-0.3l0.4-0.4l0,0l0.4-0.4l0.1,0.1l4.1,4.1c0.8,0.8,2,0.8,2.7,0
	c0.5-0.5,0.7-1.1,0.5-1.8c0,0,0,0-0.1,0l-4-4l-0.5-0.5l0.7-0.7l0.1,0.1l4.5,4.5c0.8,0.8,2,0.8,2.7,0c0.5-0.5,0.7-1.2,0.5-1.9
	c-0.1-0.1-0.3-0.2-0.4-0.3L42.8,54l0.2-0.2l0,0l0.1-0.1v0h0l0.4-0.4l4.2,4.2c0.8,0.8,2,0.8,2.7,0c0.8-0.8,0.8-2,0-2.7l-8.2-8.2
	l-0.3-0.3c-0.5,0.2-1.1,0.3-1.6,0.3c-0.9,0-1.7-0.2-2.4-0.7l-2.7,2.7l-2.8,2.9c-0.7,0.7-1.6,1-2.5,1.1c-0.9,0-1.7-0.3-2.4-0.9
	c-1.3-1.3-1.2-3.4,0.2-4.8l9.2-9.2l-1-1c-0.8-0.8-1.9-1.2-2.9-1.2c-0.3,0-0.5,0-0.8,0.1l-0.3,0.1L10,13.5c-4,4.5-7,10-8.6,16
	l18.4,18.6C19.6,46.6,20.1,45,21.3,43.8z"/>
<path d="M46,35.8l-0.4,0.4l-0.1,0.1l0-0.1l-0.4,0.4c-0.8-0.8-1.8-1.2-2.9-1.2c-1.1,0-2.1,0.4-2.9,1.2L28.4,47.4c-1,1-1,2.4-0.2,3.3
	c0.8,0.8,2.3,0.8,3.3-0.2l6.3-6.3l0.4,0.4c1.3,1.3,3.9,0.9,5.9-1l0.4,0.4l0-0.1l0.1,0.1l0.4,0.4c-0.6,0.6-1.2,1-1.9,1.4l7.6,7.6
	l2.8-2.9l0,0c0.1-0.1,0.3-0.3,0.4-0.5c1.1-1.5,1.1-3.5-0.1-4.9c-0.1-0.2-0.2-0.3-0.4-0.5l0.4-0.4l0.4-0.4c1.2,1.2,1.7,2.9,1.5,4.5
	L77.5,26c-2.1-5.7-5.5-10.7-9.8-14.9L44.3,34.6C44.9,34.8,45.5,35.2,46,35.8z"/>
<path d="M34.6,60.9c-0.1,0.5-0.4,1.1-0.8,1.5l-0.9,0.9c-0.1,0.1-0.3,0.3-0.5,0.4c0.1,0.2,0.2,0.4,0.4,0.5c0.8,0.8,2,0.8,2.7,0
	c0.8-0.8,0.8-2,0-2.7C35.3,61.1,35,61,34.6,60.9z"/>
<path d="M33,58.9c-0.3-0.3-0.6-0.4-1-0.5c-0.1,0.5-0.4,0.9-0.7,1.3l-1,1c-0.4,0.4-0.9,0.6-1.4,0.8c0.1,0.4,0.2,0.7,0.5,1
	c0.7,0.7,1.9,0.7,2.7,0l0.9-0.9C33.7,60.8,33.7,59.6,33,58.9z"/>
<path d="M30.6,59c0.8-0.8,0.8-2,0-2.8c-0.2-0.2-0.5-0.4-0.8-0.5c-0.1,0.4-0.4,0.8-0.7,1.1l-0.8,0.8c-0.6,0.6-1.3,0.8-2,0.9
	c0,0.5,0.2,1.1,0.6,1.5c0.8,0.8,2,0.8,2.8,0L30.6,59z"/>
<path d="M28.3,56c0.8-0.8,0.8-2,0-2.7c-0.8-0.8-2-0.8-2.7,0l-0.8,0.8c-0.8,0.8-0.8,2,0,2.7c0.8,0.8,2,0.8,2.7,0L28.3,56z"/>
</svg>
