<?xml version="1.0" encoding="utf-8"?>
<!-- Generator: Adobe Illustrator 22.1.0, SVG Export Plug-In . SVG Version: 6.00 Build 0)  -->
<svg version="1.1" id="Calque_1" xmlns="http://www.w3.org/2000/svg" xmlns:xlink="http://www.w3.org/1999/xlink" x="0px" y="0px"
	 viewBox="0 0 265 140" style="enable-background:new 0 0 265 140;" xml:space="preserve">
<style type="text/css">
	.st0{stroke:#000000;}
	.st1{filter:url(#Adobe_OpacityMaskFilter);}
	.st2{fill:#FFFFFF;}
	.st3{mask:url(#mask-2_1_);fill:#FFFFFF;}
	.st4{filter:url(#Adobe_OpacityMaskFilter_1_);}
	.st5{mask:url(#mask-2_2_);}
	.st6{fill:#FF9F00;}
</style>
<title>Group 4</title>
<desc>Created with Sketch.</desc>
<g id="Group" transform="translate(74.000000, 28.000000)">
	<circle class="st0" cx="60" cy="51" r="60.5"/>
	<defs>
		<filter id="Adobe_OpacityMaskFilter" filterUnits="userSpaceOnUse" x="52" y="72" width="13" height="46">
			<feColorMatrix  type="matrix" values="1 0 0 0 0  0 1 0 0 0  0 0 1 0 0  0 0 0 1 0"/>
		</filter>
	</defs>
	<mask maskUnits="userSpaceOnUse" x="52" y="72" width="13" height="46" id="mask-2_1_">
		<g class="st1">
			<circle id="path-1_1_" class="st2" cx="60" cy="51" r="60"/>
		</g>
	</mask>
	<polygon id="Path" class="st3" points="52,72 52,118 65,118 65,72 	"/>
	<defs>
		<filter id="Adobe_OpacityMaskFilter_1_" filterUnits="userSpaceOnUse" x="51" y="71" width="15" height="48">
			<feColorMatrix  type="matrix" values="1 0 0 0 0  0 1 0 0 0  0 0 1 0 0  0 0 0 1 0"/>
		</filter>
	</defs>
	<mask maskUnits="userSpaceOnUse" x="51" y="71" width="15" height="48" id="mask-2_2_">
		<g class="st4">
			<circle id="path-1_2_" class="st2" cx="60" cy="51" r="60"/>
		</g>
	</mask>
	<path id="Rectangle" class="st5" d="M52,72v46h13V72H52z M51,71h15v48H51V71z"/>
</g>
<polygon id="Path_1_" class="st2" points="156.7,12.4 180.7,54.1 156.7,95.7 108.6,95.7 84.6,54.1 108.6,12.4 "/>
<path id="Polygon" d="M156.1,13.3l23.5,40.6l-23.5,40.6l-46.9,0L85.7,53.9l23.5-40.6L156.1,13.3z M152.6,19.3l-40,0l-20,34.6
	l20,34.6h40l20-34.6L152.6,19.3z M156.1,13.3l23.5,40.6l-23.5,40.6l-46.9,0L85.7,53.9l23.5-40.6L156.1,13.3z"/>
<path id="Polygon_1_" class="st6" d="M152.6,19.4l-40,0L92.6,54l20,34.6l40,0l20-34.6L152.6,19.4z M155.5,14.4L178.4,54l-22.9,39.6
	l-45.8,0L86.9,54l22.9-39.6L155.5,14.4z"/>
<path id="stop" class="st2" d="M108,59.6c-1-0.4-1.9-0.9-2.7-1.7l1.8-2.4c1.3,1.2,2.7,1.8,4.1,1.8c0.7,0,1.2-0.1,1.5-0.3
	s0.5-0.6,0.5-1c0-0.3-0.1-0.6-0.3-0.8s-0.5-0.3-0.9-0.4s-0.8-0.2-1.5-0.3c-0.2,0-0.5-0.1-0.9-0.2c-0.7-0.2-1.4-0.4-1.9-0.6
	s-1-0.6-1.3-1.2s-0.5-1.2-0.5-2c0-0.9,0.2-1.7,0.7-2.3s1-1.1,1.8-1.4c0.7-0.3,1.6-0.4,2.5-0.4c1.1,0,2.1,0.2,3.1,0.6
	c1,0.4,1.8,0.9,2.5,1.5l-1.7,2.3c-0.5-0.4-1.1-0.8-1.8-1.1c-0.7-0.3-1.3-0.4-2-0.4c-0.5,0-1,0.1-1.4,0.3s-0.6,0.5-0.6,0.9
	c0,0.3,0.1,0.5,0.3,0.7s0.5,0.3,0.9,0.4s0.8,0.2,1.5,0.3c0.7,0.1,1.2,0.2,1.5,0.3c0.7,0.2,1.3,0.4,1.7,0.7c0.5,0.3,0.9,0.7,1.2,1.2
	s0.5,1.1,0.5,1.9c0,0.9-0.2,1.7-0.7,2.4c-0.4,0.6-1.1,1.1-1.9,1.5c-0.8,0.3-1.8,0.5-2.9,0.5C110.1,60.2,109,60,108,59.6z
	 M128.9,49.4h-3.2V60h-3.3V49.4h-3.3v-2.9h9.8V49.4z M134.1,59.3c-1-0.6-1.7-1.4-2.3-2.4s-0.8-2.3-0.8-3.7c0-1.4,0.3-2.6,0.8-3.7
	s1.3-1.8,2.3-2.4s2.1-0.8,3.3-0.8c1.2,0,2.3,0.3,3.3,0.8s1.7,1.3,2.2,2.4s0.8,2.3,0.8,3.7c0,1.4-0.3,2.7-0.8,3.7s-1.3,1.8-2.2,2.4
	s-2.1,0.8-3.3,0.8C136.2,60.2,135.1,59.9,134.1,59.3z M139,56.7c0.5-0.3,0.8-0.7,1.1-1.3c0.3-0.6,0.4-1.3,0.4-2.1
	c0-0.8-0.1-1.5-0.4-2.1s-0.6-1-1.1-1.3s-1-0.4-1.6-0.4c-0.6,0-1.1,0.1-1.6,0.4s-0.8,0.7-1.1,1.3s-0.4,1.3-0.4,2.1
	c0,0.8,0.1,1.5,0.4,2.1c0.3,0.6,0.6,1,1.1,1.3s1,0.4,1.6,0.4C138,57.1,138.5,57,139,56.7z M156.7,47.1c0.7,0.4,1.2,0.9,1.5,1.6
	s0.5,1.4,0.5,2.2c0,0.8-0.2,1.6-0.5,2.3s-0.9,1.2-1.5,1.6s-1.4,0.6-2.3,0.6h-3.6V60h-3.3V46.5h6.9C155.3,46.5,156.1,46.7,156.7,47.1
	z M155.6,50.9c0-0.5-0.1-0.9-0.4-1.2s-0.7-0.4-1.3-0.4h-3v3.3h3C155,52.6,155.6,52,155.6,50.9z"/>
<rect x="125" y="95.7" width="15" height="4.3"/>
</svg>
