<svg xmlns="http://www.w3.org/2000/svg" viewBox="0 0 60 60"><title>Fichier 1</title><g id="Calque_2" data-name="Calque 2"><g id="Calque_1-2" data-name="Calque 1"><path d="M26.08,30.46a1.16,1.16,0,1,0,1.15,1.16A1.16,1.16,0,0,0,26.08,30.46Z"/><path d="M31.54,30.46a1.16,1.16,0,1,0,1.15,1.16A1.16,1.16,0,0,0,31.54,30.46Z"/><path d="M59.65,25.43c-.15-1-.35-2-.59-2.93a29.8,29.8,0,0,0-1.42-4.18c-.38-.89-.8-1.77-1.26-2.62a28,28,0,0,0-1.5-2.47,30.51,30.51,0,0,0-2.67-3.4q-1-1.07-2-2c-.35-.32-.72-.63-1.09-.94-.74-.61-1.51-1.19-2.31-1.73a30,30,0,0,0-33.54,0c-.8.54-1.57,1.12-2.31,1.73-.37.31-.74.62-1.09.94q-1.07,1-2,2a30.51,30.51,0,0,0-2.67,3.4,28,28,0,0,0-1.5,2.47c-.46.85-.88,1.73-1.26,2.62A29.8,29.8,0,0,0,.94,22.5c-.24,1-.44,1.94-.59,2.93A30,30,0,0,0,0,30c0,.67,0,1.34.07,2,0,.18,0,.35,0,.53.05.59.12,1.18.2,1.76l0,.21c.09.65.22,1.28.35,1.91,0,.16.08.32.11.48q.2.81.42,1.59l.09.32c.19.6.4,1.2.62,1.79.05.14.11.28.17.43.19.48.4,1,.61,1.44.06.12.11.25.17.37.26.56.55,1.11.85,1.66l.21.36c.25.45.52.89.8,1.33l.24.37c.34.52.7,1,1.07,1.52l.22.27c.32.42.65.82,1,1.22l.31.36c.42.46.84.91,1.28,1.35l.18.17c.39.39.79.76,1.21,1.12.12.11.24.22.37.32.47.4,1,.8,1.46,1.17l.06.05c.48.36,1,.7,1.49,1l.41.26c.49.31,1,.61,1.5.89l.13.08c.55.3,1.12.58,1.69.84l.19.1h0a30,30,0,0,0,24.92,0h0l.19-.1c.57-.26,1.14-.54,1.69-.84l.13-.08c.51-.28,1-.58,1.5-.89l.41-.26c.51-.33,1-.67,1.49-1l.06-.05c.5-.37,1-.77,1.46-1.17.13-.1.25-.21.37-.32.42-.36.82-.73,1.21-1.12l.18-.17c.44-.44.86-.89,1.28-1.35l.31-.36c.34-.4.67-.8,1-1.22l.22-.27c.37-.5.73-1,1.07-1.52l.24-.37c.28-.44.55-.88.8-1.33l.21-.36c.3-.55.59-1.1.85-1.66.06-.12.11-.25.17-.37.21-.47.42-1,.61-1.44.06-.15.12-.29.17-.43.22-.59.43-1.19.62-1.79l.09-.32q.22-.78.42-1.59c0-.16.07-.32.11-.48.13-.63.26-1.26.35-1.91l0-.21c.08-.58.15-1.17.2-1.76,0-.18,0-.35,0-.53,0-.66.07-1.33.07-2A30,30,0,0,0,59.65,25.43ZM30,58.5a28.4,28.4,0,0,1-12.46-2.86v-8.1a12.47,12.47,0,0,1,7.52-11.45,7.85,7.85,0,1,1,9.88,0,12.47,12.47,0,0,1,7.52,11.45v8.1A28.4,28.4,0,0,1,30,58.5Z"/></g></g></svg>