<svg xmlns="http://www.w3.org/2000/svg" viewBox="0 0 60 60"><defs><style>.cls-1{fill:#020202;fill-rule:evenodd;}</style></defs><title>Fichier 1</title><g id="Calque_2" data-name="Calque 2"><g id="Calque_1-2" data-name="Calque 1"><path class="cls-1" d="M37.15,30.46a1.16,1.16,0,1,0,1.16,1.16A1.16,1.16,0,0,0,37.15,30.46Z"/><path class="cls-1" d="M42.69,30.46a1.16,1.16,0,1,0,1.16,1.16A1.16,1.16,0,0,0,42.69,30.46Z"/><path class="cls-1" d="M18.69,30.46a1.16,1.16,0,1,0,1.16,1.16A1.16,1.16,0,0,0,18.69,30.46Z"/><path class="cls-1" d="M25.38,31.62a1.15,1.15,0,1,0-1.15,1.15A1.15,1.15,0,0,0,25.38,31.62Z"/><path class="cls-1" d="M55.31,46.11v0a29.82,29.82,0,0,0,4-9.56.36.36,0,0,0,0-.11c.15-.67.28-1.34.38-2a.59.59,0,0,1,0-.14c.08-.59.14-1.19.19-1.79,0-.16,0-.32,0-.48,0-.66.07-1.31.07-2A30,30,0,0,0,25.43.35c-1,.15-2,.35-2.93.59a29.8,29.8,0,0,0-4.18,1.42c-.89.38-1.77.8-2.62,1.26a28,28,0,0,0-2.47,1.5,29.38,29.38,0,0,0-3.4,2.67,30.38,30.38,0,0,0-3,3.13c-.61.74-1.19,1.51-1.73,2.31A29.87,29.87,0,0,0,0,30c0,.5,0,1,0,1.48l0,.48c0,.33,0,.66.08,1s0,.38.06.57.07.58.11.87.07.4.1.6.09.55.15.82l.12.61c.06.26.12.53.19.79l.15.6c.07.26.15.52.22.78l.18.58c.08.26.17.52.26.78l.2.56.31.78.21.52c.12.28.25.55.38.83s.13.3.2.44c.17.36.35.7.54,1a1.74,1.74,0,0,0,.1.19q.33.61.69,1.2c.07.13.15.24.23.36q.25.42.51.81l.31.44.49.69.35.46c.17.22.33.43.5.63s.25.31.38.46.19.24.29.35h0A29.93,29.93,0,0,0,26.77,59.82h.08c.56.06,1.12.11,1.69.13h.08c.45,0,.92,0,1.38,0A29.94,29.94,0,0,0,53.54,48.59h0a1.27,1.27,0,0,0,.13-.19c.51-.64,1-1.31,1.43-2C55.17,46.31,55.25,46.21,55.31,46.11ZM27.76,9.23a2.83,2.83,0,0,1,2.7,1.88,2.83,2.83,0,0,1,2.7-1.88A2.9,2.9,0,0,1,36,12.1q0,1.67-5.54,11.53-5.54-9.87-5.54-11.53A2.9,2.9,0,0,1,27.76,9.23ZM7.39,47.33A12.48,12.48,0,0,1,14.9,36.09a7.85,7.85,0,1,1,9.89,0,12.63,12.63,0,0,1,4.51,3.33,14.26,14.26,0,0,0-2.53,8.12V58.31A28.51,28.51,0,0,1,7.39,47.33ZM30,58.5c-.46,0-.93,0-1.38,0V47.54a12.35,12.35,0,0,1,2-6.72c.09-.14.18-.28.28-.41l.24-.35.31-.39.28-.33L32,39l.3-.31.36-.34.32-.28c.13-.11.26-.22.4-.32a3.92,3.92,0,0,1,.32-.25,4.27,4.27,0,0,1,.44-.3l.32-.22.51-.3.3-.16c.25-.14.52-.26.78-.38l.06,0h0A7.79,7.79,0,0,1,33.23,30a7,7,0,0,1,0-.8,7.85,7.85,0,0,1,15.61,0,7,7,0,0,1,0,.8A7.81,7.81,0,0,1,46,36.09h0a12.47,12.47,0,0,1,7.2,8.64,11.07,11.07,0,0,1,.24,1.42A28.49,28.49,0,0,1,30,58.5Z"/></g></g></svg>