<svg xmlns="http://www.w3.org/2000/svg" viewBox="0 0 60 60"><title>Fichier 1</title><g id="Calque_2" data-name="Calque 2"><g id="Calque_1-2" data-name="Calque 1"><path d="M30,0A30,30,0,1,0,60,30,30,30,0,0,0,30,0ZM17.49,55.61A28.55,28.55,0,0,1,7,46.82V41.19a10.9,10.9,0,0,1,6.57-10A6.86,6.86,0,1,1,24.3,23.45a8.47,8.47,0,0,0-1.21,11.16A12.5,12.5,0,0,0,17.49,45Zm23.4.73a28.53,28.53,0,0,1-21.78,0V45a10.89,10.89,0,0,1,6.57-10,6.86,6.86,0,1,1,8.64,0,10.89,10.89,0,0,1,6.57,10Zm1.62-.73V45a12.5,12.5,0,0,0-5.6-10.43A8.47,8.47,0,0,0,35.7,23.45a6.85,6.85,0,1,1,10.73,7.74,10.9,10.9,0,0,1,6.57,10v5.63A28.55,28.55,0,0,1,42.51,55.61Z"/><path d="M15.27,26.46a1,1,0,1,0,1,1A1,1,0,0,0,15.27,26.46Z"/><path d="M21.12,27.46a1,1,0,1,0-1,1A1,1,0,0,0,21.12,27.46Z"/><circle cx="44.32" cy="27.46" r="1.01"/><path d="M39.48,26.46a1,1,0,1,0,1,1A1,1,0,0,0,39.48,26.46Z"/><path d="M33,30.11a1,1,0,1,0,1,1A1,1,0,0,0,33,30.11Z"/><circle cx="27.38" cy="31.11" r="1.01"/></g></g></svg>