<?xml version="1.0" encoding="utf-8"?>
<!-- Generator: Adobe Illustrator 22.1.0, SVG Export Plug-In . SVG Version: 6.00 Build 0)  -->
<svg version="1.1" id="Calque_1" xmlns="http://www.w3.org/2000/svg" xmlns:xlink="http://www.w3.org/1999/xlink" x="0px" y="0px"
	 viewBox="0 0 45 45" style="enable-background:new 0 0 45 45;" xml:space="preserve">
<style type="text/css">
	.st0{fill:none;}
</style>
<title>icon_profile_situation-solo</title>
<desc>Created with Sketch.</desc>
<g id="UI">
	<g id="HUTTE_UI-kit_atomes" transform="translate(-692.000000, -821.000000)">
		<g id="icon_profile_situation-solo" transform="translate(680.000000, 810.000000)">
			<rect id="Rectangle" x="12" y="11" class="st0" width="45" height="45"/>
			<path d="M30.4,33.9c-1.5-1.2-2.5-3.1-2.5-5.2c0-3.7,3-6.7,6.7-6.7s6.7,3,6.7,6.7c0,2.1-1,4-2.5,5.2c3.8,1.6,6.4,5.4,6.4,9.8v8.7
				c0,1.1-0.9,2-2,2H26c-1.1,0-2-0.9-2-2v-8.7C24,39.3,26.6,35.6,30.4,33.9z M31.1,31.1c0.5,0,1-0.4,1-1c0-0.5-0.4-1-1-1
				c-0.5,0-1,0.4-1,1C30.1,30.6,30.5,31.1,31.1,31.1z M35.8,31.1c0.5,0,1-0.4,1-1c0-0.5-0.4-1-1-1c-0.5,0-1,0.4-1,1
				C34.8,30.6,35.3,31.1,35.8,31.1z"/>
		</g>
	</g>
</g>
</svg>
