<svg xmlns="http://www.w3.org/2000/svg" viewBox="0 0 60 60"><title>Fichier 1</title><g id="Calque_2" data-name="Calque 2"><g id="Calque_1-2" data-name="Calque 1"><path d="M30.83,37.1c-4,0-6-1.47-6.5-4.84H22.68V30.88H24.2v-1H22.68V28.53h1.64c.51-3.36,2.55-4.82,6.49-4.82s5.67,1.41,6.14,4.71H34c-.29-1.7-1.22-2.45-3.14-2.45s-2.92.78-3.3,2.56H32V29.9h-4.6v1h3.89v1.38H27.53a3,3,0,0,0,3.32,2.59c1.88,0,2.79-.72,3.14-2.44h3C36.24,35.7,34.44,37.1,30.83,37.1Z"/><path d="M30,0A30,30,0,1,0,60,30,30,30,0,0,0,30,0ZM51,39a3,3,0,0,1-3,3H12a3,3,0,0,1-3-3V21.77a3,3,0,0,1,3-3H48a3,3,0,0,1,3,3Z"/><path d="M30.85,34.85a3,3,0,0,1-3.32-2.59h3.72V30.88H27.36v-1H32V28.53H27.53c.38-1.78,1.37-2.56,3.3-2.56s2.85.75,3.14,2.45h3c-.47-3.3-2.3-4.71-6.14-4.71s-6,1.46-6.49,4.82H22.68v1.35H24.2v1H22.68v1.38h1.65c.51,3.37,2.53,4.84,6.5,4.84,3.61,0,5.41-1.4,6.16-4.69H34C33.64,34.13,32.73,34.85,30.85,34.85Z"/></g></g></svg>