<?xml version="1.0" encoding="utf-8"?>
<!-- Generator: Adobe Illustrator 22.1.0, SVG Export Plug-In . SVG Version: 6.00 Build 0)  -->
<svg version="1.1" id="Calque_1" xmlns="http://www.w3.org/2000/svg" xmlns:xlink="http://www.w3.org/1999/xlink" x="0px" y="0px"
	 viewBox="0 0 45 45" style="enable-background:new 0 0 45 45;" xml:space="preserve">
<style type="text/css">
	.st0{fill:none;}
</style>
<title>icon_profile_situation-coloc</title>
<desc>Created with Sketch.</desc>
<g id="UI">
	<g id="HUTTE_UI-kit_atomes" transform="translate(-970.000000, -816.000000)">
		<g id="icon_profile_situation-coloc" transform="translate(970.000000, 810.000000)">
			<rect id="Rectangle" y="6" class="st0" width="45" height="45"/>
			<path d="M27.8,17.1c0.7-2.9,3.4-5.1,6.5-5.1c3.7,0,6.7,3,6.7,6.7c0,2.1-1,4-2.5,5.2c3.8,1.6,6.4,5.4,6.4,9.8v11.4
				c0,2.2-1.8,4-4,4h-6.3V38.4c0-4.2-2.1-8-5.5-10.2c1-1.4,1.5-3,1.5-4.8C30.8,20.9,29.6,18.6,27.8,17.1z M17.2,17.1
				c-1.8,1.5-3,3.8-3,6.4c0,1.8,0.5,3.4,1.5,4.8c-3.4,2.2-5.5,6-5.5,10.2v10.7H4c-2.2,0-4-1.8-4-4V33.7c0-4.4,2.6-8.2,6.4-9.8
				c-1.5-1.2-2.5-3.1-2.5-5.2c0-3.7,3-6.7,6.7-6.7C13.8,12,16.5,14.2,17.2,17.1z M8.1,20.3c0.5,0,1-0.4,1-1s-0.4-1-1-1s-1,0.4-1,1
				S7.5,20.3,8.1,20.3z M31.8,20.3c0.5,0,1-0.4,1-1s-0.4-1-1-1c-0.5,0-1,0.4-1,1S31.2,20.3,31.8,20.3z M12.8,20.3c0.5,0,1-0.4,1-1
				s-0.4-1-1-1c-0.5,0-1,0.4-1,1S12.3,20.3,12.8,20.3z M36.5,20.3c0.5,0,1-0.4,1-1s-0.4-1-1-1s-1,0.4-1,1S36,20.3,36.5,20.3z
				 M18.3,28.7c-1.5-1.2-2.5-3.1-2.5-5.2c0-3.7,3-6.7,6.7-6.7s6.7,3,6.7,6.7c0,2.1-1,4-2.5,5.2c3.8,1.6,6.4,5.4,6.4,9.8v10.7H11.8
				V38.4C11.8,34.1,14.5,30.3,18.3,28.7z M19.9,25.8c0.5,0,1-0.4,1-1s-0.4-1-1-1c-0.5,0-1,0.4-1,1S19.4,25.8,19.9,25.8z M25.5,25.8
				c0.5,0,1-0.4,1-1s-0.4-1-1-1c-0.5,0-1,0.4-1,1S24.9,25.8,25.5,25.8z"/>
		</g>
	</g>
</g>
</svg>
