<svg xmlns="http://www.w3.org/2000/svg" viewBox="0 0 60 60"><title>Fichier 1</title><g id="Calque_2" data-name="Calque 2"><g id="Calque_1-2" data-name="Calque 1"><path d="M30,0A30,30,0,1,0,60,30,30,30,0,0,0,30,0ZM16.42,15.18a3,3,0,0,1,2.86-2.11,2.89,2.89,0,0,1,.88.13l17.41,5.31H15.4ZM51,41a3,3,0,0,1-3,3H12a3,3,0,0,1-3-3V23.77a3,3,0,0,1,3-3H48a3,3,0,0,1,3,3Z"/><path d="M30.85,36.85a3,3,0,0,1-3.32-2.59h3.72V32.88H27.36v-1H32V30.53H27.53c.38-1.78,1.37-2.56,3.3-2.56s2.85.75,3.14,2.45h3c-.47-3.3-2.3-4.71-6.14-4.71s-6,1.46-6.49,4.82H22.68v1.35H24.2v1H22.68v1.38h1.65c.51,3.37,2.53,4.84,6.5,4.84,3.61,0,5.41-1.4,6.16-4.69H34C33.64,36.13,32.73,36.85,30.85,36.85Z"/></g></g></svg>