<?xml version="1.0" encoding="utf-8"?>
<!-- Generator: Adobe Illustrator 22.1.0, SVG Export Plug-In . SVG Version: 6.00 Build 0)  -->
<svg version="1.1" id="Calque_1" xmlns="http://www.w3.org/2000/svg" xmlns:xlink="http://www.w3.org/1999/xlink" x="0px" y="0px"
	 viewBox="0 0 45 45" style="enable-background:new 0 0 45 45;" xml:space="preserve">
<style type="text/css">
	.st0{fill:none;}
</style>
<title>icon_profile_situation-couple</title>
<desc>Created with Sketch.</desc>
<g id="UI">
	<g id="HUTTE_UI-kit_atomes" transform="translate(-828.000000, -810.000000)">
		<g id="icon_profile_situation-couple" transform="translate(825.000000, 810.000000)">
			<rect id="Rectangle" x="3" class="st0" width="45" height="45"/>
			<path id="Combined-Shape" d="M30.6,23c-1.5-1.2-2.5-3.1-2.5-5.2c0-3.7,3-6.7,6.7-6.7c3.7,0,6.7,3,6.7,6.7c0,2.1-1,4-2.5,5.2
				c3.8,1.6,6.4,5.4,6.4,9.8v8.7c0,1.1-0.9,2-2,2H24.2V32.8C24.2,28.4,26.8,24.6,30.6,23z M31.5,20.1c0.5,0,1-0.4,1-1
				c0-0.5-0.4-1-1-1c-0.5,0-1,0.4-1,1C30.5,19.7,30.9,20.1,31.5,20.1z M36.2,20.1c0.5,0,1-0.4,1-1c0-0.5-0.4-1-1-1s-1,0.4-1,1
				C35.2,19.7,35.7,20.1,36.2,20.1z"/>
			<path id="Combined-Shape_1_" d="M24.7,25.8c-1.4,2-2.2,4.4-2.2,6.9v10.7H8c-1.1,0-2-0.9-2-2v-8.7c0-4.4,2.6-8.2,6.4-9.8
				c-1.5-1.2-2.5-3.1-2.5-5.2c0-3.7,3-6.7,6.7-6.7s6.7,3,6.7,6.7c0,2.1-1,4-2.5,5.2C22.4,23.6,23.7,24.6,24.7,25.8z M15.7,20.1
				c0.5,0,1-0.4,1-1c0-0.5-0.4-1-1-1c-0.5,0-1,0.4-1,1C14.7,19.7,15.1,20.1,15.7,20.1z M20.4,20.1c0.5,0,1-0.4,1-1c0-0.5-0.4-1-1-1
				c-0.5,0-1,0.4-1,1C19.4,19.7,19.9,20.1,20.4,20.1z"/>
			<path id="Combined-Shape_2_" d="M28,0c1.3,0,2.4,1.2,2.4,2.5c0,0.9-1.6,4.2-4.7,9.9C22.6,6.7,21,3.4,21,2.5C21,1.2,22.1,0,23.4,0
				c1.1,0,2,0.7,2.3,1.6C26.1,0.7,27,0,28,0z"/>
		</g>
	</g>
</g>
</svg>
