<?xml version="1.0" encoding="utf-8"?>
<!-- Generator: Adobe Illustrator 22.1.0, SVG Export Plug-In . SVG Version: 6.00 Build 0)  -->
<svg version="1.1" id="Calque_1" xmlns="http://www.w3.org/2000/svg" xmlns:xlink="http://www.w3.org/1999/xlink" x="0px" y="0px"
	 viewBox="0 0 100 100" style="enable-background:new 0 0 100 100;" xml:space="preserve">
<style type="text/css">
	.st0{fill:none;}
	.st1{fill:#FFFFFF;}
</style>
<rect id="Rectangle" y="0" class="st0" width="100" height="100"/>
<path id="Fill-8" d="M38.8,50.5c-0.1,0.1-0.2,0.3-0.2,0.6l0.8,0.1c0-0.2,0-0.4,0.8-0.4c0.4,0,0.8,0.4,0.8,0.8l0.8-0.3
	c-0.1-0.7-0.7-1.3-1.5-1.4C40,49.9,39.1,49.9,38.8,50.5z"/>
<path id="Fill-9" d="M26.1,66.4C26.1,66.4,26.1,66.4,26.1,66.4c-0.8,0-1.4-0.2-2-0.6l-0.9,0.3c0.8,0.7,1.8,1.1,2.9,1.1V66.4z"/>
<path id="Fill-12" d="M75.5,39.8c0.1,0.2,0.1,0.3,0.1,0.5H76h0.4c0-1.3-1-2.3-2.3-2.3v0.4v0v0.4c0.2,0,0.4,0,0.5,0.1
	C75.1,39.1,75.4,39.4,75.5,39.8"/>
<path id="Fill-13" class="st1" d="M59.6,49.7l-4.2,0c-0.4,0.1-0.9,0-1.3-0.1c-0.5,0.3-1,0.5-1.6,0.5c-0.9,0-1.6-0.3-2.2-0.9
	l-3.7,1.3c0.1,0.5,0.1,1,0.1,1.6c-0.1,0.7-0.4,1.4-1,1.9c-0.2,0.2-0.5,0.3-0.7,0.4c0.9,0.6,1.6,1.3,2.1,2.2l14.8-5.4
	C61.5,50.3,60.6,49.7,59.6,49.7"/>
<path id="Fill-14" class="st1" d="M38.6,55.8c0.2-1,0.9-1.7,1.8-2.1c-0.4-0.1-0.7-0.3-1-0.6l-6,2.2c-0.3,1.4-1.6,2.5-3.1,2.5
	c-0.7,0-1.4-0.2-1.9-0.7l-6.1,2.2c-0.4,1.4-1.6,2.4-3.1,2.4c-0.7,0-1.3-0.2-1.8-0.6L12,63c1.5,0.5,2.6,1.9,2.6,3.6
	c0,0.5-0.1,0.9-0.2,1.3c0,0.1,0,0.1-0.1,0.2c-0.1,0.2-0.1,0.3-0.2,0.4L40.4,59c-0.5-0.2-0.9-0.5-1.2-0.9
	C38.6,57.4,38.4,56.6,38.6,55.8"/>
<path id="Fill-25" d="M54,49.6c-0.7-0.2-1.3-0.6-1.7-1.2l-2.1,0.8c0.6,0.6,1.4,0.9,2.2,0.9C53,50,53.6,49.9,54,49.6z"/>
<path id="Fill-28" d="M17.3,61.1c0.5,0.4,1.1,0.6,1.8,0.6c1.5,0,2.7-1,3.1-2.4L17.3,61.1z"/>
<path id="Fill-29" d="M33.3,55.3l-5,1.8c0.5,0.4,1.2,0.7,1.9,0.7C31.7,57.7,33,56.7,33.3,55.3"/>
<path id="Fill-30" d="M71.2,31.7c-0.1-0.1-0.1-0.3-0.2-0.4c0,0,0.1,0,0.1,0C71.2,31.4,71.2,31.5,71.2,31.7z M33.4,42.3
	c-0.3-0.3-0.8-0.4-1.2-0.3c-0.8-1.2-2.2-2.1-3.7-2.4c0.9-0.8,2-1.4,3.2-1.5c1.5-0.2,2.9,0.2,4.1,1.1c0.9,0.7,1,1.9,0.3,2.8
	C35.5,42.8,34.3,43,33.4,42.3z M49.8,10.6c-9.2,0-18.2,3.3-25.3,9.3C17.3,26,12.5,34.4,11.1,43.7c-1,6.3-0.4,12.5,1.4,18.2L10,62.9
	l6.6-2.4l5.7-2.1l0.1-11.2l0-2.2c0.1-2.7,2.5-4.8,5.3-4.8c2.6,0.1,4.7,2.2,4.8,4.8c0,1-0.7,1.9-1.6,2c-0.5,0-1-0.1-1.3-0.5
	c-0.3-0.3-0.5-0.8-0.5-1.3c0-0.8-0.6-1.5-1.5-1.6c-0.8,0-1.5,0.6-1.6,1.5l0.8,0c0-0.4,0.3-0.7,0.7-0.7c0.4,0,0.7,0.3,0.7,0.7
	c0,0.7,0.3,1.4,0.8,1.9c0.5,0.5,1.1,0.7,1.8,0.7c0.5,0,0.8-0.1,1.1-0.3c0,0.2,0,0.3,0,0.3l0.8-0.1c0-0.2,0-0.5-0.1-0.9
	c0.4-0.5,0.7-1.2,0.7-1.9c0-0.5-0.1-1-0.2-1.4c0.1-0.2,0.2-0.3,0.2-0.5c1.2,0.7,2.7,0.4,3.6-0.7c0.5-0.6,0.7-1.4,0.6-2.1
	c2.4-0.3,4.9,1,5.9,3.3c0.4,1,0,2.2-1,2.6c-1,0.4-2.2,0-2.6-1c-0.2-0.4-0.5-0.7-0.9-0.9c-0.4-0.2-0.9-0.2-1.3,0
	c-0.4,0.2-0.7,0.5-0.9,0.9c-0.2,0.4-0.2,0.9,0,1.2l0.2,0.6l0.4-0.1l0.4-0.1l-0.1-0.4c0.5-0.2,1.1-0.3,1.7-0.4c0.7,1,2.1,1.5,3.4,0.9
	c0.1-0.1,0.3-0.1,0.4-0.2c1.2,0.7,2.1,1.8,2.5,3.2l4.2-1.5l3.1-1.1c0-0.1-0.1-0.3-0.1-0.4c-0.2-1.3,0.6-2.5,1.8-2.7h6.8h3.3
	c0.2,0,0.3,0.1,0.5,0.1c0.3,0.1,0.6,0.4,0.8,0.7c0.1,0.2,0.1,0.2,0.1,0.3c0,0.1,0.1,0.2,0.1,0.4h0.4h0.4c0-0.4-0.1-0.9-0.4-1.2
	c0-0.1-0.1-0.1-0.2-0.2c-0.4-0.5-1-0.9-1.7-0.9c0.1-0.2,0.2-0.3,0.2-0.5c0.1-0.3,0.2-0.5,0.2-0.8c0-1.5-1.2-2.7-2.6-2.7
	c-0.4,0-0.8,0.2-1.1,0.5c-0.3,0.3-0.4,0.8-0.4,1.2c0.1,1.1-0.7,2-1.8,2.1c-0.5,0-1-0.1-1.4-0.5C57.2,42.4,57,42,57,41.4
	c-0.2-3.1,2.1-5.8,5.2-6l0.3,0c1.5-0.1,5-0.4,6.6,4.7l0.4-0.1l0.4-0.1c-0.2-0.8-0.5-1.4-0.8-2c-0.2-0.3-0.4-0.6-0.5-0.9
	c-0.5-0.7-1-1.2-1.6-1.5c0.3-0.9-0.1-1.8-1-2.1s-1.8,0.1-2.1,1c0,0.1-0.1,0.1-0.1,0.2c-0.5,0-0.9,0-1.3,0.1l-0.2,0
	c-0.6,0-1.1,0.2-1.7,0.4c-0.1-0.1-0.3-0.3-0.3-0.5c-0.2-0.5-0.3-1-0.1-1.5c1-2.9,4.2-4.4,7.1-3.4c2.5,0.9,3.7,2.1,4,4.2
	c0.1,0.8,0.2,3.8,0.2,4.7c0,0.1,0.1,0.2,0.4,0.2l0.4,0c0,0,0-0.4,0-0.8c0-1.1-0.1-2.9-0.2-3.8c0-0.1,0-0.2,0-0.3
	c0-0.3-0.1-0.5-0.2-0.8c0.3-0.9,0.6-2.2-0.7-2.9c-0.4-0.2-0.8-0.2-1.2-0.1c-0.7-0.4-1.5-0.8-2.4-1.1c-0.6-0.2-1.1-0.3-1.7-0.4
	c1.5-2.4,4.6-3.5,7.1-2.4c2.3,1,3.1,2.2,3.2,4.7l0.1,5.7l0,0.3l0.8,0l-0.1-4.3c1.7,1.2,2.9,3.2,3,5.3l0,0.6l0,35.6
	c0.1-0.1,0.2-0.2,0.2-0.3c-0.2,0.3-0.5,0.6-0.8,0.9c-0.1,0.2-0.3,0.4-0.5,0.5c-0.2,0.3-0.5,0.5-0.7,0.8c-0.2,0.2-0.3,0.4-0.5,0.5
	c-0.2,0.2-0.5,0.5-0.7,0.7c-0.2,0.2-0.4,0.4-0.6,0.5c-0.2,0.2-0.5,0.5-0.7,0.7c-0.2,0.2-0.4,0.3-0.6,0.5c-0.3,0.2-0.5,0.4-0.8,0.6
	c-0.2,0.2-0.4,0.3-0.6,0.5c-0.3,0.2-0.5,0.4-0.8,0.6c-0.2,0.1-0.4,0.3-0.6,0.4c-0.3,0.2-0.6,0.4-0.9,0.6c-0.2,0.1-0.4,0.3-0.6,0.4
	c-0.4,0.2-0.7,0.5-1.1,0.7c-0.1,0.1-0.3,0.2-0.4,0.2c-0.5,0.3-1,0.6-1.5,0.9c-0.1,0.1-0.3,0.1-0.4,0.2c-0.4,0.2-0.8,0.4-1.1,0.6
	c-0.2,0.1-0.4,0.2-0.6,0.3c-0.3,0.1-0.7,0.3-1,0.4c-0.1,0-0.2,0.1-0.3,0.1L65,62.1c0.5,0.2,1.1,0.3,1.7,0.3V62v-0.4
	c-2.1,0-3.8-1.7-3.8-3.8v-5.6c0-0.1,0-0.3,0-0.4c0-0.3-0.1-0.6-0.2-0.8c-0.5-1.2-1.7-2.1-3-2.1l-4.3,0c-0.1,0-0.3,0-0.4,0
	c-0.2,0.3-0.5,0.5-0.8,0.7c0.4,0.1,0.9,0.2,1.3,0.1l4.2,0c1,0,1.9,0.6,2.3,1.5c0,0-4.9,1.8-14.8,5.4c0,0-0.3,0.1-0.8,0.3
	c0.2,0.2,0.3,0.5,0.4,0.7c0.4,0.9,0.7,2,0.6,3.1c-0.3,3.3-3.3,5.9-6.5,5.7c0,0-1.7,0-5,0h-0.5v0.8h5.2v20c-7-1.8-13.2-5.4-18-10.3
	V66.4l-6.9,2.5c5.7,10.2,15.8,17.8,28.1,19.8c2.1,0.3,4.2,0.5,6.2,0.5c9.2,0,18.2-3.3,25.3-9.3c7.2-6.1,11.9-14.5,13.4-23.8
	c3.4-21.4-11.2-41.6-32.6-45C54,10.8,51.9,10.6,49.8,10.6z"/>
<path id="Fill-31" d="M38.6,55.8c-0.2,0.8,0,1.7,0.6,2.4c0.3,0.4,0.7,0.7,1.2,0.9c0,0,0,0,0,0L14,68.6c0.1-0.1,0.2-0.3,0.2-0.4
	c0-0.1,0-0.1,0.1-0.2c0.1-0.4,0.2-0.8,0.2-1.3c0-1.7-1.1-3.1-2.6-3.6l5.3-1.9l4.9-1.8l6.1-2.2l5-1.8l6-2.2c0.3,0.2,0.7,0.4,1,0.6
	C39.5,54,38.8,54.8,38.6,55.8 M10.7,69.7c-1.7,0-3-1.4-3-3c0-1.7,1.4-3,3-3s3,1.4,3,3C13.7,68.3,12.4,69.7,10.7,69.7 M52.7,47.3
	l-3.1,1.1L45.5,50c0.1,0.3,0.1,0.5,0.2,0.8c0.1,0.4,0.1,0.8,0.1,1.2c0,0.5-0.3,1-0.7,1.3c-0.4,0.3-0.9,0.5-1.4,0.5
	c-0.4,0-0.7-0.2-1-0.3c-0.1-0.1-0.3-0.2-0.4-0.3c-0.3-0.4-0.5-0.9-0.5-1.4c0-0.1,0-0.3,0-0.4L41,51.6l-16.6,6l-2,0.7l-0.1,0
	l-5.7,2.1L10,62.9c-0.7,0.1-1.3,0.4-1.8,0.9c-0.3,0.3-0.6,0.6-0.8,1C7.1,65.1,7,65.5,6.9,66c0,0.2-0.1,0.5-0.1,0.7
	c0,2.1,1.7,3.9,3.9,3.9c0.2,0,0.3,0,0.5,0c0.1,0,0.1,0,0.2,0c0.1,0,0.2,0,0.3-0.1c0.1,0,0.1,0,0.2-0.1c0.1,0,0.2-0.1,0.3-0.1
	c0.1,0,0.2-0.1,0.2-0.1c0.1,0,0.1-0.1,0.2-0.1l2.9-1l6.9-2.5l0.8-0.3l0.9-0.3l0,0l1.7-0.6l15.9-5.8c0.3,0.2,0.5,0.5,0.4,0.8
	c0,0.5-0.5,0.9-1,0.8l0,0.4l0,0.4c1,0.1,1.8-0.6,1.9-1.6c0-0.5-0.1-0.9-0.4-1.2c-0.2-0.3-0.5-0.5-0.8-0.6c-0.1,0-0.3-0.1-0.4-0.1
	c-0.6,0-1.2-0.4-1.5-0.8c-0.4-0.5-0.5-1.1-0.4-1.7c0.2-1.1,1.4-1.9,2.7-1.7c0.1,0,0.3,0.1,0.4,0.1c0.3,0.2,0.7,0.3,1,0.3
	c1.1,0.5,2.1,1.3,2.7,2.3l0.8-0.3c-0.5-0.9-1.3-1.6-2.1-2.2c0.3-0.1,0.5-0.3,0.7-0.4c0.6-0.5,0.9-1.2,1-1.9c0-0.5,0-1.1-0.1-1.6
	l3.7-1.3l2.1-0.8c0.4,0.6,1,1,1.7,1.2c0.3-0.2,0.6-0.4,0.8-0.7C53.9,48.8,53,48.2,52.7,47.3"/>
<path id="Fill-32" d="M70.9,41.6c-0.2,0-0.4-0.1-0.5-0.1v0.3v0.6c0.2,0,0.4,0,0.5,0.1c0.4,0.2,0.7,0.5,0.9,0.9
	c0.1,0.2,0.1,0.3,0.1,0.5h0.8C72.6,42.8,71.9,41.9,70.9,41.6"/>
<path id="Fill-33" class="st1" d="M10.7,65.1c0.8,0,1.5,0.7,1.5,1.5c0,0.8-0.7,1.5-1.5,1.5c-0.8,0-1.5-0.7-1.5-1.5
	C9.2,65.8,9.9,65.1,10.7,65.1 M10.7,69.7c1.7,0,3-1.4,3-3c0-1.7-1.4-3-3-3s-3,1.4-3,3C7.7,68.3,9,69.7,10.7,69.7"/>
<path id="Fill-34" d="M10.7,68.2c0.8,0,1.5-0.7,1.5-1.5c0-0.8-0.7-1.5-1.5-1.5c-0.8,0-1.5,0.7-1.5,1.5C9.2,67.5,9.9,68.2,10.7,68.2"
	/>
</svg>
