<?xml version="1.0" encoding="utf-8"?>
<!-- Generator: Adobe Illustrator 22.1.0, SVG Export Plug-In . SVG Version: 6.00 Build 0)  -->
<svg version="1.1" id="Calque_1" xmlns="http://www.w3.org/2000/svg" xmlns:xlink="http://www.w3.org/1999/xlink" x="0px" y="0px"
	 viewBox="0 0 100 100" style="enable-background:new 0 0 100 100;" xml:space="preserve">
<style type="text/css">
	.st0{fill:none;}
	.st1{fill:#FFFFFF;}
</style>
<rect id="Rectangle" y="0" class="st0" width="100" height="100"/>
<path id="Fill-3" d="M54.2,43.7c-0.2-0.2-0.4-0.3-0.6-0.4c-0.9-0.6-2-1-3-1.2l2.7-13.2c0.4,0.6,1,1,1.7,1.2c0.2,0,0.4,0.1,0.5,0.1
	c0.5,0,1.1-0.2,1.5-0.5L54.2,43.7z M56.5,55.9c-1.2,0.7-2.8,0.3-3.5-0.9c-0.3-0.6-0.4-1.3-0.3-1.9c0.2-0.7,0.6-1.2,1.2-1.6
	c0.9-0.5,1.2-1.7,0.8-2.6c0.1-0.1,0.1-0.2,0.2-0.3c0.6-0.9,0.7-1.9,0.5-3c-0.1-0.4-0.3-0.8-0.5-1.2l0.3-1.4c1.6,0.5,3,1.6,3.8,3.1
	c1,1.6,1.2,3.5,0.7,5.4C59.3,53.4,58.1,55,56.5,55.9z M55.1,61.1c-0.6,0.3-1.3,0.4-1.9,0.3c-0.7-0.2-1.2-0.6-1.6-1.2
	c-0.7-1.2-0.3-2.8,0.9-3.5c0.2-0.1,0.3-0.2,0.5-0.4c0.6,0.5,1.4,0.8,2.2,0.8c0.6,0,1.2-0.1,1.7-0.5c0.6-0.4,1.2-0.8,1.7-1.4
	C58.5,57.6,57.3,59.8,55.1,61.1z M50.4,66.5c0.1,0.1,0.3,0.2,0.4,0.2c-0.1,0.1-0.1,0.1-0.2,0.2c-0.1,0-0.2,0.1-0.3,0.1L50.4,66.5z
	 M54,49.6c0.1,0.4-0.1,0.8-0.4,1.1l0.2-0.9C53.9,49.7,54,49.7,54,49.6z M47.4,52.1l-0.2-0.7c-0.1-0.4,0-0.8,0.2-1.1
	c0.2-0.3,0.5-0.5,0.8-0.6l-0.6,3.1C47.6,52.6,47.5,52.3,47.4,52.1z M47.6,76.5c-0.2,1-1.2,1.7-2.3,1.5c-0.5-0.1-0.9-0.4-1.2-0.8
	c-0.3-0.4-0.4-0.9-0.3-1.4l5.3-25.9c0.1,0,0.3,0.1,0.4,0.1c0.9,0.6,1.9,0.7,3,0.5c0.2,0,0.3-0.1,0.5-0.2l-0.2,1.1
	c-0.9,0.9-1.2,2.3-0.7,3.5l-0.3,1.3c-1.3,1-1.7,2.9-0.9,4.4l0,0.1c-1.5,0.6-2.3,2.2-1.9,3.8c0.1,0.6,0.4,1.1,0.8,1.6l-0.2,0.8
	c-0.5-0.1-1.1,0-1.6,0.2c-0.6,0.3-1.1,0.8-1.3,1.4c-0.5,1.3,0.2,2.8,1.5,3.3c0.1,0,0.2,0.1,0.4,0.1L47.6,76.5z M55,68
	c-1,2.6-3.9,3.9-6.5,2.9c-0.9-0.3-1.4-1.4-1-2.3c0.2-0.4,0.5-0.8,0.9-1c0.2-0.1,0.4-0.1,0.6-0.2c0.2,0,0.4,0,0.7,0.1l0.5,0.1
	c0.3,0,0.5,0,0.8-0.1c0.3-0.1,0.5-0.4,0.7-0.6c0.2,0,0.4,0.1,0.7,0.1c0.2,0,0.5,0,0.7-0.1c0.8-0.2,1.6-0.5,2.4-0.9
	C55.4,66.8,55.3,67.4,55,68z M57.3,63.2c-1,1.6-2.6,2.7-4.5,3.1c-1.4,0.3-2.7-0.6-3-2c-0.3-1.3,0.5-2.5,1.7-2.9
	c0.4,0.4,0.9,0.7,1.5,0.9c0.3,0.1,0.6,0.1,0.9,0.1c0.6,0,1.2-0.2,1.7-0.5c1.2-0.7,2.2-1.7,2.9-2.9C58.5,60.4,58.1,61.9,57.3,63.2z
	 M40.4,28.1c0.6,1.6,1.9,2.8,3.5,3.4c-1.6,0.6-2.9,1.8-3.5,3.4c-0.6-1.6-1.9-2.8-3.5-3.4C38.5,30.9,39.8,29.7,40.4,28.1z M13.5,61.1
	l15.4-3.4l0,0c2.5-0.6,8.8-2.6,10.6-8.1c0.7-2.9,4-6,7.4-6.8c2.2-0.5,4.5-0.1,6.4,1.1c0.7,0.4,1.2,1.1,1.4,1.9
	c0.2,0.8,0,1.6-0.4,2.3c-0.4,0.7-1.1,1.2-1.9,1.4c-0.8,0.2-1.6,0-2.3-0.4c-0.5-0.3-1.1-0.4-1.7-0.3c-0.6,0.1-1.1,0.5-1.4,1
	c-0.3,0.5-0.4,1.1-0.3,1.7l0.2,0.7c0.7,2.8,0.3,5.5-1.1,7.7c-1.3,2.1-3.5,3.7-5.9,4.2l0.2,0.8c2.5-0.6,4.7-2.1,6.2-4.2l-2.4,11.8
	l-3.3,0.7l0,0c-1.1,0.2-2.2,0-3.2-0.6c-1-0.6-1.6-1.6-1.9-2.7l-0.8,0.2c0.3,1.3,1.1,2.5,2.2,3.2c0.3,0.2,0.6,0.3,1,0.5l-1.9,0.4
	l-12.7,2.5C18.7,72.5,15.3,67,13.5,61.1z M68.1,49c1.1-0.5,1.9-1.3,2.4-2.4c0.5,1.1,1.3,1.9,2.4,2.4c-1.1,0.5-1.9,1.3-2.4,2.4
	C70.1,50.3,69.2,49.5,68.1,49z M69.7,23.3c0.7,1.8,2.1,3.1,3.9,3.7c-1.8,0.6-3.2,2-3.9,3.7C69,29,67.6,27.6,65.8,27
	C67.6,26.4,69,25,69.7,23.3z M58.6,12.6c0.2,0,0.4,0.1,0.5,0.1c0.5,0,1.1-0.2,1.5-0.5l-0.7,3.5l0,0l-2.4,12c-0.2,1-1.2,1.7-2.3,1.5
	c-1-0.2-1.7-1.2-1.5-2.3l2.4-12l-0.4-0.1l0.4,0.1l0.7-3.5C57.2,12.1,57.8,12.5,58.6,12.6z M59.5,8.1c0.5,0.1,0.9,0.4,1.2,0.8
	c0.3,0.4,0.4,0.9,0.3,1.4c-0.2,1-1.2,1.7-2.3,1.5c-1-0.2-1.7-1.2-1.5-2.3c0.2-0.9,1-1.5,1.9-1.5C59.3,8,59.4,8,59.5,8.1z M61.4,12.7
	l0.5-2.6l0,0c0-0.6-0.1-1.2-0.4-1.7c-0.4-0.6-1-1-1.7-1.2C58.3,7,57,7.7,56.6,9l0,0l-0.1,0.4c0,0,0,0,0,0c0,0,0,0,0,0L56,11.5
	c0,0,0,0,0,0C34.8,8.1,14.9,22.6,11.5,43.7c-0.9,5.8-0.5,11.4,1,16.7l0,0l0.1,0.4c0.1,0.5,0.3,1,0.5,1.5c0.1,0.2,0.1,0.3,0.2,0.5
	c0.2,0.4,0.3,0.9,0.5,1.3c0.1,0.2,0.2,0.4,0.3,0.7c0.2,0.4,0.4,0.9,0.6,1.3c0.1,0.2,0.2,0.4,0.3,0.6c0.4,0.9,0.9,1.7,1.3,2.6
	c0.1,0.1,0.1,0.2,0.2,0.3c0.2,0.4,0.5,0.7,0.7,1.1c0.2,0.2,0.3,0.5,0.5,0.7c0.2,0.3,0.5,0.7,0.7,1c0.2,0.3,0.4,0.5,0.6,0.8
	c0.3,0.4,0.6,0.8,0.9,1.2c0.3,0.4,0.7,0.8,1.1,1.3c0.2,0.3,0.5,0.5,0.7,0.8c0.3,0.3,0.5,0.6,0.8,0.8c0.1,0.1,0.2,0.3,0.4,0.4
	l0.2,0.2l0,0c5.5,5.4,12.7,9.1,20.9,10.4c2.1,0.3,4.2,0.5,6.2,0.5c8.1,0,16-2.5,22.7-7.4c8.4-6.1,13.9-15.1,15.6-25.3
	C91.3,36.7,79.5,18.4,61.4,12.7z"/>
<path id="Fill-4" class="st1" d="M69.7,30.8c0.7-1.8,2.1-3.1,3.9-3.7c-1.8-0.6-3.2-2-3.9-3.7C69,25,67.6,26.4,65.8,27
	C67.6,27.6,69,29,69.7,30.8"/>
<path id="Fill-8" class="st1" d="M40.4,34.9c0.6-1.6,1.9-2.8,3.5-3.4c-1.6-0.6-2.9-1.8-3.5-3.4c-0.6,1.6-1.9,2.8-3.5,3.4
	C38.5,32.1,39.8,33.3,40.4,34.9"/>
<path id="Fill-10" class="st1" d="M73,49c-1.1-0.5-1.9-1.3-2.4-2.4c-0.5,1.1-1.3,1.9-2.4,2.4c1.1,0.5,1.9,1.3,2.4,2.4
	C71,50.3,71.9,49.5,73,49"/>
<path id="Fill-11" class="st1" d="M55.1,30c-0.7-0.2-1.3-0.6-1.7-1.2L50.6,42c1.1,0.2,2.1,0.6,3,1.2c0.2,0.1,0.4,0.3,0.6,0.4
	l2.9-14.1c-0.4,0.3-1,0.5-1.5,0.5C55.4,30,55.2,30,55.1,30"/>
<path id="Fill-12" class="st1" d="M56.1,14.9l-0.4-0.1L56.1,14.9l-2.4,12c-0.2,1,0.5,2.1,1.5,2.3c1,0.2,2.1-0.5,2.3-1.5l2.4-12l0,0
	l0.7-3.5c-0.4,0.3-1,0.5-1.5,0.5c-0.2,0-0.4,0-0.5-0.1c-0.7-0.2-1.3-0.6-1.7-1.2L56.1,14.9z"/>
<path id="Fill-13" class="st1" d="M46.6,68.4c0.2-0.6,0.7-1.2,1.3-1.4c0.5-0.2,1-0.3,1.6-0.2l0.2-0.8c-0.4-0.4-0.7-1-0.8-1.6
	c-0.3-1.6,0.5-3.1,1.9-3.8l0-0.1c-0.8-1.5-0.4-3.3,0.9-4.4l0.3-1.3c-0.5-1.2-0.2-2.6,0.7-3.5l0.2-1.1c-0.2,0.1-0.3,0.1-0.5,0.2
	c-1,0.2-2.1,0-3-0.5c-0.1-0.1-0.2-0.1-0.4-0.1l-5.3,25.9c-0.1,0.5,0,1,0.3,1.4c0.3,0.4,0.7,0.7,1.2,0.8c1,0.2,2.1-0.5,2.3-1.5
	l0.9-4.6c-0.1,0-0.2-0.1-0.4-0.1C46.8,71.3,46.1,69.8,46.6,68.4"/>
<path id="Fill-14" class="st1" d="M57.2,9.6c-0.2,1,0.5,2.1,1.5,2.3c1,0.2,2.1-0.5,2.3-1.5c0.1-0.5,0-1-0.3-1.4
	c-0.3-0.4-0.7-0.7-1.2-0.8c-0.1,0-0.3,0-0.4,0C58.2,8,57.4,8.6,57.2,9.6"/>
</svg>
