<?xml version="1.0" encoding="utf-8"?>
<!-- Generator: Adobe Illustrator 22.1.0, SVG Export Plug-In . SVG Version: 6.00 Build 0)  -->
<svg version="1.1" id="Calque_1" xmlns="http://www.w3.org/2000/svg" xmlns:xlink="http://www.w3.org/1999/xlink" x="0px" y="0px"
	 viewBox="0 0 100 100" style="enable-background:new 0 0 100 100;" xml:space="preserve">
<style type="text/css">
	.st0{fill:none;}
	.st1{fill:#FFFFFF;}
</style>
<rect id="Rectangle" class="st0" width="100" height="100"/>
<path id="skill" d="M59.5,50.7c0-1.8,1.5-3.3,3.3-3.3c1.8,0,3.3,1.5,3.3,3.3c0,1.8-1.5,3.3-3.3,3.3C61,54,59.5,52.5,59.5,50.7
	 M80.8,60.1v11.9c-4.3,6-10.2,10.6-17,13.3v-23c1.8-0.2,3.4-0.7,4.9-1.7l-0.4-0.7c-1.7,1.1-3.5,1.7-5.6,1.7c-4.6,0-8.6-3.1-9.8-7.5
	c-0.1-0.2-0.1-0.4-0.1-0.6c0-1.3,1-2.3,2.3-2.3c1,0,1.8,0.6,2.2,1.5c0.6,2.5,2.8,4.4,5.4,4.4c3.3,0,5.9-2.7,5.9-5.9v-5.7h-0.8v2.7
	c-1-1.8-2.9-2.9-5.1-2.9c-2.6,0-4.9,1.5-5.9,3.9l0,0l0,0c-0.3,0.8-1,1.3-1.8,1.3c-1,0-1.9-0.8-1.9-1.9c0-0.3,0-0.6,0.1-0.8
	c1.6-3.9,5.3-6.4,9.4-6.4c1.3,0,2.7,0.3,3.9,0.8v0.1l0.8,0l0-4.4c0.2,0,0.3,0.1,0.5,0.1c0.7,0.1,1.4-0.1,1.9-0.6
	c0.5-0.4,0.9-1.1,1-1.8c0-0.4,0.4-0.7,0.8-0.7c0.4,0,0.7,0.4,0.7,0.9l0,0.4c-0.2,0.1-0.4,0.3-0.6,0.4c-1.2,1-2,2.4-2.2,4
	c-0.1,0.7,0.1,1.4,0.6,1.9c0.4,0.5,1.1,0.9,1.8,1c0.2,0,0.4,0,0.5,0l0,0.9l0.8,0l0-1.2c0.2-0.1,0.4-0.2,0.6-0.3
	c0.5-0.4,0.9-1.1,1-1.8c0-0.4,0.4-0.7,0.8-0.7c0.4,0,0.7,0.4,0.7,0.9l0,8.7l0.8,0l0-8.6c0.1-0.9-0.5-1.6-1.4-1.7
	c-0.9-0.1-1.6,0.5-1.7,1.4c-0.1,0.5-0.3,0.9-0.7,1.2c-0.4,0.3-0.8,0.4-1.3,0.4c-0.5-0.1-0.9-0.3-1.2-0.7c-0.3-0.4-0.4-0.8-0.4-1.3
	c0.1-1.4,0.8-2.6,1.9-3.5c1.1-0.9,2.4-1.3,3.8-1.1c2.1,0.2,3.9,1.8,4.4,3.8c0.2,0.6,0.4,1.5,0.4,1.5c0,0.1,0,0.7,0,0.9l0,15.3
	c0,1.9-1.5,3.4-3.4,3.4v0.8C78.8,61.8,80.1,61.1,80.8,60.1 M60.8,32.7c0.1-1.4,0.8-2.6,1.9-3.5c1.1-0.9,2.4-1.3,3.8-1.1
	c1.3,0.1,2.4,0.8,3.3,1.7c-1.2,0.4-2.2,1.1-3,2.2c-0.2-0.1-0.4-0.2-0.7-0.3c-0.4,0-0.8,0.1-1.2,0.3c-0.3,0.3-0.5,0.6-0.6,1.1
	c-0.1,0.5-0.3,0.9-0.7,1.2c-0.4,0.3-0.8,0.4-1.3,0.4c-0.5-0.1-0.9-0.3-1.2-0.7C60.9,33.6,60.8,33.2,60.8,32.7 M72.2,30.4
	c2.1,0.2,3.9,1.8,4.4,3.8c0.1,0.3,0.1,0.7,0.2,1.1c-0.2-0.1-0.5-0.1-0.7-0.1c-1-0.1-2,0.1-2.9,0.5c0.1-0.8-0.5-1.6-1.4-1.7
	c-0.9-0.1-1.6,0.5-1.7,1.4c-0.1,0.5-0.3,0.9-0.7,1.2c-0.4,0.3-0.8,0.4-1.3,0.4c-1-0.1-1.7-1-1.6-2C66.8,32.1,69.4,30.1,72.2,30.4
	 M40.8,50.7c0,1.8-1.5,3.3-3.3,3.3c-1.8,0-3.3-1.5-3.3-3.3c0-1.8,1.5-3.3,3.3-3.3C39.3,47.3,40.8,48.8,40.8,50.7 M47.3,54
	c-1.2,4.4-5.2,7.5-9.8,7.5c-2,0-3.8-0.5-5.6-1.7l-0.4,0.7c1.5,1,3.2,1.5,4.9,1.7v23.2c-6.9-2.6-12.7-7.1-17-12.8V60.1
	c0.8,1.1,2,1.8,3.4,1.8V61c-1.9,0-3.4-1.5-3.4-3.4V42.4l0-0.1c0-0.2,0-0.9,0-0.9h0c0-0.1,0.2-1,0.4-1.6c0.5-2.1,2.3-3.6,4.4-3.8
	c2.8-0.3,5.4,1.7,5.7,4.6c0.1,1-0.6,1.9-1.6,2c-0.5,0.1-0.9-0.1-1.3-0.4c-0.4-0.3-0.6-0.7-0.7-1.2c-0.1-0.9-0.9-1.5-1.7-1.4
	c-0.9,0.1-1.5,0.9-1.4,1.7l0,8.7l0.8,0l0-8.7c0-0.4,0.3-0.8,0.7-0.8c0.4,0,0.8,0.3,0.8,0.7c0.1,0.7,0.4,1.3,1,1.8
	c0.2,0.1,0.4,0.2,0.6,0.3l0,1.2l0.8,0l0-0.9c0.2,0,0.4,0,0.5,0c1.4-0.2,2.5-1.5,2.3-2.9c-0.2-1.9-1.3-3.5-2.8-4.5v-0.4
	c0-0.4,0.3-0.8,0.7-0.8c0.4,0,0.8,0.3,0.8,0.7c0.2,1.4,1.5,2.5,2.9,2.3c0.2,0,0.3-0.1,0.5-0.1l0,4.4l0.8,0V42
	c1.2-0.5,2.5-0.8,3.9-0.8c4.2,0,7.9,2.5,9.4,6.4C47,47.7,47,48,47,48.3c0,1-0.8,1.9-1.9,1.9c-0.8,0-1.5-0.5-1.8-1.3l-0.1,0l0.1,0
	c-1-2.4-3.3-3.9-5.9-3.9h0c-2.2,0-4.1,1.2-5.1,2.9v-2.7h-0.8v5.7c0,3.3,2.7,5.9,5.9,5.9h0c2.6,0,4.9-1.8,5.4-4.4
	c0.3-0.9,1.2-1.5,2.2-1.5c1.3,0,2.3,1,2.3,2.3C47.4,53.5,47.3,53.7,47.3,54 M23.7,34.2c0.5-2.1,2.3-3.6,4.4-3.8
	c2.8-0.3,5.4,1.7,5.7,4.6c0.1,1-0.6,1.9-1.6,2c-0.5,0.1-0.9-0.1-1.3-0.4c-0.4-0.3-0.6-0.7-0.7-1.2c-0.1-0.9-0.9-1.5-1.7-1.4
	c-0.8,0.1-1.5,0.8-1.4,1.6c-0.9-0.4-1.9-0.5-2.9-0.4c-0.2,0-0.5,0.1-0.7,0.1C23.5,34.9,23.6,34.5,23.7,34.2 M33.8,28.1
	c2.8-0.3,5.4,1.7,5.7,4.6c0.1,0.5-0.1,0.9-0.4,1.3c-0.3,0.4-0.7,0.6-1.2,0.7c-0.5,0.1-0.9-0.1-1.3-0.4c-0.4-0.3-0.6-0.7-0.7-1.2
	c0-0.4-0.2-0.8-0.6-1.1c-0.3-0.3-0.7-0.4-1.2-0.3c-0.3,0-0.5,0.1-0.7,0.3c-0.7-1-1.8-1.8-3-2.2C31.3,28.9,32.5,28.3,33.8,28.1
	 M81.3,27.1C75.2,18.6,66.2,13.1,56,11.5C34.8,8.1,14.9,22.6,11.5,43.7C8.1,64.9,22.6,84.9,43.7,88.3c2.1,0.3,4.1,0.5,6.1,0.5
	c18.8,0,35.3-13.6,38.4-32.7C89.9,45.7,87.4,35.5,81.3,27.1"/>
<path id="irisl" class="st1" d="M37.4,52.8c-1.1,0-2.1-0.9-2.1-2.1c0-1.1,0.9-2.1,2.1-2.1s2.1,0.9,2.1,2.1
	C39.5,51.8,38.6,52.8,37.4,52.8 M37.5,47.3c-1.8,0-3.3,1.5-3.3,3.3c0,1.8,1.5,3.3,3.3,3.3s3.3-1.5,3.3-3.3
	C40.8,48.8,39.3,47.3,37.5,47.3"/>
<path id="puplil" d="M37.4,48.6c-1.1,0-2.1,0.9-2.1,2.1s0.9,2.1,2.1,2.1s2.1-0.9,2.1-2.1S38.6,48.6,37.4,48.6"/>
<path id="irisr" class="st1" d="M62.8,48.6c1.1,0,2.1,0.9,2.1,2.1s-0.9,2.1-2.1,2.1s-2.1-0.9-2.1-2.1S61.7,48.6,62.8,48.6 M62.8,54
	c1.8,0,3.3-1.5,3.3-3.3c0-1.8-1.5-3.3-3.3-3.3c-1.8,0-3.3,1.5-3.3,3.3C59.5,52.5,61,54,62.8,54"/>
<path id="pupilr" d="M62.8,52.8c1.1,0,2.1-0.9,2.1-2.1c0-1.1-0.9-2.1-2.1-2.1s-2.1,0.9-2.1,2.1C60.7,51.8,61.7,52.8,62.8,52.8"/>
</svg>
