<svg xmlns="http://www.w3.org/2000/svg" viewBox="0 0 100 100"><defs><style>.a{fill:#fff;}</style></defs><title>skill_crime3</title><path d="M62.79,44.67l-3.31.74A3.25,3.25,0,0,1,55.61,43a3.23,3.23,0,0,1,2.46-3.86l3.18-.71.13,0a3.42,3.42,0,0,1,.7-.08,3.24,3.24,0,0,1,.71,6.4ZM51.2,33.36l-.32-1.48a4.17,4.17,0,0,0,1.21.56A4.32,4.32,0,0,0,51.2,33.36Zm12.88-4.91a3.2,3.2,0,0,1-2,1.42l-1,.23-7.2,1.6a3.24,3.24,0,1,1-1.4-6.32l8.2-1.83a3.36,3.36,0,0,1,.71-.08,3.24,3.24,0,0,1,2.72,5ZM57.41,18A4.38,4.38,0,0,0,58,16.67l1.49-.33a2.87,2.87,0,0,1,.71-.08,3.24,3.24,0,0,1,.7,6.4L55.1,23.94a3.24,3.24,0,0,1-3.68-4.42A4.55,4.55,0,0,0,57.41,18Zm-8.7,1.94a1.73,1.73,0,0,1,1.1-.77,1.71,1.71,0,0,1,.87,0,4,4,0,0,0,1.54,5,3.29,3.29,0,0,0,.49.26l-.44.1a4,4,0,0,0-2.54,1.79l-.06.11L48.45,21A1.7,1.7,0,0,1,48.71,19.92Zm2.61,16.51a3.26,3.26,0,0,1,2.46-3.87L62,30.74a2.92,2.92,0,0,1,.71-.08,3.25,3.25,0,0,1,3.16,2.53,3.24,3.24,0,0,1-2.46,3.87l-8.19,1.82a3.22,3.22,0,0,1-2.44-.42A3.26,3.26,0,0,1,51.32,36.43ZM42.61,49.61Zm12.8,10.08a2.41,2.41,0,0,0-1.91,2.82,2.4,2.4,0,0,0,1,1.54,2.42,2.42,0,0,0,1.35.42,2.49,2.49,0,0,0,.46,0,2.44,2.44,0,0,0,.88-.36l.38,1.72a4,4,0,0,1-.91.3A4.1,4.1,0,0,1,55.11,58a3.68,3.68,0,0,1,.73-.07l.38,1.73A2.45,2.45,0,0,0,55.41,59.69ZM55,50.18,52.52,39.27a4.1,4.1,0,0,0,2,.52,4.58,4.58,0,0,0,.89-.1l.33-.08a4,4,0,0,0-.89,3.52,4.07,4.07,0,0,0,1.79,2.55,4,4,0,0,0,2.17.63,3.92,3.92,0,0,0,.89-.1l3.17-.7c.15,0,.29,0,.43,0a1.11,1.11,0,0,1,.87.15,1.16,1.16,0,0,1,.51.73l.36,1.6-5,1.12ZM12.29,43.87a38.08,38.08,0,0,1,3.1-10.11L32.31,30h0l.26,0,0,0a9.67,9.67,0,0,0,7-6.81s.63-3.35.91-4.6a10,10,0,0,1,15.11-6.08,3.72,3.72,0,1,1-4,6.27,2.57,2.57,0,0,0-1.95-.34A2.54,2.54,0,0,0,48,19.48a2.57,2.57,0,0,0-.34,1.95l.19.78a11.8,11.8,0,0,1-1.29,9.15,11.1,11.1,0,0,1-7,5l.18.81A11.94,11.94,0,0,0,49,27.09l.19.82a4,4,0,0,0,.64,2.89l.83,3.73a4,4,0,0,0-.1,2.07,4.08,4.08,0,0,0,1,1.85l1.86,8.33-11,2.44a5.07,5.07,0,0,1-5.93-3.86l-.8.18a5.87,5.87,0,0,0,3.92,4.31L12.3,55.94A37.89,37.89,0,0,1,12.29,43.87ZM32.47,70.75a4.11,4.11,0,1,1,3.26-4.81A4.11,4.11,0,0,1,32.47,70.75Zm14-60.33A4.44,4.44,0,0,1,54.78,7.6a5.3,5.3,0,0,0-1.94,2.75,10.69,10.69,0,0,0-5-.07,10.16,10.16,0,0,0-1.36.4Zm19,86.77L55.13,51l10.05-2.24C74,88.76,67.19,96,65.42,97.19ZM81.34,27.05A38.58,38.58,0,0,0,56,11.48l-.51-.07a11,11,0,0,0-1.86-.83A4.51,4.51,0,0,1,55.51,8.1l.28-.17-.11-.32a5.29,5.29,0,0,0-6.07-3.29,5.26,5.26,0,0,0-4,6.27l.09.43-.54.24A38.86,38.86,0,0,0,12.08,40.77l-.12.49c-.18.82-.35,1.64-.49,2.47-.09.59-.17,1.17-.23,1.76,0,.24-.05.48-.07.71l-.09,1c0,.32,0,.65-.05,1s0,.42,0,.64c0,.41,0,.82,0,1.23v.19a38.89,38.89,0,0,0,32.75,38,39.38,39.38,0,0,0,6.21.49,38.47,38.47,0,0,0,12.29-2l2.58,11.57.41-.1c.3-.07,4.91-1.46,5.2-15.35.76-.48,1.51-1,2.24-1.5a38.87,38.87,0,0,0,8.67-54.29Z"/><path class="a" d="M55.11,58a4.11,4.11,0,0,0,1.56,8.07,4.65,4.65,0,0,0,.91-.31l-.38-1.72a2.44,2.44,0,0,1-.88.36,2.49,2.49,0,0,1-.46,0,2.42,2.42,0,0,1-1.35-.42,2.4,2.4,0,0,1-1-1.54,2.41,2.41,0,0,1,1.91-2.82,2.45,2.45,0,0,1,.81,0L55.84,58a3.68,3.68,0,0,0-.73.07"/><path class="a" d="M33.66,68.07a2.41,2.41,0,0,1-1.54,1,2.38,2.38,0,0,1-.46,0,2.43,2.43,0,0,1-1.35-.41,2.42,2.42,0,0,1-.64-3.35,2.37,2.37,0,0,1,1.54-1A2.42,2.42,0,0,1,34,66.26a2.4,2.4,0,0,1-.37,1.81m-2-5.46a4.11,4.11,0,1,0,4,3.33,4.08,4.08,0,0,0-4-3.33"/><path d="M33,64.73a2.34,2.34,0,0,0-1.8-.37,2.41,2.41,0,0,0-.9,4.36,2.43,2.43,0,0,0,1.35.41,2.38,2.38,0,0,0,.46,0A2.42,2.42,0,0,0,34,66.26a2.35,2.35,0,0,0-1-1.53"/><path class="a" d="M52.84,10.35A5.3,5.3,0,0,1,54.78,7.6,4.43,4.43,0,0,0,47,7.07a4.39,4.39,0,0,0-.58,3.35l0,.26a10.16,10.16,0,0,1,1.36-.4,10.82,10.82,0,0,1,5,.07"/><path class="a" d="M64.64,46.34a1.16,1.16,0,0,0-.51-.73,1.11,1.11,0,0,0-.87-.15c-.14,0-.28,0-.43,0l-3.17.7a3.92,3.92,0,0,1-.89.1,4,4,0,0,1-2.17-.63,4.07,4.07,0,0,1-1.79-2.55,4,4,0,0,1,.89-3.52l-.33.08a4.58,4.58,0,0,1-.89.1,4.13,4.13,0,0,1-2-.52L55,50.18l5-1.12,5-1.12Z"/><path class="a" d="M50.88,31.88l.32,1.48a4.32,4.32,0,0,1,.89-.92,4.17,4.17,0,0,1-1.21-.56"/><path class="a" d="M49.73,26.36a4,4,0,0,1,2.54-1.79l.44-.1a3.29,3.29,0,0,1-.49-.26,4,4,0,0,1-1.54-5,1.71,1.71,0,0,0-.87,0,1.73,1.73,0,0,0-1.1.77,1.7,1.7,0,0,0-.26,1l1.22,5.5.06-.11"/><path class="a" d="M65.18,48.74,55.13,51,65.42,97.19C67.19,96,74,88.76,65.18,48.74"/></svg>