<?xml version="1.0" encoding="utf-8"?>
<!-- Generator: Adobe Illustrator 22.1.0, SVG Export Plug-In . SVG Version: 6.00 Build 0)  -->
<svg version="1.1" id="Calque_1" xmlns="http://www.w3.org/2000/svg" xmlns:xlink="http://www.w3.org/1999/xlink" x="0px" y="0px"
	 viewBox="0 0 100 100" style="enable-background:new 0 0 100 100;" xml:space="preserve">
<style type="text/css">
	.st0{fill:none;}
	.st1{fill:#FFFFFF;}
</style>
<rect id="Rectangle" class="st0" width="100" height="100"/>
<path id="skill" d="M39.9,26.3c2.6,1.1,3.9,4.1,2.8,6.7c-0.2,0.4-0.5,0.8-1,1c-0.4,0.2-0.9,0.2-1.4,0c-0.4-0.2-0.8-0.5-1-1
	c-0.2-0.4-0.2-0.9,0-1.4c0.2-0.4,0.2-0.8,0-1.2c-0.2-0.4-0.5-0.7-0.9-0.8c-0.2-0.1-0.3-0.1-0.5-0.1c-0.5-1.2-1.4-2.2-2.6-2.9
	c0.2-0.1,0.3-0.2,0.5-0.3C37.2,25.8,38.6,25.8,39.9,26.3z M49.2,30.2c-0.4,0.9-1.4,1.4-2.3,1c-0.9-0.4-1.4-1.4-1-2.3
	c0.3-0.8-0.1-1.7-0.9-2c-0.2-0.1-0.4-0.1-0.6-0.1c-0.2,0-0.4,0-0.6,0.1c-0.4,0.2-0.7,0.5-0.8,0.9c0,0,0,0,0,0.1
	c-0.7-1-1.6-1.8-2.7-2.3c0,0,0,0-0.1,0c0.6-0.9,1.3-1.5,2.3-1.9c1.3-0.5,2.7-0.6,3.9,0c1.3,0.5,2.3,1.5,2.8,2.7
	C49.7,27.5,49.7,28.9,49.2,30.2z M34.5,27.1c2.6,1.1,3.9,4.1,2.8,6.7c-0.4,0.9-1.4,1.4-2.3,1c-0.9-0.4-1.4-1.4-1-2.3
	c0.3-0.8-0.1-1.7-0.9-2c-0.2-0.1-0.4-0.1-0.6-0.1c-0.4,0-0.8,0.2-1,0.4c-0.3-0.6-0.7-1.1-1.2-1.6c-0.4-0.4-0.9-0.7-1.4-0.9
	C30.5,26.8,32.6,26.3,34.5,27.1z M38.6,31.6c0-0.4-0.1-0.8-0.2-1.1c0.1,0.1,0.2,0.2,0.2,0.3c0.1,0.2,0.1,0.4,0,0.6
	C38.6,31.4,38.6,31.5,38.6,31.6z M21,35.1l0.9-2.5c0.2-0.7,1.1-2.2,1.4-2.7l0.1-0.1C25,28,28,28,29.9,29.7c1.7,1.6,1.9,4.4,0.4,6.2
	c-0.6,0.7-1.6,0.9-2.3,0.4c-0.4-0.3-0.6-0.7-0.6-1.1c0-0.4,0.1-0.9,0.4-1.2c0.5-0.6,0.5-1.5-0.1-2c-0.3-0.3-0.6-0.4-1-0.4
	c-0.4,0-0.7,0.2-1,0.4l0.6,0.6c0.1-0.1,0.3-0.2,0.4-0.2c0.2,0,0.3,0.1,0.4,0.2c0.1,0.1,0.2,0.3,0.2,0.4c0,0.2-0.1,0.3-0.2,0.4
	c-0.5,0.5-0.7,1.2-0.6,1.8c0.1,0.7,0.4,1.3,0.9,1.7c0.4,0.3,0.9,0.5,1.4,0.5c0.7,0,1.5-0.3,2-1c1.2-1.4,1.5-3.2,1.1-4.8
	c0,0,0,0,0-0.1c0.2-0.4,0.6-0.6,1-0.4c0.4,0.2,0.6,0.6,0.4,1c-0.5,1.3,0.1,2.9,1.4,3.4c0.3,0.1,0.6,0.2,1,0.2c1,0,2-0.6,2.4-1.6
	c0.2-0.4,0.3-0.9,0.4-1.3c0,0.2,0.1,0.4,0.2,0.6c0.3,0.6,0.8,1.1,1.4,1.4c0,0,0.1,0,0.1,0l0,0.1c-0.4,1-0.9,2-1.5,2.9l-1.1,0
	c-0.7,0-1-0.1-1.4-0.3c-1.9-0.8-4-0.8-5.9,0.1c-1.9,0.8-3.4,2.3-4.2,4.2l0.8,0.3c0.7-1.7,2-3.1,3.7-3.8c1.7-0.7,3.6-0.7,5.3-0.1
	c0.5,0.2,0.9,0.3,1.7,0.4l6.5-0.2c0.6,0,1.2,0.2,1.6,0.6c0.4,0.4,0.7,1,0.7,1.6c0,0.6-0.2,1.2-0.6,1.6c-0.4,0.4-1,0.7-1.6,0.7
	l-8.9,0.3C32.9,43.5,31,44.9,30,47l0,0l0,0.1H15.8L21,35.1z M57.9,36.5c-1.7,0-3-1.3-3-3c0-1.7,1.3-3,3-3s3,1.3,3,3
	C60.9,35.1,59.5,36.5,57.9,36.5z M72.8,36.5c-1.7,0-3-1.3-3-3c0-1.7,1.3-3,3-3s3,1.3,3,3C75.8,35.1,74.5,36.5,72.8,36.5z M65.8,78.2
	h2.9v-1h-2.9V78.2z M60.2,78.2h2.9v-1h-2.9V78.2z M67.7,47.5c-1.1,0.5-2.1,1.2-2.7,2.3c0,0,0,0,0-0.1c-0.2-0.4-0.5-0.7-0.8-0.9
	c-0.4-0.2-0.8-0.2-1.2,0c-0.4,0.2-0.7,0.5-0.9,0.8c-0.2,0.4-0.2,0.8,0,1.2c0.4,0.9-0.1,2-1,2.3c-0.9,0.4-2-0.1-2.3-1
	c-0.5-1.3-0.5-2.7,0-3.9c0.5-1.3,1.5-2.2,2.8-2.7c0.6-0.2,1.3-0.4,1.9-0.4c0.7,0,1.4,0.1,2,0.4C66.4,46,67.2,46.6,67.7,47.5
	C67.7,47.5,67.7,47.5,67.7,47.5z M72.4,48.6c-1.2,0.7-2.1,1.7-2.7,2.9c-0.2,0-0.3,0-0.5,0.1c-0.4,0.2-0.7,0.5-0.9,0.8
	c-0.2,0.4-0.2,0.8,0,1.2c0.2,0.4,0.2,0.9,0,1.4c-0.2,0.4-0.5,0.8-1,1c-0.4,0.2-0.9,0.2-1.4,0c-0.4-0.2-0.8-0.5-1-1
	c-1.1-2.6,0.2-5.6,2.8-6.7c1.3-0.5,2.7-0.5,3.9,0C72.1,48.4,72.2,48.5,72.4,48.6z M76.3,52.7c-0.4-0.4-1.1-0.5-1.6-0.3
	c-0.8,0.3-1.2,1.2-0.9,2c0.4,0.9-0.1,2-1,2.3c-0.9,0.4-2-0.1-2.3-1c-1.1-2.6,0.2-5.6,2.8-6.7c0.6-0.3,1.3-0.4,1.9-0.4
	c1.3,0,2.6,0.5,3.6,1.5c-0.5,0.2-1,0.5-1.4,0.9C76.9,51.5,76.5,52.1,76.3,52.7z M71.4,78.2h2.9v-1h-2.9V78.2z M69.3,53.6
	c0-0.1,0-0.2-0.1-0.3c-0.1-0.2-0.1-0.4,0-0.6c0.1-0.1,0.1-0.2,0.2-0.3C69.3,52.8,69.3,53.2,69.3,53.6z M77.8,69L77.8,69
	c-1-2.1-2.9-3.5-5.3-3.8l-8.9-0.3c-0.6,0-1.2-0.3-1.6-0.7c-0.4-0.4-0.6-1-0.6-1.6c0-0.6,0.3-1.2,0.7-1.6c0.4-0.4,1-0.7,1.6-0.6
	l6.5,0.2c0.8,0,1.2-0.1,1.7-0.4c1.7-0.7,3.6-0.7,5.3,0.1c1.7,0.7,3,2.1,3.7,3.8l0.8-0.3c-0.8-1.9-2.2-3.4-4.2-4.2
	c-1.9-0.8-4-0.8-5.9-0.1c-0.5,0.2-0.7,0.3-1.4,0.3l-1.2,0c-0.6-0.9-1.1-1.9-1.5-2.9l0-0.1c0,0,0.1,0,0.1,0c0.6-0.3,1.2-0.8,1.4-1.4
	c0.1-0.2,0.1-0.4,0.2-0.6c0.1,0.4,0.2,0.9,0.4,1.3c0.4,1,1.4,1.6,2.4,1.6c0.3,0,0.7-0.1,1-0.2c1.3-0.5,2-2.1,1.4-3.4
	c-0.2-0.4,0-0.8,0.4-1c0.4-0.1,0.8,0,1,0.4c0,0,0,0,0,0.1c-0.4,1.6-0.1,3.4,1.1,4.8c0.5,0.6,1.3,1,2,1c0.5,0,1-0.1,1.4-0.5
	c0.5-0.4,0.9-1,0.9-1.7c0.1-0.7-0.2-1.3-0.6-1.8c-0.1-0.1-0.2-0.3-0.2-0.4c0-0.2,0.1-0.3,0.2-0.4c0.1-0.1,0.3-0.2,0.4-0.2
	c0.2,0,0.3,0.1,0.4,0.2l0.6-0.6c-0.3-0.3-0.6-0.4-1-0.4c-0.4,0-0.7,0.1-1,0.4c-0.6,0.5-0.6,1.5-0.1,2c0.3,0.3,0.5,0.8,0.4,1.2
	c0,0.4-0.2,0.8-0.6,1.1c-0.6,0.5-1.7,0.3-2.3-0.4c-1.5-1.8-1.4-4.6,0.4-6.2c1.8-1.7,4.8-1.7,6.5,0.1l0.1,0.1c0.3,0.5,1.2,2,1.4,2.7
	l0.9,2.5l0.4,0.9c-1.1,5.9-3.6,11.5-7.3,16.2L78,69.4l0,0L77.8,69z M70.7,82.7h-13c-1,0-1.9-0.8-1.9-1.9c0-1,0.8-1.9,1.9-1.9h17.8
	C74,80.4,72.4,81.6,70.7,82.7z M9.5,78.2c-1.3,0-2.4-0.9-2.6-2.1L1.8,51.1c-0.2-0.8,0-1.6,0.5-2.2c0.5-0.6,1.3-1,2.1-1H49
	c1.3,0,2.4,0.9,2.6,2.1L56.7,75c0.2,0.8,0,1.6-0.5,2.2c-0.5,0.6-1.3,1-2.1,1H9.5z M10.5,79h43.6c0,0,0,0,0,0h1.5c0,0,0.1,0,0.1,0
	c-0.5,0.5-0.7,1.1-0.7,1.8c0,0.7,0.3,1.4,0.7,1.8c0,0-0.1,0-0.1,0H10.5c-1,0-1.9-0.8-1.9-1.9C8.6,79.8,9.4,79,10.5,79z M56,12.5
	C34.8,9.1,14.9,23.6,11.5,44.7c-0.1,0.8-0.2,1.6-0.3,2.3H4.4c-1.1,0-2,0.5-2.7,1.3s-0.9,1.9-0.7,2.9L6,76.2c0.3,1.4,1.3,2.4,2.6,2.7
	c-0.5,0.5-0.9,1.2-0.9,2c0,1.5,1.2,2.7,2.7,2.7h18.3c4.4,2.8,9.4,4.8,14.9,5.7c2.1,0.3,4.1,0.5,6.2,0.5c7.4,0,14.6-2.1,21-6.2h0
	l0.1-0.1c0.5-0.3,1-0.7,1.5-1.1c0,0,0.1,0,0.1-0.1c0.4-0.3,0.8-0.6,1.2-0.9c0,0,0.1-0.1,0.1-0.1c1.1-0.9,2.2-1.9,3.2-2.9l0.3-0.3h0
	C83.2,72.4,87,65.1,88.3,57C91.6,35.8,77.2,15.9,56,12.5z"/>
<polygon id="keyboard1" class="st1" points="60.2,78.2 63.1,78.2 63.1,77.1 60.2,77.1 "/>
<polygon id="keyboard2" class="st1" points="65.8,78.2 68.7,78.2 68.7,77.1 65.8,77.1 "/>
<polygon id="keyboard3" class="st1" points="71.4,78.2 74.2,78.2 74.2,77.1 71.4,77.1 "/>
<path id="laptop2" class="st1" d="M10.5,82.7h45.1c0,0,0.1,0,0.1,0c-0.5-0.5-0.7-1.1-0.7-1.8c0-0.7,0.3-1.4,0.7-1.8c0,0-0.1,0-0.1,0
	h-1.5c0,0,0,0,0,0H10.5c-1,0-1.8,0.8-1.8,1.9C8.6,81.9,9.4,82.7,10.5,82.7"/>
<path id="laptop1" class="st1" d="M54.1,78.2c0.8,0,1.6-0.4,2.1-1c0.5-0.6,0.7-1.4,0.5-2.2L51.6,50c-0.3-1.2-1.4-2.1-2.6-2.1H4.4
	c-0.8,0-1.6,0.4-2.1,1c-0.5,0.6-0.7,1.4-0.5,2.2L6.8,76c0.3,1.2,1.4,2.1,2.6,2.1H54.1z"/>
<path id="iris1" class="st1" d="M57.9,34.8c-0.7,0-1.3-0.6-1.3-1.3c0-0.7,0.6-1.3,1.3-1.3c0.7,0,1.3,0.6,1.3,1.3
	C59.2,34.2,58.6,34.8,57.9,34.8 M57.9,30.5c-1.7,0-3,1.3-3,3c0,1.7,1.3,3,3,3s3-1.3,3-3C60.9,31.8,59.5,30.5,57.9,30.5"/>
<path id="iris1_1_" class="st1" d="M57.7,79c-1,0-1.9,0.8-1.9,1.9c0,1,0.8,1.9,1.9,1.9h13c1.7-1.1,3.3-2.3,4.8-3.7H57.7z"/>
<path id="pupil1" d="M57.9,32.1c-0.7,0-1.3,0.6-1.3,1.3c0,0.7,0.6,1.3,1.3,1.3c0.7,0,1.3-0.6,1.3-1.3C59.2,32.7,58.6,32.1,57.9,32.1
	"/>
<path id="iris2" class="st1" d="M72.8,34.8c-0.7,0-1.3-0.6-1.3-1.3c0-0.7,0.6-1.3,1.3-1.3c0.7,0,1.3,0.6,1.3,1.3
	C74.1,34.2,73.5,34.8,72.8,34.8 M72.8,30.5c-1.7,0-3,1.3-3,3c0,1.7,1.3,3,3,3c1.7,0,3-1.3,3-3C75.8,31.8,74.5,30.5,72.8,30.5"/>
<path id="pupil2" d="M72.8,32.1c-0.7,0-1.3,0.6-1.3,1.3c0,0.7,0.6,1.3,1.3,1.3c0.7,0,1.3-0.6,1.3-1.3C74.1,32.7,73.5,32.1,72.8,32.1
	"/>
</svg>
